<svg xmlns="http://www.w3.org/2000/svg" width="890.335" height="441.883" viewBox="0 0 890.335 441.883">
  <g id="Group_71" data-name="Group 71" transform="translate(-507.528 -2466.438)">
    <line id="Line_5" data-name="Line 5" y2="207.558" transform="translate(948.528 2609.901)" fill="none" stroke="#fff" stroke-width="4" stroke-dasharray="4 10"/>
    <line id="Line_7" data-name="Line 7" x1="265" transform="translate(612.5 2557)" fill="none" stroke="#fff" stroke-width="4" stroke-dasharray="4 10"/>
    <line id="Line_20" data-name="Line 20" x1="221" y2="88" transform="translate(649.5 2585)" fill="none" stroke="#fff" stroke-width="4" stroke-dasharray="4 10"/>
    <line id="Line_21" data-name="Line 21" x2="221" y2="88" transform="translate(1037.5 2585)" fill="none" stroke="#fff" stroke-width="4" stroke-dasharray="4 10"/>
    <line id="Line_19" data-name="Line 19" x2="265" transform="translate(1030.5 2557)" fill="none" stroke="#fff" stroke-width="4" stroke-dasharray="4 10"/>
    <line id="Line_6" data-name="Line 6" x1="94.162" y2="139.44" transform="translate(800.572 2597.579)" fill="none" stroke="#fff" stroke-width="4" stroke-dasharray="4 10"/>
    <line id="Line_18" data-name="Line 18" x2="87.751" y2="139.44" transform="translate(1013.326 2597.579)" fill="none" stroke="#fff" stroke-width="4" stroke-dasharray="4 10"/>
    <g id="Group_6" data-name="Group 6" transform="translate(507.528 2512.416)">
      <g id="Path_5" data-name="Path 5" fill="none">
        <path d="M45.278,0A45.278,45.278,0,1,1,0,45.278,45.278,45.278,0,0,1,45.278,0Z" stroke="none"/>
        <path d="M 45.2780647277832 2 C 39.43467712402344 2 33.76714324951172 3.14398193359375 28.43290328979492 5.400184631347656 C 23.27962493896484 7.579841613769531 18.65107727050781 10.70062255859375 14.67584991455078 14.67584991455078 C 10.70062255859375 18.65107727050781 7.579841613769531 23.27962493896484 5.400184631347656 28.43290328979492 C 3.14398193359375 33.76714324951172 2 39.43467712402344 2 45.2780647277832 C 2 51.12145233154297 3.14398193359375 56.78898620605469 5.400184631347656 62.12322235107422 C 7.579841613769531 67.27650451660156 10.70062255859375 71.90505218505859 14.67584991455078 75.88027954101562 C 18.65107727050781 79.85550689697266 23.27962493896484 82.97628784179688 28.43290328979492 85.15594482421875 C 33.76714324951172 87.41214752197266 39.43467712402344 88.55612945556641 45.2780647277832 88.55612945556641 C 51.12145233154297 88.55612945556641 56.78898620605469 87.41214752197266 62.12322235107422 85.15594482421875 C 67.27650451660156 82.97628784179688 71.90505218505859 79.85550689697266 75.88027954101562 75.88027954101562 C 79.85550689697266 71.90505218505859 82.97628784179688 67.27650451660156 85.15594482421875 62.12322235107422 C 87.41214752197266 56.78898620605469 88.55612945556641 51.12145233154297 88.55612945556641 45.2780647277832 C 88.55612945556641 39.43467712402344 87.41214752197266 33.76714324951172 85.15594482421875 28.43290328979492 C 82.97628784179688 23.27962493896484 79.85550689697266 18.65107727050781 75.88027954101562 14.67584991455078 C 71.90505218505859 10.70062255859375 67.27650451660156 7.579841613769531 62.12322235107422 5.400184631347656 C 56.78898620605469 3.14398193359375 51.12145233154297 2 45.2780647277832 2 M 45.2780647277832 0 C 70.28445434570312 0 90.55612945556641 20.27167510986328 90.55612945556641 45.2780647277832 C 90.55612945556641 70.28445434570312 70.28445434570312 90.55612945556641 45.2780647277832 90.55612945556641 C 20.27167510986328 90.55612945556641 0 70.28445434570312 0 45.2780647277832 C 0 20.27167510986328 20.27167510986328 0 45.2780647277832 0 Z" stroke="none" fill="#fff"/>
      </g>
      <g id="window_icon" data-name="window icon" transform="translate(25.644 24.843)">
        <path id="Path_70" data-name="Path 70" d="M63.016,46.9h-1.2V10.7a.691.691,0,0,0-.684-.7h-33.3a.691.691,0,0,0-.684.7V46.9H25.67a.671.671,0,0,0-.67.67v2.955a.671.671,0,0,0,.67.67H63.016a.671.671,0,0,0,.67-.67V47.573A.671.671,0,0,0,63.016,46.9Zm-18.43,0,.18-16.669H60.806V46.9Zm16.22-17.674H44.776L44.972,11H60.806ZM43.967,11l-.2,18.224H28.144V11ZM28.144,30.234H43.76L43.581,46.9H28.144ZM62.681,50.193H26V47.908H62.681Z" transform="translate(-25 -10)" fill="#fff" stroke="#fff" stroke-width="1"/>
        <path id="Path_71" data-name="Path 71" d="M104.622,51.171a.5.5,0,0,0,.7-.124l3.818-5.468a.5.5,0,0,0-.824-.575L104.5,50.471a.5.5,0,0,0,.124.7Z" transform="translate(-97.758 -41.875)" fill="#fff" stroke="#fff" stroke-width="1"/>
        <path id="Path_72" data-name="Path 72" d="M140.8,81.687a.5.5,0,0,0,.693-.155l2.106-3.318a.5.5,0,1,0-.848-.539l-2.106,3.318A.5.5,0,0,0,140.8,81.687Z" transform="translate(-130.892 -71.795)" fill="#fff" stroke="#fff" stroke-width="1"/>
        <path id="Path_73" data-name="Path 73" d="M317.334,297.586a.5.5,0,0,0-.7.124l-3.818,5.468a.5.5,0,1,0,.824.575l3.818-5.469A.5.5,0,0,0,317.334,297.586Z" transform="translate(-288.633 -273.422)" fill="#fff" stroke="#fff" stroke-width="1"/>
        <path id="Path_74" data-name="Path 74" d="M351.764,330.227a.5.5,0,0,0-.693.155l-2.107,3.318a.5.5,0,1,0,.848.539l2.106-3.318a.5.5,0,0,0-.155-.694Z" transform="translate(-321.765 -303.341)" fill="#fff" stroke="#fff" stroke-width="1"/>
      </g>
    </g>
    <g id="Group_15" data-name="Group 15" transform="translate(1096.621 2745.969)">
      <g id="cctv" transform="translate(24.843 24.843)">
        <path id="Path_64" data-name="Path 64" d="M151.647,438a10.577,10.577,0,0,1-14.982,0A1.178,1.178,0,1,0,135,439.665a12.924,12.924,0,0,0,18.311,0A1.178,1.178,0,0,0,151.647,438Z" transform="translate(-124.055 -403.264)" fill="#fff"/>
        <path id="Path_65" data-name="Path 65" d="M177.719,395.919a1.17,1.17,0,0,0,0,1.665,8.229,8.229,0,0,0,11.652,0,1.178,1.178,0,0,0-1.665-1.665,5.873,5.873,0,0,1-8.323,0,1.17,1.17,0,0,0-1.665,0Z" transform="translate(-163.444 -364.511)" fill="#fff"/>
        <path id="Path_66" data-name="Path 66" d="M225.484,355.555a1.178,1.178,0,0,0-1.665-1.665,1.178,1.178,0,0,1-1.665,0,1.178,1.178,0,0,0-1.665,1.665,3.526,3.526,0,0,0,4.994,0Z" transform="translate(-202.886 -325.811)" fill="#fff"/>
        <path id="Path_67" data-name="Path 67" d="M39.024,0H1.178A1.178,1.178,0,0,0,0,1.178V3.612A3.533,3.533,0,0,0,2.356,6.941V8.323a17.745,17.745,0,0,0,35.491,0V6.941A3.533,3.533,0,0,0,40.2,3.612V1.178A1.178,1.178,0,0,0,39.024,0ZM20.1,23.713A15.4,15.4,0,0,1,4.711,8.323V7.145h9.5v8.323a5.889,5.889,0,0,0,11.778,0V7.145h9.5V8.323A15.4,15.4,0,0,1,20.1,23.713ZM23.634,7.145v3.612a5.889,5.889,0,0,0-7.067,0V7.145Zm0,8.323A3.533,3.533,0,1,1,20.1,11.935,3.533,3.533,0,0,1,23.634,15.468ZM37.847,3.612A1.178,1.178,0,0,1,36.669,4.79H3.533A1.178,1.178,0,0,1,2.356,3.612V2.356H37.847Z" transform="translate(0)" fill="#fff"/>
        <ellipse id="Ellipse_2" data-name="Ellipse 2" cx="1.34" cy="1.172" rx="1.34" ry="1.172" transform="translate(18.764 14.404)" fill="#fff"/>
      </g>
      <g id="Group_9" data-name="Group 9">
        <g id="Path_5-2" data-name="Path 5" fill="none">
          <path d="M45.278,0A45.278,45.278,0,1,1,0,45.278,45.278,45.278,0,0,1,45.278,0Z" stroke="none"/>
          <path d="M 45.2780647277832 2 C 39.43467712402344 2 33.76714324951172 3.14398193359375 28.43290328979492 5.400184631347656 C 23.27962493896484 7.579841613769531 18.65107727050781 10.70062255859375 14.67584991455078 14.67584991455078 C 10.70062255859375 18.65107727050781 7.579841613769531 23.27962493896484 5.400184631347656 28.43290328979492 C 3.14398193359375 33.76714324951172 2 39.43467712402344 2 45.2780647277832 C 2 51.12145233154297 3.14398193359375 56.78898620605469 5.400184631347656 62.12322235107422 C 7.579841613769531 67.27650451660156 10.70062255859375 71.90505218505859 14.67584991455078 75.88027954101562 C 18.65107727050781 79.85550689697266 23.27962493896484 82.97628784179688 28.43290328979492 85.15594482421875 C 33.76714324951172 87.41214752197266 39.43467712402344 88.55612945556641 45.2780647277832 88.55612945556641 C 51.12145233154297 88.55612945556641 56.78898620605469 87.41214752197266 62.12322235107422 85.15594482421875 C 67.27650451660156 82.97628784179688 71.90505218505859 79.85550689697266 75.88027954101562 75.88027954101562 C 79.85550689697266 71.90505218505859 82.97628784179688 67.27650451660156 85.15594482421875 62.12322235107422 C 87.41214752197266 56.78898620605469 88.55612945556641 51.12145233154297 88.55612945556641 45.2780647277832 C 88.55612945556641 39.43467712402344 87.41214752197266 33.76714324951172 85.15594482421875 28.43290328979492 C 82.97628784179688 23.27962493896484 79.85550689697266 18.65107727050781 75.88027954101562 14.67584991455078 C 71.90505218505859 10.70062255859375 67.27650451660156 7.579841613769531 62.12322235107422 5.400184631347656 C 56.78898620605469 3.14398193359375 51.12145233154297 2 45.2780647277832 2 M 45.2780647277832 0 C 70.28445434570312 0 90.55612945556641 20.27167510986328 90.55612945556641 45.2780647277832 C 90.55612945556641 70.28445434570312 70.28445434570312 90.55612945556641 45.2780647277832 90.55612945556641 C 20.27167510986328 90.55612945556641 0 70.28445434570312 0 45.2780647277832 C 0 20.27167510986328 20.27167510986328 0 45.2780647277832 0 Z" stroke="none" fill="#fff"/>
        </g>
      </g>
    </g>
    <g id="Group_13" data-name="Group 13" transform="translate(713.017 2745.969)">
      <g id="Group_7" data-name="Group 7">
        <g id="Path_5-3" data-name="Path 5" fill="none">
          <path d="M45.278,0A45.278,45.278,0,1,1,0,45.278,45.278,45.278,0,0,1,45.278,0Z" stroke="none"/>
          <path d="M 45.2780647277832 2 C 39.43467712402344 2 33.76714324951172 3.14398193359375 28.43290328979492 5.400184631347656 C 23.27962493896484 7.579841613769531 18.65107727050781 10.70062255859375 14.67584991455078 14.67584991455078 C 10.70062255859375 18.65107727050781 7.579841613769531 23.27962493896484 5.400184631347656 28.43290328979492 C 3.14398193359375 33.76714324951172 2 39.43467712402344 2 45.2780647277832 C 2 51.12145233154297 3.14398193359375 56.78898620605469 5.400184631347656 62.12322235107422 C 7.579841613769531 67.27650451660156 10.70062255859375 71.90505218505859 14.67584991455078 75.88027954101562 C 18.65107727050781 79.85550689697266 23.27962493896484 82.97628784179688 28.43290328979492 85.15594482421875 C 33.76714324951172 87.41214752197266 39.43467712402344 88.55612945556641 45.2780647277832 88.55612945556641 C 51.12145233154297 88.55612945556641 56.78898620605469 87.41214752197266 62.12322235107422 85.15594482421875 C 67.27650451660156 82.97628784179688 71.90505218505859 79.85550689697266 75.88027954101562 75.88027954101562 C 79.85550689697266 71.90505218505859 82.97628784179688 67.27650451660156 85.15594482421875 62.12322235107422 C 87.41214752197266 56.78898620605469 88.55612945556641 51.12145233154297 88.55612945556641 45.2780647277832 C 88.55612945556641 39.43467712402344 87.41214752197266 33.76714324951172 85.15594482421875 28.43290328979492 C 82.97628784179688 23.27962493896484 79.85550689697266 18.65107727050781 75.88027954101562 14.67584991455078 C 71.90505218505859 10.70062255859375 67.27650451660156 7.579841613769531 62.12322235107422 5.400184631347656 C 56.78898620605469 3.14398193359375 51.12145233154297 2 45.2780647277832 2 M 45.2780647277832 0 C 70.28445434570312 0 90.55612945556641 20.27167510986328 90.55612945556641 45.2780647277832 C 90.55612945556641 70.28445434570312 70.28445434570312 90.55612945556641 45.2780647277832 90.55612945556641 C 20.27167510986328 90.55612945556641 0 70.28445434570312 0 45.2780647277832 C 0 20.27167510986328 20.27167510986328 0 45.2780647277832 0 Z" stroke="none" fill="#fff"/>
        </g>
      </g>
      <g id="door" transform="translate(31.254 18.432)">
        <path id="Path_75" data-name="Path 75" d="M154.781,8H128.864a.864.864,0,0,0-.864.864V60.7a.864.864,0,0,0,.864.864h25.917a.864.864,0,0,0,.864-.864V8.864A.864.864,0,0,0,154.781,8Zm-.864,51.834H129.728V9.728h24.189Z" transform="translate(-128 -8)" fill="#fff" stroke="#fff" stroke-width="1"/>
        <path id="Path_76" data-name="Path 76" d="M304.976,201.568h3.9a.976.976,0,0,0,.976-.976V184.976a.976.976,0,0,0-.976-.976h-3.9a.976.976,0,0,0-.976.976v15.616A.976.976,0,0,0,304.976,201.568Zm.976-15.616H307.9v13.664h-1.952Z" transform="translate(-286.115 -166.003)" fill="#fff" stroke="#fff" stroke-width="1"/>
        <path id="Path_77" data-name="Path 77" d="M152.9,47.524a.988.988,0,0,0,.7-.281l9.272-9.272a.988.988,0,0,0-1.366-1.415.024.024,0,0,1-.024.024L152.2,45.853a.976.976,0,0,0,.7,1.671Z" transform="translate(-148.995 -32.885)" fill="#fff" stroke="#fff" stroke-width="1"/>
        <path id="Path_78" data-name="Path 78" d="M190.869,88.241a.988.988,0,0,0-1.391,0l-4.88,4.88a.988.988,0,0,0,1.366,1.415.024.024,0,0,1,.024-.024l4.88-4.88A.988.988,0,0,0,190.869,88.241Z" transform="translate(-178.495 -79.463)" fill="#fff" stroke="#fff" stroke-width="1"/>
        <path id="Path_79" data-name="Path 79" d="M265.87,380.327,256.6,389.6a.988.988,0,0,0,1.366,1.415l.024-.024,9.272-9.272a1,1,0,0,0-.024-1.391A.988.988,0,0,0,265.87,380.327Z" transform="translate(-244.289 -341.612)" fill="#fff" stroke="#fff" stroke-width="1"/>
        <path id="Path_80" data-name="Path 80" d="M256.241,378.109a.988.988,0,0,0,1.391,0l4.392-4.392a1,1,0,0,0-.024-1.391.988.988,0,0,0-1.366,0l-4.392,4.392A.988.988,0,0,0,256.241,378.109Z" transform="translate(-242.594 -333.337)" fill="#fff" stroke="#fff" stroke-width="1"/>
        <path id="Path_81" data-name="Path 81" d="M240.241,66.693a.988.988,0,0,0,1.391,0l.976-.976a1,1,0,0,0-.024-1.391.988.988,0,0,0-1.366,0l-.976.976A.988.988,0,0,0,240.241,66.693Z" transform="translate(-228.027 -57.214)" fill="#fff" stroke="#fff" stroke-width="1"/>
        <path id="Path_82" data-name="Path 82" d="M233.978,424.241a.988.988,0,0,0-1.391,0l-.976.976a.988.988,0,1,0,1.366,1.415l.024-.024.976-.976A.988.988,0,0,0,233.978,424.241Z" transform="translate(-220.245 -380.159)" fill="#fff" stroke="#fff" stroke-width="1"/>
      </g>
    </g>
    <g id="Group_14" data-name="Group 14" transform="translate(904.292 2817.765)">
      <g id="Group_8" data-name="Group 8">
        <g id="Path_5-4" data-name="Path 5" fill="none">
          <path d="M45.278,0A45.278,45.278,0,1,1,0,45.278,45.278,45.278,0,0,1,45.278,0Z" stroke="none"/>
          <path d="M 45.2780647277832 2 C 39.43467712402344 2 33.76714324951172 3.14398193359375 28.43290328979492 5.400184631347656 C 23.27962493896484 7.579841613769531 18.65107727050781 10.70062255859375 14.67584991455078 14.67584991455078 C 10.70062255859375 18.65107727050781 7.579841613769531 23.27962493896484 5.400184631347656 28.43290328979492 C 3.14398193359375 33.76714324951172 2 39.43467712402344 2 45.2780647277832 C 2 51.12145233154297 3.14398193359375 56.78898620605469 5.400184631347656 62.12322235107422 C 7.579841613769531 67.27650451660156 10.70062255859375 71.90505218505859 14.67584991455078 75.88027954101562 C 18.65107727050781 79.85550689697266 23.27962493896484 82.97628784179688 28.43290328979492 85.15594482421875 C 33.76714324951172 87.41214752197266 39.43467712402344 88.55612945556641 45.2780647277832 88.55612945556641 C 51.12145233154297 88.55612945556641 56.78898620605469 87.41214752197266 62.12322235107422 85.15594482421875 C 67.27650451660156 82.97628784179688 71.90505218505859 79.85550689697266 75.88027954101562 75.88027954101562 C 79.85550689697266 71.90505218505859 82.97628784179688 67.27650451660156 85.15594482421875 62.12322235107422 C 87.41214752197266 56.78898620605469 88.55612945556641 51.12145233154297 88.55612945556641 45.2780647277832 C 88.55612945556641 39.43467712402344 87.41214752197266 33.76714324951172 85.15594482421875 28.43290328979492 C 82.97628784179688 23.27962493896484 79.85550689697266 18.65107727050781 75.88027954101562 14.67584991455078 C 71.90505218505859 10.70062255859375 67.27650451660156 7.579841613769531 62.12322235107422 5.400184631347656 C 56.78898620605469 3.14398193359375 51.12145233154297 2 45.2780647277832 2 M 45.2780647277832 0 C 70.28445434570312 0 90.55612945556641 20.27167510986328 90.55612945556641 45.2780647277832 C 90.55612945556641 70.28445434570312 70.28445434570312 90.55612945556641 45.2780647277832 90.55612945556641 C 20.27167510986328 90.55612945556641 0 70.28445434570312 0 45.2780647277832 C 0 20.27167510986328 20.27167510986328 0 45.2780647277832 0 Z" stroke="none" fill="#fff"/>
        </g>
      </g>
      <g id="Layer_2" data-name="Layer 2" transform="translate(25.644 20.836)">
        <g id="secure">
          <g id="temperate">
            <path id="Path_83" data-name="Path 83" d="M39.063,14H35a.71.71,0,0,0,0,1.4h4.067a.71.71,0,0,0,0-1.4Z" transform="translate(-0.775 1.763)" fill="#fff" stroke="#fff" stroke-miterlimit="10" stroke-width="1"/>
            <path id="Path_84" data-name="Path 84" d="M35,10.5H36.88a.7.7,0,0,0,0-1.4H35a.71.71,0,0,0,0,1.4Z" transform="translate(-0.775 0.942)" fill="#fff" stroke="#fff" stroke-miterlimit="10" stroke-width="1"/>
            <path id="Path_85" data-name="Path 85" d="M35,5.6h2.48a.741.741,0,0,0,.694-.7.741.741,0,0,0-.694-.7H35a.654.654,0,0,0-.6.7A.654.654,0,0,0,35,5.6Z" transform="translate(-0.775 0.12)" fill="#fff" stroke="#fff" stroke-miterlimit="10" stroke-width="1"/>
            <path id="Path_86" data-name="Path 86" d="M37.475,23.8H35a.71.71,0,0,0,0,1.4h2.48a.71.71,0,0,0,0-1.4Z" transform="translate(-0.775 3.406)" fill="#fff" stroke="#fff" stroke-miterlimit="10" stroke-width="1"/>
            <path id="Path_87" data-name="Path 87" d="M35,20.3H36.88a.71.71,0,0,0,0-1.4H35a.71.71,0,0,0,0,1.4Z" transform="translate(-0.775 2.585)" fill="#fff" stroke="#fff" stroke-miterlimit="10" stroke-width="1"/>
            <path id="Path_88" data-name="Path 88" d="M31.867,29.691V6.922a6.252,6.252,0,1,0-12.5,0V29.691A10.637,10.637,0,0,0,15.3,38.1,10.522,10.522,0,0,0,25.617,48.724,10.606,10.606,0,0,0,36.033,38.1a10.72,10.72,0,0,0-4.166-8.407Zm-6.25,17.631A9.034,9.034,0,0,1,16.689,38.1a9.224,9.224,0,0,1,3.77-7.473.6.6,0,0,0,.3-.584V6.922a4.863,4.863,0,1,1,9.722,0V30.041a.6.6,0,0,0,.3.584A9.431,9.431,0,0,1,34.644,38.1,9.116,9.116,0,0,1,25.617,47.323Z" transform="translate(-0.622 -0.5)" fill="#fff" stroke="#fff" stroke-miterlimit="10" stroke-width="1"/>
            <path id="Path_89" data-name="Path 89" d="M15.281,15.091a1,1,0,0,0,.6-1.868,1.777,1.777,0,0,1,0-2.919.939.939,0,0,0-.6-1.751,1.39,1.39,0,0,1-1.415-.669A2.011,2.011,0,0,1,13.694,6.1a.977.977,0,0,0-1.587-1.051,1.5,1.5,0,0,1-1.55.37,1.853,1.853,0,0,1-1.129-1.3,1.022,1.022,0,0,0-.942-.8,1.022,1.022,0,0,0-.942.8,1.939,1.939,0,0,1-1.187,1.3,1.578,1.578,0,0,1-1.591-.366A.926.926,0,0,0,3.278,6.1a2.134,2.134,0,0,1-.271,1.772,1.482,1.482,0,0,1-1.416.68A.939.939,0,0,0,1,10.3a1.777,1.777,0,0,1,0,2.919,1,1,0,0,0,.6,1.868,1.738,1.738,0,0,1,1.686,2.335.951.951,0,0,0,1.488,1.168,1.578,1.578,0,0,1,1.591-.366,1.939,1.939,0,0,1,1.187,1.3,1.022,1.022,0,0,0,.942.8,1.022,1.022,0,0,0,.942-.8,1.853,1.853,0,0,1,1.129-1.3,1.5,1.5,0,0,1,1.55.37,1.008,1.008,0,0,0,1.587-1.168,2,2,0,0,1,.237-1.692A1.389,1.389,0,0,1,15.281,15.091Zm-.893-1.284a3.044,3.044,0,0,0-2.282,3.153,3.079,3.079,0,0,0-3.67,1.284,3.079,3.079,0,0,0-3.67-1.284,3.044,3.044,0,0,0-2.282-3.153,3.308,3.308,0,0,0,0-3.97A3.18,3.18,0,0,0,4.766,6.567,2.89,2.89,0,0,0,8.436,5.4a2.89,2.89,0,0,0,3.67,1.168,3.18,3.18,0,0,0,2.282,3.269,3.308,3.308,0,0,0,0,3.97Z" transform="translate(-0.504 -0.029)" fill="#fff" stroke="#fff" stroke-miterlimit="10" stroke-width="1"/>
            <path id="Path_90" data-name="Path 90" d="M8.47,7.3a3.148,3.148,0,0,0-2.579.986A4.392,4.392,0,0,0,4.7,11.155c.158,2.277,1.832,3.988,3.77,3.853a3.913,3.913,0,0,0,3.869-3.853A3.913,3.913,0,0,0,8.47,7.3Zm0,6.305a2.453,2.453,0,0,1,0-4.9,2.062,2.062,0,0,1,1.674.618,2.864,2.864,0,0,1,.806,1.834,2.864,2.864,0,0,1-.806,1.834,2.062,2.062,0,0,1-1.674.618Z" transform="translate(-0.538 0.638)" fill="#fff" stroke="#fff" stroke-miterlimit="10" stroke-width="1"/>
          </g>
        </g>
      </g>
    </g>
    <g id="Group_11" data-name="Group 11" transform="translate(541.987 2676.344)">
      <g id="Group_10" data-name="Group 10">
        <g id="Path_5-5" data-name="Path 5" fill="none">
          <path d="M45.278,0A45.278,45.278,0,1,1,0,45.278,45.278,45.278,0,0,1,45.278,0Z" stroke="none"/>
          <path d="M 45.2780647277832 2 C 39.43467712402344 2 33.76714324951172 3.14398193359375 28.43290328979492 5.400184631347656 C 23.27962493896484 7.579841613769531 18.65107727050781 10.70062255859375 14.67584991455078 14.67584991455078 C 10.70062255859375 18.65107727050781 7.579841613769531 23.27962493896484 5.400184631347656 28.43290328979492 C 3.14398193359375 33.76714324951172 2 39.43467712402344 2 45.2780647277832 C 2 51.12145233154297 3.14398193359375 56.78898620605469 5.400184631347656 62.12322235107422 C 7.579841613769531 67.27650451660156 10.70062255859375 71.90505218505859 14.67584991455078 75.88027954101562 C 18.65107727050781 79.85550689697266 23.27962493896484 82.97628784179688 28.43290328979492 85.15594482421875 C 33.76714324951172 87.41214752197266 39.43467712402344 88.55612945556641 45.2780647277832 88.55612945556641 C 51.12145233154297 88.55612945556641 56.78898620605469 87.41214752197266 62.12322235107422 85.15594482421875 C 67.27650451660156 82.97628784179688 71.90505218505859 79.85550689697266 75.88027954101562 75.88027954101562 C 79.85550689697266 71.90505218505859 82.97628784179688 67.27650451660156 85.15594482421875 62.12322235107422 C 87.41214752197266 56.78898620605469 88.55612945556641 51.12145233154297 88.55612945556641 45.2780647277832 C 88.55612945556641 39.43467712402344 87.41214752197266 33.76714324951172 85.15594482421875 28.43290328979492 C 82.97628784179688 23.27962493896484 79.85550689697266 18.65107727050781 75.88027954101562 14.67584991455078 C 71.90505218505859 10.70062255859375 67.27650451660156 7.579841613769531 62.12322235107422 5.400184631347656 C 56.78898620605469 3.14398193359375 51.12145233154297 2 45.2780647277832 2 M 45.2780647277832 0 C 70.28445434570312 0 90.55612945556641 20.27167510986328 90.55612945556641 45.2780647277832 C 90.55612945556641 70.28445434570312 70.28445434570312 90.55612945556641 45.2780647277832 90.55612945556641 C 20.27167510986328 90.55612945556641 0 70.28445434570312 0 45.2780647277832 C 0 20.27167510986328 20.27167510986328 0 45.2780647277832 0 Z" stroke="none" fill="#fff"/>
        </g>
      </g>
      <g id="Layer_2-2" data-name="Layer 2" transform="translate(23.24 20.836)">
        <g id="thermostat_2_Image" data-name="thermostat 2 Image">
          <g id="room_option" data-name="room option">
            <g id="light">
              <path id="Path_99" data-name="Path 99" d="M83.264,26.6a11.34,11.34,0,0,0,2.8-7.438,11.949,11.949,0,0,0-4.024-8.9A14.266,14.266,0,0,0,72.29,6.6,14.51,14.51,0,0,0,62.9,10.258,12.437,12.437,0,0,0,59,19.037a12.193,12.193,0,0,0,2.8,7.682,19.509,19.509,0,0,1,4.511,12.437v4.755a4.146,4.146,0,0,0,4.268,3.9h3.9a4.024,4.024,0,0,0,4.146-3.9V39.156A19.753,19.753,0,0,1,83.264,26.6Zm-20.119-.854a10.608,10.608,0,0,1-2.439-6.706c.122-5.853,5.243-10.73,11.583-10.852a12.8,12.8,0,0,1,8.535,3.17,10.73,10.73,0,0,1,3.414,7.8,10.364,10.364,0,0,1-2.317,6.584,21.216,21.216,0,0,0-5,13.047H68.145a21.216,21.216,0,0,0-5-13.047Zm5,17.68v-.732l8.779.975v.61Zm0-2.317v-.732h8.779v1.707Zm2.439,5.121a2.561,2.561,0,0,1-2.195-1.219l7.438.854a2.439,2.439,0,0,1-1.341.366Z" transform="translate(-50.831 0.837)" fill="#fff"/>
              <path id="Path_100" data-name="Path 100" d="M63.43,18.295a5,5,0,0,1-.122-1.341.854.854,0,0,0-1.707,0,5.974,5.974,0,0,0,.122,1.463c0,.488.366.732.854.732H62.7a1.1,1.1,0,0,0,.732-.854Z" transform="translate(-50.261 2.921)" fill="#fff"/>
              <path id="Path_101" data-name="Path 101" d="M77.914,19.11a.854.854,0,0,0-1.1.488,6.218,6.218,0,0,1-1.1,1.585.854.854,0,0,0,.244,1.1l.488.244a1.1,1.1,0,0,0,.732-.366A10.486,10.486,0,0,0,78.4,20.207c.244-.488,0-.854-.488-1.1Z" transform="translate(-47.187 3.569)" fill="#fff"/>
              <path id="Path_102" data-name="Path 102" d="M70.254,6.6a.854.854,0,0,0,.854-.854V1.354a.854.854,0,1,0-1.707,0v4.39a.854.854,0,0,0,.854.854Z" transform="translate(-48.55 -0.5)" fill="#fff"/>
              <path id="Path_103" data-name="Path 103" d="M63.361,7.7a.854.854,0,0,0,.732.366h.488a.854.854,0,0,0,.244-1.1l-2.439-3.9a.854.854,0,0,0-1.1-.244.732.732,0,0,0-.366,1.1Z" transform="translate(-50.436 -0.014)" fill="#fff"/>
              <path id="Path_104" data-name="Path 104" d="M86.178,24.716l-4.146-2.195a.975.975,0,0,0-1.219.244.854.854,0,0,0,.366,1.1l4.146,2.317h.488a.853.853,0,0,0,.732-.366.732.732,0,0,0-.366-1.1Z" transform="translate(-46.063 4.304)" fill="#fff"/>
              <path id="Path_105" data-name="Path 105" d="M54.974,9.862l4.146,2.317h.488a.975.975,0,0,0,.732-.488.854.854,0,0,0-.244-1.1L55.828,8.521a.975.975,0,0,0-1.219.244C54.486,9.253,54.608,9.74,54.974,9.862Z" transform="translate(-51.804 1.233)" fill="#fff"/>
              <path id="Path_106" data-name="Path 106" d="M88.231,16.3H83.354a.795.795,0,1,0,0,1.585h4.877a.795.795,0,1,0,0-1.585Z" transform="translate(-45.677 2.965)" fill="#fff"/>
              <path id="Path_107" data-name="Path 107" d="M58.884,17.154a.975.975,0,0,0-.975-.854H53.154a.795.795,0,1,0,0,1.585h4.755C58.4,17.885,58.884,17.519,58.884,17.154Z" transform="translate(-52.3 2.965)" fill="#fff"/>
              <path id="Path_108" data-name="Path 108" d="M81.667,12.279h.366l4.146-2.317c.488-.122.61-.61.366-1.1a.975.975,0,0,0-1.219-.244l-4.146,2.195a.854.854,0,0,0-.366,1.1,1.219,1.219,0,0,0,.854.488Z" transform="translate(-46.063 1.255)" fill="#fff"/>
              <path id="Path_109" data-name="Path 109" d="M59.12,22.521l-4.146,2.195a.975.975,0,0,0-.366,1.1,1.1,1.1,0,0,0,.854.366h.366L60.1,23.862a.854.854,0,0,0,.244-1.1A.975.975,0,0,0,59.12,22.521Z" transform="translate(-51.804 4.304)" fill="#fff"/>
              <path id="Path_110" data-name="Path 110" d="M76.388,7.986h.366a1.1,1.1,0,0,0,.854-.366l2.317-3.9a.854.854,0,0,0-.244-1.1.975.975,0,0,0-1.219.244L76.022,6.889a.732.732,0,0,0,.366,1.1Z" transform="translate(-47.125 -0.06)" fill="#fff"/>
            </g>
          </g>
        </g>
      </g>
    </g>
    <g id="Group_12" data-name="Group 12" transform="translate(1266.436 2685.255)">
      <g id="Group_10-2" data-name="Group 10">
        <g id="Path_5-6" data-name="Path 5" fill="none">
          <path d="M45.278,0A45.278,45.278,0,1,1,0,45.278,45.278,45.278,0,0,1,45.278,0Z" stroke="none"/>
          <path d="M 45.2780647277832 2 C 39.43467712402344 2 33.76714324951172 3.14398193359375 28.43290328979492 5.400184631347656 C 23.27962493896484 7.579841613769531 18.65107727050781 10.70062255859375 14.67584991455078 14.67584991455078 C 10.70062255859375 18.65107727050781 7.579841613769531 23.27962493896484 5.400184631347656 28.43290328979492 C 3.14398193359375 33.76714324951172 2 39.43467712402344 2 45.2780647277832 C 2 51.12145233154297 3.14398193359375 56.78898620605469 5.400184631347656 62.12322235107422 C 7.579841613769531 67.27650451660156 10.70062255859375 71.90505218505859 14.67584991455078 75.88027954101562 C 18.65107727050781 79.85550689697266 23.27962493896484 82.97628784179688 28.43290328979492 85.15594482421875 C 33.76714324951172 87.41214752197266 39.43467712402344 88.55612945556641 45.2780647277832 88.55612945556641 C 51.12145233154297 88.55612945556641 56.78898620605469 87.41214752197266 62.12322235107422 85.15594482421875 C 67.27650451660156 82.97628784179688 71.90505218505859 79.85550689697266 75.88027954101562 75.88027954101562 C 79.85550689697266 71.90505218505859 82.97628784179688 67.27650451660156 85.15594482421875 62.12322235107422 C 87.41214752197266 56.78898620605469 88.55612945556641 51.12145233154297 88.55612945556641 45.2780647277832 C 88.55612945556641 39.43467712402344 87.41214752197266 33.76714324951172 85.15594482421875 28.43290328979492 C 82.97628784179688 23.27962493896484 79.85550689697266 18.65107727050781 75.88027954101562 14.67584991455078 C 71.90505218505859 10.70062255859375 67.27650451660156 7.579841613769531 62.12322235107422 5.400184631347656 C 56.78898620605469 3.14398193359375 51.12145233154297 2 45.2780647277832 2 M 45.2780647277832 0 C 70.28445434570312 0 90.55612945556641 20.27167510986328 90.55612945556641 45.2780647277832 C 90.55612945556641 70.28445434570312 70.28445434570312 90.55612945556641 45.2780647277832 90.55612945556641 C 20.27167510986328 90.55612945556641 0 70.28445434570312 0 45.2780647277832 C 0 20.27167510986328 20.27167510986328 0 45.2780647277832 0 Z" stroke="none" fill="#fff"/>
        </g>
      </g>
    </g>
    <g id="video-player" transform="translate(1288.875 2712.687)">
      <path id="Path_111" data-name="Path 111" d="M34.047,26.735l-8.815-5.61A.8.8,0,0,0,24,21.8V33.021a.8.8,0,0,0,1.232.676l8.815-5.61a.8.8,0,0,0,0-1.353ZM25.6,31.561v-8.3l6.521,4.15Z" transform="translate(-4.767 -8.979)" fill="#fff"/>
      <path id="Path_112" data-name="Path 112" d="M45.679,6H.8a.8.8,0,0,0-.8.8V42.062a.8.8,0,0,0,.8.8H45.679a.8.8,0,0,0,.8-.8V6.8A.8.8,0,0,0,45.679,6ZM8.014,23.63H1.6V16.418H8.014ZM1.6,25.233H8.014v7.212H1.6Zm8.014,8.014V7.6H36.864V41.261H9.617ZM44.877,23.63H38.466V16.418h6.411Zm-6.411,1.6h6.411v7.212H38.466ZM44.877,7.6v7.212H38.466V7.6ZM1.6,7.6H8.014v7.212H1.6Zm0,33.658V34.048H8.014v7.212Zm43.275,0H38.466V34.048h6.411Z" transform="translate(0 -6)" fill="#fff"/>
    </g>
    <g id="LOgo" transform="translate(1307.307 2512.416)">
      <g id="Path_5-7" data-name="Path 5" fill="none">
        <path d="M45.278,0A45.278,45.278,0,1,1,0,45.278,45.278,45.278,0,0,1,45.278,0Z" stroke="none"/>
        <path d="M 45.2780647277832 2 C 39.43467712402344 2 33.76714324951172 3.14398193359375 28.43290328979492 5.400184631347656 C 23.27962493896484 7.579841613769531 18.65107727050781 10.70062255859375 14.67584991455078 14.67584991455078 C 10.70062255859375 18.65107727050781 7.579841613769531 23.27962493896484 5.400184631347656 28.43290328979492 C 3.14398193359375 33.76714324951172 2 39.43467712402344 2 45.2780647277832 C 2 51.12145233154297 3.14398193359375 56.78898620605469 5.400184631347656 62.12322235107422 C 7.579841613769531 67.27650451660156 10.70062255859375 71.90505218505859 14.67584991455078 75.88027954101562 C 18.65107727050781 79.85550689697266 23.27962493896484 82.97628784179688 28.43290328979492 85.15594482421875 C 33.76714324951172 87.41214752197266 39.43467712402344 88.55612945556641 45.2780647277832 88.55612945556641 C 51.12145233154297 88.55612945556641 56.78898620605469 87.41214752197266 62.12322235107422 85.15594482421875 C 67.27650451660156 82.97628784179688 71.90505218505859 79.85550689697266 75.88027954101562 75.88027954101562 C 79.85550689697266 71.90505218505859 82.97628784179688 67.27650451660156 85.15594482421875 62.12322235107422 C 87.41214752197266 56.78898620605469 88.55612945556641 51.12145233154297 88.55612945556641 45.2780647277832 C 88.55612945556641 39.43467712402344 87.41214752197266 33.76714324951172 85.15594482421875 28.43290328979492 C 82.97628784179688 23.27962493896484 79.85550689697266 18.65107727050781 75.88027954101562 14.67584991455078 C 71.90505218505859 10.70062255859375 67.27650451660156 7.579841613769531 62.12322235107422 5.400184631347656 C 56.78898620605469 3.14398193359375 51.12145233154297 2 45.2780647277832 2 M 45.2780647277832 0 C 70.28445434570312 0 90.55612945556641 20.27167510986328 90.55612945556641 45.2780647277832 C 90.55612945556641 70.28445434570312 70.28445434570312 90.55612945556641 45.2780647277832 90.55612945556641 C 20.27167510986328 90.55612945556641 0 70.28445434570312 0 45.2780647277832 C 0 20.27167510986328 20.27167510986328 0 45.2780647277832 0 Z" stroke="none" fill="#fff"/>
      </g>
    </g>
    <g id="Layer_2-3" data-name="Layer 2" transform="translate(1334.553 2534.053)">
      <g id="thermostat_2_Image-2" data-name="thermostat 2 Image">
        <g id="secure-2" data-name="secure">
          <path id="Path_113" data-name="Path 113" d="M36.152,9.549,18.487.1h-.822L.411,9.549A.822.822,0,0,0,0,10.268V22.592A25.265,25.265,0,0,0,15.3,45.906l2.362,1.027h.719l2.67-1.13A25.265,25.265,0,0,0,36.665,22.387V10.268A.822.822,0,0,0,36.152,9.549ZM34.919,22.387A23.622,23.622,0,0,1,20.335,44.16h0l-2.362,1.027-1.951-.822A23.827,23.827,0,0,1,1.746,22.592V10.781l16.33-8.935,16.843,8.935Z" transform="translate(0 -0.1)" fill="#fff"/>
          <path id="secure-3" data-name="secure" d="M11.347,21.6a.924.924,0,1,0-1.335,1.13l4.622,5.443a.924.924,0,0,0,1.232.1L26.65,19.44A.842.842,0,1,0,25.623,18.1L15.455,26.321Z" transform="translate(0.259 0.382)" fill="#fff"/>
        </g>
      </g>
    </g>
    <g id="logo-2" data-name="logo" transform="translate(893.53 2467.963)">
      <g id="thermo" transform="translate(0 84.348)">
        <path id="Path_167" data-name="Path 167" d="M17.39,449.209H12.4V448.7H22.945v.509h-5.01v13.263H17.39Z" transform="translate(-12.4 -447.799)" fill="#fff" stroke="#fff" stroke-width="1"/>
        <path id="Path_168" data-name="Path 168" d="M76.9,444.1h.545v5.681h.02a8,8,0,0,1,4.04-1.136c1.9,0,2.99.725,2.99,2.586v7.523H83.95v-7.405c0-1.665-.828-2.253-2.646-2.253a7.663,7.663,0,0,0-3.858,1.136v8.522H76.9Z" transform="translate(-63.87 -444.1)" fill="#fff" stroke="#fff" stroke-width="1"/>
        <path id="Path_169" data-name="Path 169" d="M128,472.77v-.216c0-3.448,1.98-5.054,4.464-5.054s4,1.763,4,4.662v.255h-7.919v.353c0,3.017,1.374,4.545,4.343,4.545a8.091,8.091,0,0,0,3.172-.627v.411a6.818,6.818,0,0,1-3.232.686C129.616,477.785,128,476.061,128,472.77Zm.566-.784h7.313c0-2.508-1.05-4.036-3.434-4.036C130.384,467.951,128.747,469.244,128.566,471.986Z" transform="translate(-104.648 -462.916)" fill="#fff" stroke="#fff" stroke-width="1"/>
        <path id="Path_170" data-name="Path 170" d="M183.3,467.814h.545v1.273h.04a4.652,4.652,0,0,1,3.232-1.391,2.331,2.331,0,0,1,.586.059v.49a2.828,2.828,0,0,0-.606-.078,4.527,4.527,0,0,0-3.232,1.411v8.208H183.3Z" transform="translate(-148.776 -463.073)" fill="#fff" stroke="#fff" stroke-width="1"/>
        <path id="Path_171" data-name="Path 171" d="M218.1,467.657h.525v.979h.04a7.267,7.267,0,0,1,3.677-1.136,2.674,2.674,0,0,1,2.5,1.2h.04a7.222,7.222,0,0,1,3.858-1.2c1.7,0,2.848.725,2.848,2.625v7.5h-.525V470.2c0-1.646-.929-2.233-2.485-2.233a7.261,7.261,0,0,0-3.616,1.117,3.694,3.694,0,0,1,.141,1.038v7.5h-.545V470.2c0-1.646-.808-2.233-2.323-2.233a6.618,6.618,0,0,0-3.6,1.136v8.522H218.1Z" transform="translate(-176.546 -462.916)" fill="#fff" stroke="#fff" stroke-width="1"/>
        <path id="Path_172" data-name="Path 172" d="M298.8,472.77v-.216c0-3.35,1.96-5.054,4.485-5.054s4.525,1.626,4.525,5.015v.176c0,3.37-1.98,5.094-4.525,5.094S298.8,476.159,298.8,472.77Zm8.484-.039v-.274c0-3.193-1.677-4.506-4-4.506s-3.98,1.567-3.98,4.584v.294c0,3.1,1.656,4.525,3.98,4.525S307.284,475.806,307.284,472.731Z" transform="translate(-240.944 -462.916)" fill="#fff" stroke="#fff" stroke-width="1"/>
        <path id="Path_173" data-name="Path 173" d="M353.6,461.037v-.49a8.448,8.448,0,0,0,4,.96c2.788,0,3.98-1.175,3.98-3.134s-1.273-2.684-3.232-3.291l-.909-.294c-2.5-.823-3.535-1.724-3.535-3.683s1.333-3.213,4.1-3.213a7.336,7.336,0,0,1,3.434.764v.509a6.948,6.948,0,0,0-3.454-.784c-2.384,0-3.515,1.136-3.515,2.684s.808,2.429,3.172,3.252l.889.235c2.182.744,3.636,1.508,3.636,3.781S360.812,462,357.62,462A8.572,8.572,0,0,1,353.6,461.037Z" transform="translate(-284.674 -447.148)" fill="#fff" stroke="#fff" stroke-width="1"/>
        <path id="Path_174" data-name="Path 174" d="M407.8,472.77v-.216c0-3.448,1.96-5.054,4.444-5.054,2.788,0,4,1.763,4,4.662v.255h-7.919v.353c0,3.017,1.374,4.545,4.343,4.545a8.091,8.091,0,0,0,3.172-.627v.411a6.819,6.819,0,0,1-3.232.686C409.4,477.785,407.8,476.061,407.8,472.77Zm.566-.784h7.293c0-2.508-1.05-4.036-3.434-4.036C410.164,467.951,408.527,469.244,408.366,471.986Z" transform="translate(-327.925 -462.916)" fill="#fff" stroke="#fff" stroke-width="1"/>
        <path id="Path_175" data-name="Path 175" d="M459.7,472.75v-.216c0-3.507,1.96-5.035,4.5-5.035a5.292,5.292,0,0,1,2.909.666v.451a5.788,5.788,0,0,0-2.949-.646c-2.182,0-3.939,1.293-3.939,4.486v.274c0,2.821,1.212,4.584,4.04,4.584a5.293,5.293,0,0,0,2.99-.8v.47a5.009,5.009,0,0,1-3.071.8C461.134,477.785,459.7,475.787,459.7,472.75Z" transform="translate(-369.341 -462.916)" fill="#fff" stroke="#fff" stroke-width="1"/>
        <path id="Path_176" data-name="Path 176" d="M510.4,475.784V468.3h.545v7.425c0,1.685.889,2.233,2.667,2.233a7.5,7.5,0,0,0,3.8-1.136V468.3h.566v9.972h-.505l-.04-.98h-.04a7.85,7.85,0,0,1-3.9,1.136C511.552,478.428,510.4,477.664,510.4,475.784Z" transform="translate(-409.799 -463.559)" fill="#fff" stroke="#fff" stroke-width="1"/>
        <path id="Path_177" data-name="Path 177" d="M565.1,467.816h.545v1.273h.04a4.735,4.735,0,0,1,3.252-1.391,2.564,2.564,0,0,1,.586.059v.49a3.217,3.217,0,0,0-.626-.078,4.568,4.568,0,0,0-3.232,1.411v8.208H565.1Z" transform="translate(-453.449 -463.075)" fill="#fff" stroke="#fff" stroke-width="1"/>
        <path id="Path_178" data-name="Path 178" d="M596.1,472.77v-.216c0-3.448,1.98-5.054,4.444-5.054,2.788,0,4,1.763,4,4.662v.255h-7.9v.353c0,3.017,1.374,4.545,4.343,4.545a8.173,8.173,0,0,0,3.172-.627v.411a6.818,6.818,0,0,1-3.232.686C597.7,477.785,596.1,476.061,596.1,472.77Zm.566-.784h7.293c0-2.508-1.05-4.036-3.434-4.036C598.464,467.951,596.827,469.244,596.666,471.986Z" transform="translate(-478.186 -462.916)" fill="#fff" stroke="#fff" stroke-width="1"/>
        <path id="Path_179" data-name="Path 179" d="M162.2,560.587V552.3h.343v3.252h0a4.092,4.092,0,0,1,2.121-.588c1.374,0,2.384.646,2.384,2.958v.1a2.6,2.6,0,0,1-2.828,2.939A4.685,4.685,0,0,1,162.2,560.587Zm4.525-2.547v-.118c0-2.1-.828-2.7-2.161-2.7a3.881,3.881,0,0,0-2.02.607v4.565a3.818,3.818,0,0,0,1.7.313c1.454,0,2.485-.784,2.485-2.664Z" transform="translate(-131.939 -531.103)" fill="#fff" stroke="#fff" stroke-width="1"/>
        <path id="Path_180" data-name="Path 180" d="M191.6,574.142v-.235a2.1,2.1,0,0,0,.626.078c.727,0,.97-.372,1.232-1l.444-1.136-2.4-5.25h.323l2.242,4.839h.02l2.061-4.839h.323l-2.727,6.445c-.283.725-.586,1.215-1.475,1.215A2.014,2.014,0,0,1,191.6,574.142Z" transform="translate(-155.32 -542.602)" fill="#fff" stroke="#fff" stroke-width="1"/>
        <path id="Path_181" data-name="Path 181" d="M240,555h.323v3.722h5.151V555h.323v8.052h-.323V559h-5.151v4.055H240Z" transform="translate(-194.022 -533.274)" fill="#fff" stroke="#fff" stroke-width="1"/>
        <path id="Path_182" data-name="Path 182" d="M277.4,569.076v-.137c0-1.959,1.151-2.939,2.626-2.939s2.626.96,2.626,2.919v.118c0,1.959-1.151,2.958-2.626,2.958S277.4,571.035,277.4,569.076Zm4.949-.02V568.9c0-1.881-.97-2.645-2.323-2.645s-2.323.921-2.323,2.684v.157c0,1.822.97,2.645,2.323,2.645S282.349,570.858,282.349,569.056Z" transform="translate(-223.867 -542.119)" fill="#fff" stroke="#fff" stroke-width="1"/>
        <path id="Path_183" data-name="Path 183" d="M311.8,566.078h.3v.588h.02a4.189,4.189,0,0,1,2.141-.666,1.523,1.523,0,0,1,1.454.686h.02A4.377,4.377,0,0,1,318,566c.99,0,1.656.431,1.656,1.528v4.388h-.3v-4.349c0-.96-.545-1.293-1.434-1.293a4.212,4.212,0,0,0-2.121.646,2.472,2.472,0,0,1,.081.607v4.388h-.323v-4.349c0-.96-.465-1.293-1.354-1.293a3.837,3.837,0,0,0-2.1.666v4.976h-.3Z" transform="translate(-251.318 -542.119)" fill="#fff" stroke="#fff" stroke-width="1"/>
        <path id="Path_184" data-name="Path 184" d="M358.7,569.076v-.137c0-2,1.172-2.939,2.606-2.939s2.323,1.019,2.323,2.723v.137h-4.606v.215c0,1.763.808,2.645,2.545,2.645a5.021,5.021,0,0,0,1.838-.353v.235a4.083,4.083,0,0,1-1.879.392C359.649,571.995,358.7,571,358.7,569.076Zm.343-.47h4.262c0-1.45-.626-2.351-2.02-2.351s-2.141.764-2.242,2.351Z" transform="translate(-288.744 -542.119)" fill="#fff" stroke="#fff" stroke-width="1"/>
        <path id="Path_185" data-name="Path 185" d="M389.5,558.773v-.157c0-2.645,1.313-4.016,3.576-4.016a3.926,3.926,0,0,1,2.02.431v.294a4.246,4.246,0,0,0-2.02-.451c-2.06,0-3.252,1.234-3.252,3.7v.215c0,2.449.97,3.742,3.111,3.742a4.014,4.014,0,0,0,2.2-.549v.294a4.243,4.243,0,0,1-2.222.549C390.611,562.828,389.5,561.4,389.5,558.773Z" transform="translate(-313.322 -532.953)" fill="#fff" stroke="#fff" stroke-width="1"/>
        <path id="Path_186" data-name="Path 186" d="M424.6,569.076v-.137c0-1.959,1.152-2.939,2.626-2.939s2.626.96,2.626,2.919v.118c0,1.959-1.151,2.958-2.626,2.958S424.6,571.035,424.6,569.076Zm4.949-.02V568.9c0-1.881-.97-2.645-2.323-2.645s-2.323.921-2.323,2.684v.157c0,1.822.97,2.645,2.323,2.645S429.549,570.858,429.549,569.056Z" transform="translate(-341.331 -542.119)" fill="#fff" stroke="#fff" stroke-width="1"/>
        <path id="Path_187" data-name="Path 187" d="M459,566.078h.3v.588h.02a4.189,4.189,0,0,1,2.141-.666,1.544,1.544,0,0,1,1.454.686h.02A4.377,4.377,0,0,1,465.2,566c.99,0,1.657.431,1.657,1.528v4.388h-.3v-4.349c0-.96-.545-1.293-1.454-1.293a4.149,4.149,0,0,0-2.1.646,2.474,2.474,0,0,1,.081.607v4.388h-.323v-4.349c0-.96-.465-1.293-1.354-1.293a3.837,3.837,0,0,0-2.1.666v4.976H459Z" transform="translate(-368.782 -542.119)" fill="#fff" stroke="#fff" stroke-width="1"/>
      </g>
      <line id="bottom_line_left" data-name="bottom line left" x1="23.736" transform="translate(0 111.206)" fill="aqua" stroke="aqua" stroke-miterlimit="10" stroke-width="2"/>
      <line id="bottom_line_right" data-name="bottom line right" x1="23.736" transform="translate(102.702 111.206)" fill="aqua" stroke="aqua" stroke-miterlimit="10" stroke-width="2"/>
      <path id="leaf" d="M289.273,212.869s-10.181-5.7-6.02-21.569c0,0,8.747.607,16,12.029" transform="translate(-227.74 -156.477)" fill="aqua" stroke="#fff" stroke-miterlimit="10" stroke-width="3"/>
      <ellipse id="phone_cam" data-name="phone cam" cx="0.404" cy="0.372" rx="0.404" ry="0.372" transform="translate(71.896 33.726)" fill="aqua" stroke="aqua" stroke-miterlimit="10" stroke-width="0.1"/>
      <rect id="phone_line" data-name="phone line" width="5.333" height="0.382" rx="0.191" transform="translate(73.653 33.902)" fill="aqua" stroke="aqua" stroke-miterlimit="10" stroke-width="0.2"/>
      <path id="phone" d="M356.861,189.474V178.052a2.71,2.71,0,0,0-2.99-3.154H341.488s-3.919-.157-3.273,5.583l15.232-.235" transform="translate(-272.34 -143.288)" fill="none" stroke="#fff" stroke-miterlimit="10" stroke-width="2"/>
      <path id="main_house" data-name="main house" d="M224.5,78.086s13.01-1.156,11.818-18.356c0,0-20.908.882-20.767,13.263V86.549s.081,1.822-2.828,1.822h-23.11s-2.909,1-2.485-3.1V39.846s-.545-1.038,2.222-3.252l27.716-22.353a1.641,1.641,0,0,1,2.646,0l26.362,22.353a4.987,4.987,0,0,1,2.162,3.7v44.96s.343,3.115-2.768,3.115H224.156" transform="translate(-151.796 -13.544)" fill="none" stroke="#fff" stroke-miterlimit="10" stroke-width="3"/>
    </g>
  </g>
</svg>
