<svg xmlns="http://www.w3.org/2000/svg" width="90.556" height="90.556" viewBox="0 0 90.556 90.556">
  <g id="audio_video_icon" transform="translate(-1266.436 -2685.255)">
    <g id="Group_12" data-name="Group 12" transform="translate(1266.436 2685.255)">
      <g id="Group_10" data-name="Group 10">
        <g id="Path_5" data-name="Path 5" fill="none">
          <path d="M45.278,0A45.278,45.278,0,1,1,0,45.278,45.278,45.278,0,0,1,45.278,0Z" stroke="none"/>
          <path d="M 45.2780647277832 2 C 39.43467712402344 2 33.76714324951172 3.14398193359375 28.43290328979492 5.400184631347656 C 23.27962493896484 7.579841613769531 18.65107727050781 10.70062255859375 14.67584991455078 14.67584991455078 C 10.70062255859375 18.65107727050781 7.579841613769531 23.27962493896484 5.400184631347656 28.43290328979492 C 3.14398193359375 33.76714324951172 2 39.43467712402344 2 45.2780647277832 C 2 51.12145233154297 3.14398193359375 56.78898620605469 5.400184631347656 62.12322235107422 C 7.579841613769531 67.27650451660156 10.70062255859375 71.90505218505859 14.67584991455078 75.88027954101562 C 18.65107727050781 79.85550689697266 23.27962493896484 82.97628784179688 28.43290328979492 85.15594482421875 C 33.76714324951172 87.41214752197266 39.43467712402344 88.55612945556641 45.2780647277832 88.55612945556641 C 51.12145233154297 88.55612945556641 56.78898620605469 87.41214752197266 62.12322235107422 85.15594482421875 C 67.27650451660156 82.97628784179688 71.90505218505859 79.85550689697266 75.88027954101562 75.88027954101562 C 79.85550689697266 71.90505218505859 82.97628784179688 67.27650451660156 85.15594482421875 62.12322235107422 C 87.41214752197266 56.78898620605469 88.55612945556641 51.12145233154297 88.55612945556641 45.2780647277832 C 88.55612945556641 39.43467712402344 87.41214752197266 33.76714324951172 85.15594482421875 28.43290328979492 C 82.97628784179688 23.27962493896484 79.85550689697266 18.65107727050781 75.88027954101562 14.67584991455078 C 71.90505218505859 10.70062255859375 67.27650451660156 7.579841613769531 62.12322235107422 5.400184631347656 C 56.78898620605469 3.14398193359375 51.12145233154297 2 45.2780647277832 2 M 45.2780647277832 0 C 70.28445434570312 0 90.55612945556641 20.27167510986328 90.55612945556641 45.2780647277832 C 90.55612945556641 70.28445434570312 70.28445434570312 90.55612945556641 45.2780647277832 90.55612945556641 C 20.27167510986328 90.55612945556641 0 70.28445434570312 0 45.2780647277832 C 0 20.27167510986328 20.27167510986328 0 45.2780647277832 0 Z" stroke="none" fill="#fff"/>
        </g>
      </g>
    </g>
    <g id="video-player" transform="translate(1288.875 2712.687)">
      <path id="Path_111" data-name="Path 111" d="M34.047,26.735l-8.815-5.61A.8.8,0,0,0,24,21.8V33.021a.8.8,0,0,0,1.232.676l8.815-5.61a.8.8,0,0,0,0-1.353ZM25.6,31.561v-8.3l6.521,4.15Z" transform="translate(-4.767 -8.979)" fill="#fff"/>
      <path id="Path_112" data-name="Path 112" d="M45.679,6H.8a.8.8,0,0,0-.8.8V42.062a.8.8,0,0,0,.8.8H45.679a.8.8,0,0,0,.8-.8V6.8A.8.8,0,0,0,45.679,6ZM8.014,23.63H1.6V16.418H8.014ZM1.6,25.233H8.014v7.212H1.6Zm8.014,8.014V7.6H36.864V41.261H9.617ZM44.877,23.63H38.466V16.418h6.411Zm-6.411,1.6h6.411v7.212H38.466ZM44.877,7.6v7.212H38.466V7.6ZM1.6,7.6H8.014v7.212H1.6Zm0,33.658V34.048H8.014v7.212Zm43.275,0H38.466V34.048h6.411Z" transform="translate(0 -6)" fill="#fff"/>
    </g>
  </g>
</svg>
