<svg xmlns="http://www.w3.org/2000/svg" width="90.556" height="90.556" viewBox="0 0 90.556 90.556">
  <g id="Group_15" data-name="Group 15" transform="translate(0)">
    <g id="cctv" transform="translate(24.843 24.843)">
      <path id="Path_64" data-name="Path 64" d="M151.647,438a10.577,10.577,0,0,1-14.982,0A1.178,1.178,0,1,0,135,439.665a12.924,12.924,0,0,0,18.311,0A1.178,1.178,0,0,0,151.647,438Z" transform="translate(-124.055 -403.264)" fill="#fff"/>
      <path id="Path_65" data-name="Path 65" d="M177.719,395.919a1.17,1.17,0,0,0,0,1.665,8.229,8.229,0,0,0,11.652,0,1.178,1.178,0,0,0-1.665-1.665,5.873,5.873,0,0,1-8.323,0,1.17,1.17,0,0,0-1.665,0Z" transform="translate(-163.444 -364.511)" fill="#fff"/>
      <path id="Path_66" data-name="Path 66" d="M225.484,355.555a1.178,1.178,0,0,0-1.665-1.665,1.178,1.178,0,0,1-1.665,0,1.178,1.178,0,0,0-1.665,1.665,3.526,3.526,0,0,0,4.994,0Z" transform="translate(-202.886 -325.811)" fill="#fff"/>
      <path id="Path_67" data-name="Path 67" d="M39.024,0H1.178A1.178,1.178,0,0,0,0,1.178V3.612A3.533,3.533,0,0,0,2.356,6.941V8.323a17.745,17.745,0,0,0,35.491,0V6.941A3.533,3.533,0,0,0,40.2,3.612V1.178A1.178,1.178,0,0,0,39.024,0ZM20.1,23.713A15.4,15.4,0,0,1,4.711,8.323V7.145h9.5v8.323a5.889,5.889,0,0,0,11.778,0V7.145h9.5V8.323A15.4,15.4,0,0,1,20.1,23.713ZM23.634,7.145v3.612a5.889,5.889,0,0,0-7.067,0V7.145Zm0,8.323A3.533,3.533,0,1,1,20.1,11.935,3.533,3.533,0,0,1,23.634,15.468ZM37.847,3.612A1.178,1.178,0,0,1,36.669,4.79H3.533A1.178,1.178,0,0,1,2.356,3.612V2.356H37.847Z" transform="translate(0)" fill="#fff"/>
      <ellipse id="Ellipse_2" data-name="Ellipse 2" cx="1.34" cy="1.172" rx="1.34" ry="1.172" transform="translate(18.764 14.404)" fill="#fff"/>
    </g>
    <g id="Group_9" data-name="Group 9">
      <g id="Path_5" data-name="Path 5" fill="none">
        <path d="M45.278,0A45.278,45.278,0,1,1,0,45.278,45.278,45.278,0,0,1,45.278,0Z" stroke="none"/>
        <path d="M 45.2780647277832 2 C 39.43467712402344 2 33.76714324951172 3.14398193359375 28.43290328979492 5.400184631347656 C 23.27962493896484 7.579841613769531 18.65107727050781 10.70062255859375 14.67584991455078 14.67584991455078 C 10.70062255859375 18.65107727050781 7.579841613769531 23.27962493896484 5.400184631347656 28.43290328979492 C 3.14398193359375 33.76714324951172 2 39.43467712402344 2 45.2780647277832 C 2 51.12145233154297 3.14398193359375 56.78898620605469 5.400184631347656 62.12322235107422 C 7.579841613769531 67.27650451660156 10.70062255859375 71.90505218505859 14.67584991455078 75.88027954101562 C 18.65107727050781 79.85550689697266 23.27962493896484 82.97628784179688 28.43290328979492 85.15594482421875 C 33.76714324951172 87.41214752197266 39.43467712402344 88.55612945556641 45.2780647277832 88.55612945556641 C 51.12145233154297 88.55612945556641 56.78898620605469 87.41214752197266 62.12322235107422 85.15594482421875 C 67.27650451660156 82.97628784179688 71.90505218505859 79.85550689697266 75.88027954101562 75.88027954101562 C 79.85550689697266 71.90505218505859 82.97628784179688 67.27650451660156 85.15594482421875 62.12322235107422 C 87.41214752197266 56.78898620605469 88.55612945556641 51.12145233154297 88.55612945556641 45.2780647277832 C 88.55612945556641 39.43467712402344 87.41214752197266 33.76714324951172 85.15594482421875 28.43290328979492 C 82.97628784179688 23.27962493896484 79.85550689697266 18.65107727050781 75.88027954101562 14.67584991455078 C 71.90505218505859 10.70062255859375 67.27650451660156 7.579841613769531 62.12322235107422 5.400184631347656 C 56.78898620605469 3.14398193359375 51.12145233154297 2 45.2780647277832 2 M 45.2780647277832 0 C 70.28445434570312 0 90.55612945556641 20.27167510986328 90.55612945556641 45.2780647277832 C 90.55612945556641 70.28445434570312 70.28445434570312 90.55612945556641 45.2780647277832 90.55612945556641 C 20.27167510986328 90.55612945556641 0 70.28445434570312 0 45.2780647277832 C 0 20.27167510986328 20.27167510986328 0 45.2780647277832 0 Z" stroke="none" fill="#fff"/>
      </g>
    </g>
  </g>
</svg>
