<svg xmlns="http://www.w3.org/2000/svg" width="90.556" height="90.556" viewBox="0 0 90.556 90.556">
  <g id="Group_13" data-name="Group 13" transform="translate(0)">
    <g id="Group_7" data-name="Group 7">
      <g id="Path_5" data-name="Path 5" fill="none">
        <path d="M45.278,0A45.278,45.278,0,1,1,0,45.278,45.278,45.278,0,0,1,45.278,0Z" stroke="none"/>
        <path d="M 45.2780647277832 2 C 39.43467712402344 2 33.76714324951172 3.14398193359375 28.43290328979492 5.400184631347656 C 23.27962493896484 7.579841613769531 18.65107727050781 10.70062255859375 14.67584991455078 14.67584991455078 C 10.70062255859375 18.65107727050781 7.579841613769531 23.27962493896484 5.400184631347656 28.43290328979492 C 3.14398193359375 33.76714324951172 2 39.43467712402344 2 45.2780647277832 C 2 51.12145233154297 3.14398193359375 56.78898620605469 5.400184631347656 62.12322235107422 C 7.579841613769531 67.27650451660156 10.70062255859375 71.90505218505859 14.67584991455078 75.88027954101562 C 18.65107727050781 79.85550689697266 23.27962493896484 82.97628784179688 28.43290328979492 85.15594482421875 C 33.76714324951172 87.41214752197266 39.43467712402344 88.55612945556641 45.2780647277832 88.55612945556641 C 51.12145233154297 88.55612945556641 56.78898620605469 87.41214752197266 62.12322235107422 85.15594482421875 C 67.27650451660156 82.97628784179688 71.90505218505859 79.85550689697266 75.88027954101562 75.88027954101562 C 79.85550689697266 71.90505218505859 82.97628784179688 67.27650451660156 85.15594482421875 62.12322235107422 C 87.41214752197266 56.78898620605469 88.55612945556641 51.12145233154297 88.55612945556641 45.2780647277832 C 88.55612945556641 39.43467712402344 87.41214752197266 33.76714324951172 85.15594482421875 28.43290328979492 C 82.97628784179688 23.27962493896484 79.85550689697266 18.65107727050781 75.88027954101562 14.67584991455078 C 71.90505218505859 10.70062255859375 67.27650451660156 7.579841613769531 62.12322235107422 5.400184631347656 C 56.78898620605469 3.14398193359375 51.12145233154297 2 45.2780647277832 2 M 45.2780647277832 0 C 70.28445434570312 0 90.55612945556641 20.27167510986328 90.55612945556641 45.2780647277832 C 90.55612945556641 70.28445434570312 70.28445434570312 90.55612945556641 45.2780647277832 90.55612945556641 C 20.27167510986328 90.55612945556641 0 70.28445434570312 0 45.2780647277832 C 0 20.27167510986328 20.27167510986328 0 45.2780647277832 0 Z" stroke="none" fill="#fff"/>
      </g>
    </g>
    <g id="door" transform="translate(31.254 18.432)">
      <path id="Path_75" data-name="Path 75" d="M154.781,8H128.864a.864.864,0,0,0-.864.864V60.7a.864.864,0,0,0,.864.864h25.917a.864.864,0,0,0,.864-.864V8.864A.864.864,0,0,0,154.781,8Zm-.864,51.834H129.728V9.728h24.189Z" transform="translate(-128 -8)" fill="#fff" stroke="#fff" stroke-width="1"/>
      <path id="Path_76" data-name="Path 76" d="M304.976,201.568h3.9a.976.976,0,0,0,.976-.976V184.976a.976.976,0,0,0-.976-.976h-3.9a.976.976,0,0,0-.976.976v15.616A.976.976,0,0,0,304.976,201.568Zm.976-15.616H307.9v13.664h-1.952Z" transform="translate(-286.115 -166.003)" fill="#fff" stroke="#fff" stroke-width="1"/>
      <path id="Path_77" data-name="Path 77" d="M152.9,47.524a.988.988,0,0,0,.7-.281l9.272-9.272a.988.988,0,0,0-1.366-1.415.024.024,0,0,1-.024.024L152.2,45.853a.976.976,0,0,0,.7,1.671Z" transform="translate(-148.995 -32.885)" fill="#fff" stroke="#fff" stroke-width="1"/>
      <path id="Path_78" data-name="Path 78" d="M190.869,88.241a.988.988,0,0,0-1.391,0l-4.88,4.88a.988.988,0,0,0,1.366,1.415.024.024,0,0,1,.024-.024l4.88-4.88A.988.988,0,0,0,190.869,88.241Z" transform="translate(-178.495 -79.463)" fill="#fff" stroke="#fff" stroke-width="1"/>
      <path id="Path_79" data-name="Path 79" d="M265.87,380.327,256.6,389.6a.988.988,0,0,0,1.366,1.415l.024-.024,9.272-9.272a1,1,0,0,0-.024-1.391A.988.988,0,0,0,265.87,380.327Z" transform="translate(-244.289 -341.612)" fill="#fff" stroke="#fff" stroke-width="1"/>
      <path id="Path_80" data-name="Path 80" d="M256.241,378.109a.988.988,0,0,0,1.391,0l4.392-4.392a1,1,0,0,0-.024-1.391.988.988,0,0,0-1.366,0l-4.392,4.392A.988.988,0,0,0,256.241,378.109Z" transform="translate(-242.594 -333.337)" fill="#fff" stroke="#fff" stroke-width="1"/>
      <path id="Path_81" data-name="Path 81" d="M240.241,66.693a.988.988,0,0,0,1.391,0l.976-.976a1,1,0,0,0-.024-1.391.988.988,0,0,0-1.366,0l-.976.976A.988.988,0,0,0,240.241,66.693Z" transform="translate(-228.027 -57.214)" fill="#fff" stroke="#fff" stroke-width="1"/>
      <path id="Path_82" data-name="Path 82" d="M233.978,424.241a.988.988,0,0,0-1.391,0l-.976.976a.988.988,0,1,0,1.366,1.415l.024-.024.976-.976A.988.988,0,0,0,233.978,424.241Z" transform="translate(-220.245 -380.159)" fill="#fff" stroke="#fff" stroke-width="1"/>
    </g>
  </g>
</svg>
