<svg xmlns="http://www.w3.org/2000/svg" width="76.951" height="76.95" viewBox="0 0 76.951 76.95">
  <g id="etc" transform="translate(0)">
    <g id="LOgo" transform="translate(0 0)">
      <g id="Path_5" data-name="Path 5" fill="none">
        <path d="M38.475,0A38.475,38.475,0,1,1,0,38.475,38.475,38.475,0,0,1,38.475,0Z" stroke="none"/>
        <path d="M 38.47526931762695 2 C 33.55025863647461 2 28.77362060546875 2.964118957519531 24.27805709838867 4.865585327148438 C 19.93484497070312 6.702613830566406 16.03383255004883 9.332893371582031 12.68336486816406 12.68336486816406 C 9.332893371582031 16.03383255004883 6.702613830566406 19.93484497070312 4.865585327148438 24.27805709838867 C 2.964118957519531 28.77362060546875 2 33.55025863647461 2 38.47526931762695 C 2 43.4002799987793 2.964118957519531 48.17691802978516 4.865585327148438 52.67248153686523 C 6.702613830566406 57.01569366455078 9.332893371582031 60.91670227050781 12.68336486816406 64.26717376708984 C 16.03383255004883 67.61764526367188 19.93484497070312 70.2479248046875 24.27805709838867 72.08495330810547 C 28.77362060546875 73.98641967773438 33.55025863647461 74.95053863525391 38.47526931762695 74.95053863525391 C 43.4002799987793 74.95053863525391 48.17691802978516 73.98641967773438 52.67248153686523 72.08495330810547 C 57.01569366455078 70.2479248046875 60.91670227050781 67.61764526367188 64.26717376708984 64.26717376708984 C 67.61764526367188 60.91670227050781 70.2479248046875 57.01569366455078 72.08495330810547 52.67248153686523 C 73.98641967773438 48.17691802978516 74.95053863525391 43.4002799987793 74.95053863525391 38.47526931762695 C 74.95053863525391 33.55025863647461 73.98641967773438 28.77362060546875 72.08495330810547 24.27805709838867 C 70.2479248046875 19.93484497070312 67.61764526367188 16.03383255004883 64.26717376708984 12.68336486816406 C 60.91670227050781 9.332893371582031 57.01569366455078 6.702613830566406 52.67248153686523 4.865585327148438 C 48.17691802978516 2.964118957519531 43.4002799987793 2 38.47526931762695 2 M 38.47526931762695 0 C 59.72457504272461 0 76.95053863525391 17.2259635925293 76.95053863525391 38.47526931762695 C 76.95053863525391 59.72457504272461 59.72457504272461 76.95053863525391 38.47526931762695 76.95053863525391 C 17.2259635925293 76.95053863525391 0 59.72457504272461 0 38.47526931762695 C 0 17.2259635925293 17.2259635925293 0 38.47526931762695 0 Z" stroke="none" fill="#fff"/>
      </g>
    </g>
    <text id="_" data-name="…" transform="translate(24.854 38.439)" fill="#fff" font-size="26" font-family="HelveticaNeue, Helvetica Neue"><tspan x="0" y="0">…</tspan></text>
    <g id="LOgo-2" data-name="LOgo" transform="translate(21.791 21.791)">
      <g id="Path_5-2" data-name="Path 5" transform="translate(0 0)" fill="none">
        <path d="M16.684,0A16.684,16.684,0,1,1,0,16.684,16.684,16.684,0,0,1,16.684,0Z" stroke="none"/>
        <path d="M 16.68396759033203 1.999998092651367 C 12.76173782348633 1.999998092651367 9.074268341064453 3.527397155761719 6.300838470458984 6.300838470458984 C 3.527397155761719 9.074268341064453 1.999998092651367 12.76173782348633 1.999998092651367 16.68396759033203 C 1.999998092651367 20.60619735717773 3.527397155761719 24.29366683959961 6.300838470458984 27.06709671020508 C 9.074268341064453 29.84053802490234 12.76173782348633 31.3679370880127 16.68396759033203 31.3679370880127 C 20.60619735717773 31.3679370880127 24.29366683959961 29.84053802490234 27.06709671020508 27.06709671020508 C 29.84053802490234 24.29366683959961 31.3679370880127 20.60619735717773 31.3679370880127 16.68396759033203 C 31.3679370880127 12.76173782348633 29.84053802490234 9.074268341064453 27.06709671020508 6.300838470458984 C 24.29366683959961 3.527397155761719 20.60619735717773 1.999998092651367 16.68396759033203 1.999998092651367 M 16.68396759033203 -3.814697265625e-06 C 25.89826774597168 -3.814697265625e-06 33.36793899536133 7.469667434692383 33.36793899536133 16.68396759033203 C 33.36793899536133 25.89826774597168 25.89826774597168 33.36793899536133 16.68396759033203 33.36793899536133 C 7.469667434692383 33.36793899536133 -3.814697265625e-06 25.89826774597168 -3.814697265625e-06 16.68396759033203 C -3.814697265625e-06 7.469667434692383 7.469667434692383 -3.814697265625e-06 16.68396759033203 -3.814697265625e-06 Z" stroke="none" fill="#fff"/>
      </g>
    </g>
  </g>
</svg>
