<svg xmlns="http://www.w3.org/2000/svg" width="713.951" height="527.95" viewBox="0 0 713.951 527.95">
  <g id="how_it_works_img" transform="translate(-647 -3451)">
    <path id="Path_188" data-name="Path 188" d="M0,0,230.265,159.8" transform="translate(685.225 3529.653)" fill="none" stroke="#fff" stroke-width="3" stroke-dasharray="4 10"/>
    <line id="Line_23" data-name="Line 23" y1="173.648" x2="251.275" transform="translate(685.225 3728.5)" fill="none" stroke="#fff" stroke-width="3" stroke-dasharray="4 10"/>
    <line id="Line_9" data-name="Line 9" x2="58.905" y2="150.209" transform="translate(908.595 3528.291)" fill="none" stroke="#fff" stroke-width="3" stroke-dasharray="4 10"/>
    <line id="Line_24" data-name="Line 24" y1="168.202" x2="55.84" transform="translate(908.595 3733.947)" fill="none" stroke="#fff" stroke-width="3" stroke-dasharray="4 10"/>
    <line id="Line_10" data-name="Line 10" x1="79.674" y2="149.134" transform="translate(1023.823 3529.653)" fill="none" stroke="#fff" stroke-width="3" stroke-dasharray="4 10"/>
    <path id="Path_189" data-name="Path 189" d="M68.1,173.649-30.04-38.215" transform="translate(1022.747 3728.499)" fill="none" stroke="#fff" stroke-width="3" stroke-dasharray="4 10"/>
    <path id="Path_130" data-name="Path 130" d="M428.729-240.227,175.75-82.415" transform="translate(892.25 3769.725)" fill="none" stroke="#fff" stroke-width="3" stroke-dasharray="4 10"/>
    <path id="Path_131" data-name="Path 131" d="M436.994-57.247l-261.109-179.6" transform="translate(869.305 3958.237)" fill="none" stroke="#fff" stroke-width="3" stroke-dasharray="4 10"/>
    <g id="watch" transform="translate(647 3451)">
      <g id="Path_5" data-name="Path 5" transform="translate(0 0)" fill="none">
        <path d="M38.475,0A38.475,38.475,0,1,1,0,38.475,38.475,38.475,0,0,1,38.475,0Z" stroke="none"/>
        <path d="M 38.47526931762695 2 C 33.55025863647461 2 28.77362060546875 2.964118957519531 24.27805709838867 4.865585327148438 C 19.93484497070312 6.702613830566406 16.03383255004883 9.332893371582031 12.68336486816406 12.68336486816406 C 9.332893371582031 16.03383255004883 6.702613830566406 19.93484497070312 4.865585327148438 24.27805709838867 C 2.964118957519531 28.77362060546875 2 33.55025863647461 2 38.47526931762695 C 2 43.4002799987793 2.964118957519531 48.17691802978516 4.865585327148438 52.67248153686523 C 6.702613830566406 57.01569366455078 9.332893371582031 60.91670227050781 12.68336486816406 64.26717376708984 C 16.03383255004883 67.61764526367188 19.93484497070312 70.2479248046875 24.27805709838867 72.08495330810547 C 28.77362060546875 73.98641967773438 33.55025863647461 74.95053863525391 38.47526931762695 74.95053863525391 C 43.4002799987793 74.95053863525391 48.17691802978516 73.98641967773438 52.67248153686523 72.08495330810547 C 57.01569366455078 70.2479248046875 60.91670227050781 67.61764526367188 64.26717376708984 64.26717376708984 C 67.61764526367188 60.91670227050781 70.2479248046875 57.01569366455078 72.08495330810547 52.67248153686523 C 73.98641967773438 48.17691802978516 74.95053863525391 43.4002799987793 74.95053863525391 38.47526931762695 C 74.95053863525391 33.55025863647461 73.98641967773438 28.77362060546875 72.08495330810547 24.27805709838867 C 70.2479248046875 19.93484497070312 67.61764526367188 16.03383255004883 64.26717376708984 12.68336486816406 C 60.91670227050781 9.332893371582031 57.01569366455078 6.702613830566406 52.67248153686523 4.865585327148438 C 48.17691802978516 2.964118957519531 43.4002799987793 2 38.47526931762695 2 M 38.47526931762695 0 C 59.72457504272461 0 76.95053863525391 17.2259635925293 76.95053863525391 38.47526931762695 C 76.95053863525391 59.72457504272461 59.72457504272461 76.95053863525391 38.47526931762695 76.95053863525391 C 17.2259635925293 76.95053863525391 0 59.72457504272461 0 38.47526931762695 C 0 17.2259635925293 17.2259635925293 0 38.47526931762695 0 Z" stroke="none" fill="#fff"/>
      </g>
      <g id="iwatch" transform="translate(22.472 12.939)">
        <path id="Path_115" data-name="Path 115" d="M32.134,22.494H30.527v-7.47a6.977,6.977,0,0,0-5.048-6.681l-1.41-7.051A1.607,1.607,0,0,0,22.494,0H9.64A1.607,1.607,0,0,0,8.065,1.291L6.711,8.062A6.983,6.983,0,0,0,0,15.023V36.39a6.983,6.983,0,0,0,6.711,6.962l1.354,6.77A1.607,1.607,0,0,0,9.64,51.414H22.494a1.607,1.607,0,0,0,1.575-1.291l1.41-7.051a6.977,6.977,0,0,0,5.048-6.682V30.527h1.607ZM10.957,3.213H21.176l.964,4.82H9.994ZM21.176,48.2H10.957l-.965-4.82H22.14Zm6.137-11.81a3.782,3.782,0,0,1-3.777,3.777H6.99A3.782,3.782,0,0,1,3.213,36.39V15.023A3.781,3.781,0,0,1,6.99,11.247H23.537a3.782,3.782,0,0,1,3.777,3.777Zm0,0" transform="translate(0 0)" fill="#fff"/>
        <g id="Group_27" data-name="Group 27" transform="translate(5.518 13.804)">
          <g id="Group_20" data-name="Group 20">
            <path id="Path_118" data-name="Path 118" d="M131.086,68.494a.772.772,0,0,0-1.092,0l-3.475,3.475a.772.772,0,1,0,1.092,1.092l3.475-3.475A.772.772,0,0,0,131.086,68.494Z" transform="translate(-126.294 -68.268)" fill="#fff"/>
          </g>
        </g>
        <g id="Group_26" data-name="Group 26" transform="translate(5.132 13.804)">
          <g id="Group_22" data-name="Group 22">
            <path id="Path_119" data-name="Path 119" d="M131.148,68.494a.772.772,0,0,0-1.092,0l-6.95,6.95a.772.772,0,1,0,1.092,1.092l6.95-6.95A.772.772,0,0,0,131.148,68.494Z" transform="translate(-122.881 -68.268)" fill="#fff"/>
          </g>
        </g>
      </g>
    </g>
    <g id="tablet" transform="translate(1071 3451)">
      <g id="Path_5-2" data-name="Path 5" transform="translate(0 0)" fill="none">
        <path d="M38.475,0A38.475,38.475,0,1,1,0,38.475,38.475,38.475,0,0,1,38.475,0Z" stroke="none"/>
        <path d="M 38.47526931762695 2 C 33.55025863647461 2 28.77362060546875 2.964118957519531 24.27805709838867 4.865585327148438 C 19.93484497070312 6.702613830566406 16.03383255004883 9.332893371582031 12.68336486816406 12.68336486816406 C 9.332893371582031 16.03383255004883 6.702613830566406 19.93484497070312 4.865585327148438 24.27805709838867 C 2.964118957519531 28.77362060546875 2 33.55025863647461 2 38.47526931762695 C 2 43.4002799987793 2.964118957519531 48.17691802978516 4.865585327148438 52.67248153686523 C 6.702613830566406 57.01569366455078 9.332893371582031 60.91670227050781 12.68336486816406 64.26717376708984 C 16.03383255004883 67.61764526367188 19.93484497070312 70.2479248046875 24.27805709838867 72.08495330810547 C 28.77362060546875 73.98641967773438 33.55025863647461 74.95053863525391 38.47526931762695 74.95053863525391 C 43.4002799987793 74.95053863525391 48.17691802978516 73.98641967773438 52.67248153686523 72.08495330810547 C 57.01569366455078 70.2479248046875 60.91670227050781 67.61764526367188 64.26717376708984 64.26717376708984 C 67.61764526367188 60.91670227050781 70.2479248046875 57.01569366455078 72.08495330810547 52.67248153686523 C 73.98641967773438 48.17691802978516 74.95053863525391 43.4002799987793 74.95053863525391 38.47526931762695 C 74.95053863525391 33.55025863647461 73.98641967773438 28.77362060546875 72.08495330810547 24.27805709838867 C 70.2479248046875 19.93484497070312 67.61764526367188 16.03383255004883 64.26717376708984 12.68336486816406 C 60.91670227050781 9.332893371582031 57.01569366455078 6.702613830566406 52.67248153686523 4.865585327148438 C 48.17691802978516 2.964118957519531 43.4002799987793 2 38.47526931762695 2 M 38.47526931762695 0 C 59.72457504272461 0 76.95053863525391 17.2259635925293 76.95053863525391 38.47526931762695 C 76.95053863525391 59.72457504272461 59.72457504272461 76.95053863525391 38.47526931762695 76.95053863525391 C 17.2259635925293 76.95053863525391 0 59.72457504272461 0 38.47526931762695 C 0 17.2259635925293 17.2259635925293 0 38.47526931762695 0 Z" stroke="none" fill="#fff"/>
      </g>
      <g id="ipad" transform="translate(20.429 12.939)">
        <g id="Group_29" data-name="Group 29" transform="translate(0)">
          <g id="Group_28" data-name="Group 28">
            <path id="Path_121" data-name="Path 121" d="M93.158,0H65.714A4.279,4.279,0,0,0,61.44,4.274V46.442a4.279,4.279,0,0,0,4.274,4.274H93.158a4.279,4.279,0,0,0,4.274-4.274V4.274A4.279,4.279,0,0,0,93.158,0ZM95.8,46.442a2.641,2.641,0,0,1-2.638,2.638H65.714a2.641,2.641,0,0,1-2.638-2.638V4.274a2.641,2.641,0,0,1,2.638-2.638H93.158A2.64,2.64,0,0,1,95.8,4.274V46.442Z" transform="translate(-61.44)" fill="#fff"/>
          </g>
        </g>
        <g id="Group_31" data-name="Group 31" transform="translate(0 5.726)">
          <g id="Group_30" data-name="Group 30">
            <path id="Path_122" data-name="Path 122" d="M96.614,47.787H62.258a.818.818,0,0,0-.818.818V83.779a.818.818,0,0,0,.818.818H96.614a.818.818,0,0,0,.818-.818V48.6A.818.818,0,0,0,96.614,47.787ZM95.8,82.961H63.076V49.423H95.8Z" transform="translate(-61.44 -47.787)" fill="#fff"/>
          </g>
        </g>
        <g id="Group_33" data-name="Group 33" transform="translate(3.681 8.998)">
          <g id="Group_32" data-name="Group 32" transform="translate(0)">
            <path id="Path_123" data-name="Path 123" d="M97.238,75.334a.818.818,0,0,0-1.157,0L92.4,79.015a.818.818,0,1,0,1.157,1.157l3.681-3.681A.818.818,0,0,0,97.238,75.334Z" transform="translate(-92.161 -75.094)" fill="#fff"/>
          </g>
        </g>
        <g id="Group_35" data-name="Group 35" transform="translate(3.272 8.998)">
          <g id="Group_34" data-name="Group 34" transform="translate(0)">
            <path id="Path_124" data-name="Path 124" d="M97.506,75.334a.818.818,0,0,0-1.157,0L88.987,82.7a.818.818,0,1,0,1.157,1.157l7.362-7.362A.818.818,0,0,0,97.506,75.334Z" transform="translate(-88.747 -75.094)" fill="#fff"/>
          </g>
        </g>
        <g id="Group_37" data-name="Group 37" transform="translate(15.542 43.354)">
          <g id="Group_36" data-name="Group 36">
            <path id="Path_125" data-name="Path 125" d="M193.6,361.813a2.454,2.454,0,1,0,2.454,2.454A2.457,2.457,0,0,0,193.6,361.813Zm0,3.272a.818.818,0,1,1,.818-.818A.819.819,0,0,1,193.6,365.085Z" transform="translate(-191.147 -361.813)" fill="#fff"/>
          </g>
        </g>
      </g>
    </g>
    <g id="laptop" transform="translate(1284 3451)">
      <g id="Path_5-3" data-name="Path 5" transform="translate(0 0)" fill="none">
        <path d="M38.475,0A38.475,38.475,0,1,1,0,38.475,38.475,38.475,0,0,1,38.475,0Z" stroke="none"/>
        <path d="M 38.47526931762695 2 C 33.55025863647461 2 28.77362060546875 2.964118957519531 24.27805709838867 4.865585327148438 C 19.93484497070312 6.702613830566406 16.03383255004883 9.332893371582031 12.68336486816406 12.68336486816406 C 9.332893371582031 16.03383255004883 6.702613830566406 19.93484497070312 4.865585327148438 24.27805709838867 C 2.964118957519531 28.77362060546875 2 33.55025863647461 2 38.47526931762695 C 2 43.4002799987793 2.964118957519531 48.17691802978516 4.865585327148438 52.67248153686523 C 6.702613830566406 57.01569366455078 9.332893371582031 60.91670227050781 12.68336486816406 64.26717376708984 C 16.03383255004883 67.61764526367188 19.93484497070312 70.2479248046875 24.27805709838867 72.08495330810547 C 28.77362060546875 73.98641967773438 33.55025863647461 74.95053863525391 38.47526931762695 74.95053863525391 C 43.4002799987793 74.95053863525391 48.17691802978516 73.98641967773438 52.67248153686523 72.08495330810547 C 57.01569366455078 70.2479248046875 60.91670227050781 67.61764526367188 64.26717376708984 64.26717376708984 C 67.61764526367188 60.91670227050781 70.2479248046875 57.01569366455078 72.08495330810547 52.67248153686523 C 73.98641967773438 48.17691802978516 74.95053863525391 43.4002799987793 74.95053863525391 38.47526931762695 C 74.95053863525391 33.55025863647461 73.98641967773438 28.77362060546875 72.08495330810547 24.27805709838867 C 70.2479248046875 19.93484497070312 67.61764526367188 16.03383255004883 64.26717376708984 12.68336486816406 C 60.91670227050781 9.332893371582031 57.01569366455078 6.702613830566406 52.67248153686523 4.865585327148438 C 48.17691802978516 2.964118957519531 43.4002799987793 2 38.47526931762695 2 M 38.47526931762695 0 C 59.72457504272461 0 76.95053863525391 17.2259635925293 76.95053863525391 38.47526931762695 C 76.95053863525391 59.72457504272461 59.72457504272461 76.95053863525391 38.47526931762695 76.95053863525391 C 17.2259635925293 76.95053863525391 0 59.72457504272461 0 38.47526931762695 C 0 17.2259635925293 17.2259635925293 0 38.47526931762695 0 Z" stroke="none" fill="#fff"/>
      </g>
      <g id="laptop-2" data-name="laptop" transform="translate(10.215 19.748)">
        <g id="Group_39" data-name="Group 39" transform="translate(0 30.147)">
          <g id="Group_38" data-name="Group 38">
            <path id="Path_126" data-name="Path 126" d="M54.974,303.787H.887a.887.887,0,0,0-.887.887,6.214,6.214,0,0,0,6.207,6.207H49.654a6.214,6.214,0,0,0,6.207-6.207A.887.887,0,0,0,54.974,303.787Zm-5.32,5.32H6.207a4.441,4.441,0,0,1-4.344-3.547H54A4.441,4.441,0,0,1,49.654,309.107Z" transform="translate(0 -303.787)" fill="#fff"/>
          </g>
        </g>
        <g id="Group_41" data-name="Group 41" transform="translate(4.433 0)">
          <g id="Group_40" data-name="Group 40">
            <path id="Path_127" data-name="Path 127" d="M80.24,71.68H35.02a.887.887,0,0,0-.887.887v30.147a.887.887,0,0,0,.887.887H80.24a.887.887,0,0,0,.887-.887V72.567A.887.887,0,0,0,80.24,71.68Zm-.887,30.147H35.906V73.453H79.354v28.374Z" transform="translate(-34.133 -71.68)" fill="#fff"/>
          </g>
        </g>
        <g id="Group_43" data-name="Group 43" transform="translate(8.423 3.547)">
          <g id="Group_42" data-name="Group 42" transform="translate(0 0)">
            <path id="Path_128" data-name="Path 128" d="M68.584,99.247a.886.886,0,0,0-1.254,0l-2.217,2.217a.887.887,0,1,0,1.254,1.254l2.217-2.217A.886.886,0,0,0,68.584,99.247Z" transform="translate(-64.854 -98.988)" fill="#fff"/>
          </g>
        </g>
        <g id="Group_45" data-name="Group 45" transform="translate(9.31 3.547)">
          <g id="Group_44" data-name="Group 44" transform="translate(0 0)">
            <path id="Path_129" data-name="Path 129" d="M78.071,99.247a.886.886,0,0,0-1.254,0l-4.877,4.877a.887.887,0,1,0,1.254,1.254l4.877-4.877A.886.886,0,0,0,78.071,99.247Z" transform="translate(-71.68 -98.988)" fill="#fff"/>
          </g>
        </g>
      </g>
    </g>
    <g id="Iphone" transform="translate(859 3451)">
      <g id="LOgo" transform="translate(0 0)">
        <g id="Path_5-4" data-name="Path 5" fill="none">
          <path d="M38.475,0A38.475,38.475,0,1,1,0,38.475,38.475,38.475,0,0,1,38.475,0Z" stroke="none"/>
          <path d="M 38.47526931762695 2 C 33.55025863647461 2 28.77362060546875 2.964118957519531 24.27805709838867 4.865585327148438 C 19.93484497070312 6.702613830566406 16.03383255004883 9.332893371582031 12.68336486816406 12.68336486816406 C 9.332893371582031 16.03383255004883 6.702613830566406 19.93484497070312 4.865585327148438 24.27805709838867 C 2.964118957519531 28.77362060546875 2 33.55025863647461 2 38.47526931762695 C 2 43.4002799987793 2.964118957519531 48.17691802978516 4.865585327148438 52.67248153686523 C 6.702613830566406 57.01569366455078 9.332893371582031 60.91670227050781 12.68336486816406 64.26717376708984 C 16.03383255004883 67.61764526367188 19.93484497070312 70.2479248046875 24.27805709838867 72.08495330810547 C 28.77362060546875 73.98641967773438 33.55025863647461 74.95053863525391 38.47526931762695 74.95053863525391 C 43.4002799987793 74.95053863525391 48.17691802978516 73.98641967773438 52.67248153686523 72.08495330810547 C 57.01569366455078 70.2479248046875 60.91670227050781 67.61764526367188 64.26717376708984 64.26717376708984 C 67.61764526367188 60.91670227050781 70.2479248046875 57.01569366455078 72.08495330810547 52.67248153686523 C 73.98641967773438 48.17691802978516 74.95053863525391 43.4002799987793 74.95053863525391 38.47526931762695 C 74.95053863525391 33.55025863647461 73.98641967773438 28.77362060546875 72.08495330810547 24.27805709838867 C 70.2479248046875 19.93484497070312 67.61764526367188 16.03383255004883 64.26717376708984 12.68336486816406 C 60.91670227050781 9.332893371582031 57.01569366455078 6.702613830566406 52.67248153686523 4.865585327148438 C 48.17691802978516 2.964118957519531 43.4002799987793 2 38.47526931762695 2 M 38.47526931762695 0 C 59.72457504272461 0 76.95053863525391 17.2259635925293 76.95053863525391 38.47526931762695 C 76.95053863525391 59.72457504272461 59.72457504272461 76.95053863525391 38.47526931762695 76.95053863525391 C 17.2259635925293 76.95053863525391 0 59.72457504272461 0 38.47526931762695 C 0 17.2259635925293 17.2259635925293 0 38.47526931762695 0 Z" stroke="none" fill="#fff"/>
        </g>
      </g>
      <g id="iphone-2" data-name="iphone" transform="translate(25.196 14.301)">
        <g id="Group_17" data-name="Group 17" transform="translate(0)">
          <g id="Group_16" data-name="Group 16" transform="translate(0)">
            <path id="Path_116" data-name="Path 116" d="M119.518,0H97.884a2.312,2.312,0,0,0-2.31,2.31V45.565a2.312,2.312,0,0,0,2.31,2.31h21.634a2.312,2.312,0,0,0,2.31-2.31V2.31A2.312,2.312,0,0,0,119.518,0Zm.765,45.565a.766.766,0,0,1-.765.765H97.884a.766.766,0,0,1-.765-.765V2.31a.766.766,0,0,1,.765-.765h21.634a.766.766,0,0,1,.765.765Z" transform="translate(-95.574 0)" fill="#fff"/>
          </g>
        </g>
        <g id="Group_19" data-name="Group 19" transform="translate(0 4.633)">
          <g id="Group_18" data-name="Group 18">
            <path id="Path_117" data-name="Path 117" d="M121.055,40.96H96.345a.772.772,0,0,0-.772.772V75.708a.772.772,0,0,0,.772.772h24.71a.772.772,0,0,0,.772-.772V41.732A.772.772,0,0,0,121.055,40.96Zm-.772,33.976H97.117V42.5h23.165Z" transform="translate(-95.573 -40.96)" fill="#fff"/>
          </g>
        </g>
        <g id="Group_21" data-name="Group 21" transform="translate(3.475 7.722)">
          <g id="Group_20-2" data-name="Group 20">
            <path id="Path_118-2" data-name="Path 118" d="M131.086,68.494a.772.772,0,0,0-1.092,0l-3.475,3.475a.772.772,0,1,0,1.092,1.092l3.475-3.475A.772.772,0,0,0,131.086,68.494Z" transform="translate(-126.294 -68.268)" fill="#fff"/>
          </g>
        </g>
        <g id="Group_23" data-name="Group 23" transform="translate(3.089 7.722)">
          <g id="Group_22-2" data-name="Group 22">
            <path id="Path_119-2" data-name="Path 119" d="M131.148,68.494a.772.772,0,0,0-1.092,0l-6.95,6.95a.772.772,0,1,0,1.092,1.092l6.95-6.95A.772.772,0,0,0,131.148,68.494Z" transform="translate(-122.881 -68.268)" fill="#fff"/>
          </g>
        </g>
        <g id="Group_25" data-name="Group 25" transform="translate(10.811 40.925)">
          <g id="Group_24" data-name="Group 24">
            <path id="Path_120" data-name="Path 120" d="M193.464,361.813a2.317,2.317,0,1,0,2.317,2.317A2.319,2.319,0,0,0,193.464,361.813Zm0,3.089a.772.772,0,1,1,.772-.772A.773.773,0,0,1,193.464,364.9Z" transform="translate(-191.147 -361.813)" fill="#fff"/>
          </g>
        </g>
      </g>
    </g>
    <g id="Group_47" data-name="Group 47" transform="translate(907.9 3678.465)">
      <g id="Rectangle_5" data-name="Rectangle 5" transform="translate(0 0)" fill="#fff" stroke="#707070" stroke-width="1">
        <rect width="163.806" height="55.12" rx="27.56" stroke="none"/>
        <rect x="0.5" y="0.5" width="162.806" height="54.12" rx="27.06" fill="none"/>
      </g>
      <g id="Group_67" data-name="Group 67" transform="translate(-4)">
        <line id="Line_22" data-name="Line 22" x2="27" transform="translate(12.803 27.56)" fill="none" stroke="#292929" stroke-linecap="round" stroke-width="5"/>
        <line id="Line_22-2" data-name="Line 22" x2="27" transform="translate(52.251 27.56)" fill="none" stroke="#292929" stroke-linecap="round" stroke-width="5"/>
        <line id="Line_22-3" data-name="Line 22" x2="27" transform="translate(91.698 27.56)" fill="none" stroke="#292929" stroke-linecap="round" stroke-width="5"/>
      </g>
      <g id="Group_68" data-name="Group 68" transform="translate(131)">
        <line id="Line_22-4" data-name="Line 22" x2="27" transform="translate(-1.9 27.56)" fill="none" stroke="#292929" stroke-linecap="round" stroke-width="5"/>
      </g>
    </g>
    <g id="Group_49" data-name="Group 49" transform="translate(647 3902)">
      <g id="Group_11" data-name="Group 11" transform="translate(0)">
        <g id="Group_10" data-name="Group 10">
          <g id="Path_5-5" data-name="Path 5" fill="none">
            <path d="M38.475,0A38.475,38.475,0,1,1,0,38.475,38.475,38.475,0,0,1,38.475,0Z" stroke="none"/>
            <path d="M 38.47526931762695 2 C 33.55025863647461 2 28.77362060546875 2.964118957519531 24.27805709838867 4.865585327148438 C 19.93484497070312 6.702613830566406 16.03383255004883 9.332893371582031 12.68336486816406 12.68336486816406 C 9.332893371582031 16.03383255004883 6.702613830566406 19.93484497070312 4.865585327148438 24.27805709838867 C 2.964118957519531 28.77362060546875 2 33.55025863647461 2 38.47526931762695 C 2 43.4002799987793 2.964118957519531 48.17691802978516 4.865585327148438 52.67248153686523 C 6.702613830566406 57.01569366455078 9.332893371582031 60.91670227050781 12.68336486816406 64.26717376708984 C 16.03383255004883 67.61764526367188 19.93484497070312 70.2479248046875 24.27805709838867 72.08495330810547 C 28.77362060546875 73.98641967773438 33.55025863647461 74.95053863525391 38.47526931762695 74.95053863525391 C 43.4002799987793 74.95053863525391 48.17691802978516 73.98641967773438 52.67248153686523 72.08495330810547 C 57.01569366455078 70.2479248046875 60.91670227050781 67.61764526367188 64.26717376708984 64.26717376708984 C 67.61764526367188 60.91670227050781 70.2479248046875 57.01569366455078 72.08495330810547 52.67248153686523 C 73.98641967773438 48.17691802978516 74.95053863525391 43.4002799987793 74.95053863525391 38.47526931762695 C 74.95053863525391 33.55025863647461 73.98641967773438 28.77362060546875 72.08495330810547 24.27805709838867 C 70.2479248046875 19.93484497070312 67.61764526367188 16.03383255004883 64.26717376708984 12.68336486816406 C 60.91670227050781 9.332893371582031 57.01569366455078 6.702613830566406 52.67248153686523 4.865585327148438 C 48.17691802978516 2.964118957519531 43.4002799987793 2 38.47526931762695 2 M 38.47526931762695 0 C 59.72457504272461 0 76.95053863525391 17.2259635925293 76.95053863525391 38.47526931762695 C 76.95053863525391 59.72457504272461 59.72457504272461 76.95053863525391 38.47526931762695 76.95053863525391 C 17.2259635925293 76.95053863525391 0 59.72457504272461 0 38.47526931762695 C 0 17.2259635925293 17.2259635925293 0 38.47526931762695 0 Z" stroke="none" fill="#fff"/>
          </g>
        </g>
        <g id="Layer_2" data-name="Layer 2" transform="translate(19.748 17.705)">
          <g id="thermostat_2_Image" data-name="thermostat 2 Image" transform="translate(0 0)">
            <g id="room_option" data-name="room option">
              <g id="light">
                <path id="Path_99" data-name="Path 99" d="M79.619,23.592A9.636,9.636,0,0,0,82,17.272a10.154,10.154,0,0,0-3.419-7.564A12.122,12.122,0,0,0,70.294,6.6a12.33,12.33,0,0,0-7.978,3.108A10.568,10.568,0,0,0,59,17.168,10.361,10.361,0,0,0,61.383,23.7a16.578,16.578,0,0,1,3.834,10.568v4.041a3.523,3.523,0,0,0,3.626,3.316h3.316a3.419,3.419,0,0,0,3.523-3.316V34.264a16.785,16.785,0,0,1,3.937-10.672Zm-17.1-.725a9.014,9.014,0,0,1-2.072-5.7c.1-4.973,4.455-9.118,9.843-9.221a10.879,10.879,0,0,1,7.253,2.694,9.118,9.118,0,0,1,2.9,6.631,8.807,8.807,0,0,1-1.969,5.6,18.028,18.028,0,0,0-4.248,11.086h-7.46a18.028,18.028,0,0,0-4.248-11.086Zm4.248,15.024v-.622l7.46.829v.518Zm0-1.969V35.3h7.46v1.451Zm2.072,4.352a2.176,2.176,0,0,1-1.865-1.036l6.32.725a2.072,2.072,0,0,1-1.14.311Z" transform="translate(-52.058 -0.28)" fill="#fff"/>
                <path id="Path_100" data-name="Path 100" d="M63.154,17.965a4.248,4.248,0,0,1-.1-1.14.725.725,0,0,0-1.451,0,5.076,5.076,0,0,0,.1,1.243c0,.414.311.622.725.622h.1A.933.933,0,0,0,63.154,17.965Z" transform="translate(-51.964 0.063)" fill="#fff"/>
                <path id="Path_101" data-name="Path 101" d="M77.568,19.1a.725.725,0,0,0-.933.414,5.284,5.284,0,0,1-.932,1.347.725.725,0,0,0,.207.933l.414.207a.933.933,0,0,0,.622-.311,8.911,8.911,0,0,0,1.036-1.658c.207-.414,0-.725-.414-.933Z" transform="translate(-51.458 0.17)" fill="#fff"/>
                <path id="Path_102" data-name="Path 102" d="M70.125,5.681a.725.725,0,0,0,.725-.725V1.225a.725.725,0,1,0-1.451,0v3.73a.725.725,0,0,0,.725.725Z" transform="translate(-51.682 -0.5)" fill="#fff"/>
                <path id="Path_103" data-name="Path 103" d="M62.976,6.948a.725.725,0,0,0,.622.311h.414a.725.725,0,0,0,.207-.933L62.147,3.01a.725.725,0,0,0-.933-.207.622.622,0,0,0-.311.933Z" transform="translate(-51.993 -0.42)" fill="#fff"/>
                <path id="Path_104" data-name="Path 104" d="M85.361,24.368,81.838,22.5a.829.829,0,0,0-1.036.207.725.725,0,0,0,.311.932l3.523,1.969h.414a.725.725,0,0,0,.622-.311.622.622,0,0,0-.311-.933Z" transform="translate(-51.273 0.291)" fill="#fff"/>
                <path id="Path_105" data-name="Path 105" d="M54.912,9.643l3.523,1.969h.414a.829.829,0,0,0,.622-.414.725.725,0,0,0-.207-.932L55.637,8.5a.829.829,0,0,0-1.036.207C54.5,9.125,54.6,9.54,54.912,9.643Z" transform="translate(-52.218 -0.215)" fill="#fff"/>
                <path id="Path_106" data-name="Path 106" d="M87.37,16.3H83.225a.675.675,0,1,0,0,1.347H87.37a.675.675,0,1,0,0-1.347Z" transform="translate(-51.209 0.071)" fill="#fff"/>
                <path id="Path_107" data-name="Path 107" d="M57.9,17.025a.829.829,0,0,0-.829-.725H53.025a.675.675,0,1,0,0,1.347h4.041C57.481,17.647,57.9,17.336,57.9,17.025Z" transform="translate(-52.3 0.071)" fill="#fff"/>
                <path id="Path_108" data-name="Path 108" d="M81.528,11.712h.311l3.523-1.969c.414-.1.518-.518.311-.932A.829.829,0,0,0,84.636,8.6l-3.523,1.865a.725.725,0,0,0-.311.933,1.036,1.036,0,0,0,.725.414Z" transform="translate(-51.273 -0.211)" fill="#fff"/>
                <path id="Path_109" data-name="Path 109" d="M58.435,22.5l-3.523,1.865a.829.829,0,0,0-.311.933.932.932,0,0,0,.725.311h.311l3.626-1.969a.725.725,0,0,0,.207-.932A.829.829,0,0,0,58.435,22.5Z" transform="translate(-52.218 0.291)" fill="#fff"/>
                <path id="Path_110" data-name="Path 110" d="M76.315,7.162h.311a.932.932,0,0,0,.725-.311l1.969-3.316a.725.725,0,0,0-.207-.933.829.829,0,0,0-1.036.207L76,6.23a.622.622,0,0,0,.311.933Z" transform="translate(-51.448 -0.428)" fill="#fff"/>
              </g>
            </g>
          </g>
        </g>
      </g>
    </g>
    <g id="Group_51" data-name="Group 51" transform="translate(857 3902)">
      <g id="Group_14" data-name="Group 14" transform="translate(0)">
        <g id="Group_8" data-name="Group 8">
          <g id="Path_5-6" data-name="Path 5" fill="none">
            <path d="M38.475,0A38.475,38.475,0,1,1,0,38.475,38.475,38.475,0,0,1,38.475,0Z" stroke="none"/>
            <path d="M 38.47526931762695 2 C 33.55025863647461 2 28.77362060546875 2.964118957519531 24.27805709838867 4.865585327148438 C 19.93484497070312 6.702613830566406 16.03383255004883 9.332893371582031 12.68336486816406 12.68336486816406 C 9.332893371582031 16.03383255004883 6.702613830566406 19.93484497070312 4.865585327148438 24.27805709838867 C 2.964118957519531 28.77362060546875 2 33.55025863647461 2 38.47526931762695 C 2 43.4002799987793 2.964118957519531 48.17691802978516 4.865585327148438 52.67248153686523 C 6.702613830566406 57.01569366455078 9.332893371582031 60.91670227050781 12.68336486816406 64.26717376708984 C 16.03383255004883 67.61764526367188 19.93484497070312 70.2479248046875 24.27805709838867 72.08495330810547 C 28.77362060546875 73.98641967773438 33.55025863647461 74.95053863525391 38.47526931762695 74.95053863525391 C 43.4002799987793 74.95053863525391 48.17691802978516 73.98641967773438 52.67248153686523 72.08495330810547 C 57.01569366455078 70.2479248046875 60.91670227050781 67.61764526367188 64.26717376708984 64.26717376708984 C 67.61764526367188 60.91670227050781 70.2479248046875 57.01569366455078 72.08495330810547 52.67248153686523 C 73.98641967773438 48.17691802978516 74.95053863525391 43.4002799987793 74.95053863525391 38.47526931762695 C 74.95053863525391 33.55025863647461 73.98641967773438 28.77362060546875 72.08495330810547 24.27805709838867 C 70.2479248046875 19.93484497070312 67.61764526367188 16.03383255004883 64.26717376708984 12.68336486816406 C 60.91670227050781 9.332893371582031 57.01569366455078 6.702613830566406 52.67248153686523 4.865585327148438 C 48.17691802978516 2.964118957519531 43.4002799987793 2 38.47526931762695 2 M 38.47526931762695 0 C 59.72457504272461 0 76.95053863525391 17.2259635925293 76.95053863525391 38.47526931762695 C 76.95053863525391 59.72457504272461 59.72457504272461 76.95053863525391 38.47526931762695 76.95053863525391 C 17.2259635925293 76.95053863525391 0 59.72457504272461 0 38.47526931762695 C 0 17.2259635925293 17.2259635925293 0 38.47526931762695 0 Z" stroke="none" fill="#fff"/>
          </g>
        </g>
        <g id="Layer_2-2" data-name="Layer 2" transform="translate(21.791 17.705)">
          <g id="secure" transform="translate(0 0)">
            <g id="temperate">
              <path id="Path_83" data-name="Path 83" d="M38.362,14H34.906a.6.6,0,0,0,0,1.191h3.456a.6.6,0,0,0,0-1.191Z" transform="translate(-5.827 -0.605)" fill="#fff" stroke="#fff" stroke-miterlimit="10" stroke-width="1"/>
              <path id="Path_84" data-name="Path 84" d="M34.906,10.291h1.6a.6.6,0,0,0,0-1.191h-1.6a.6.6,0,0,0,0,1.191Z" transform="translate(-5.827 -0.567)" fill="#fff" stroke="#fff" stroke-miterlimit="10" stroke-width="1"/>
              <path id="Path_85" data-name="Path 85" d="M34.906,5.391h2.107a.629.629,0,0,0,.59-.6.629.629,0,0,0-.59-.6H34.906a.556.556,0,0,0-.506.6A.556.556,0,0,0,34.906,5.391Z" transform="translate(-5.827 -0.529)" fill="#fff" stroke="#fff" stroke-miterlimit="10" stroke-width="1"/>
              <path id="Path_86" data-name="Path 86" d="M37.013,23.8H34.906a.6.6,0,0,0,0,1.191h2.107a.6.6,0,0,0,0-1.191Z" transform="translate(-5.827 -0.681)" fill="#fff" stroke="#fff" stroke-miterlimit="10" stroke-width="1"/>
              <path id="Path_87" data-name="Path 87" d="M34.906,20.091h1.6a.6.6,0,0,0,0-1.191h-1.6a.6.6,0,0,0,0,1.191Z" transform="translate(-5.827 -0.643)" fill="#fff" stroke="#fff" stroke-miterlimit="10" stroke-width="1"/>
              <path id="Path_88" data-name="Path 88" d="M29.378,25.305V5.957a5.313,5.313,0,1,0-10.622,0V25.305A9.039,9.039,0,0,0,15.3,32.449a8.941,8.941,0,0,0,8.767,9.029,9.012,9.012,0,0,0,8.851-9.029,9.109,9.109,0,0,0-3.54-7.144ZM24.067,40.288a7.677,7.677,0,0,1-7.587-7.838,7.839,7.839,0,0,1,3.2-6.35.512.512,0,0,0,.253-.5V5.957a4.133,4.133,0,1,1,8.261,0V25.6a.512.512,0,0,0,.253.5,8.014,8.014,0,0,1,3.288,6.35A7.747,7.747,0,0,1,24.067,40.288Z" transform="translate(-2.827 -0.5)" fill="#fff" stroke="#fff" stroke-miterlimit="10" stroke-width="1"/>
              <path id="Path_89" data-name="Path 89" d="M13.061,13.321a.853.853,0,0,0,.506-1.588,1.51,1.51,0,0,1,0-2.481.8.8,0,0,0-.506-1.488,1.181,1.181,0,0,1-1.2-.568,1.709,1.709,0,0,1-.146-1.515.83.83,0,0,0-1.349-.893A1.27,1.27,0,0,1,9.047,5.1a1.575,1.575,0,0,1-.959-1.108.868.868,0,0,0-.8-.682.868.868,0,0,0-.8.682A1.648,1.648,0,0,1,5.477,5.1a1.341,1.341,0,0,1-1.352-.311.787.787,0,0,0-1.264.893,1.814,1.814,0,0,1-.23,1.505,1.26,1.26,0,0,1-1.2.578A.8.8,0,0,0,.922,9.253a1.51,1.51,0,0,1,0,2.481.853.853,0,0,0,.506,1.588,1.477,1.477,0,0,1,1.433,1.984.808.808,0,0,0,1.264.992,1.341,1.341,0,0,1,1.352-.311,1.648,1.648,0,0,1,1.008,1.1.868.868,0,0,0,.8.682.868.868,0,0,0,.8-.682,1.575,1.575,0,0,1,.959-1.108,1.27,1.27,0,0,1,1.317.314.857.857,0,0,0,1.349-.992,1.7,1.7,0,0,1,.2-1.438A1.18,1.18,0,0,1,13.061,13.321ZM12.3,12.23a2.587,2.587,0,0,0-1.939,2.679A2.617,2.617,0,0,0,7.244,16a2.617,2.617,0,0,0-3.119-1.091A2.587,2.587,0,0,0,2.187,12.23a2.811,2.811,0,0,0,0-3.374A2.7,2.7,0,0,0,4.125,6.078a2.456,2.456,0,0,0,3.119-.992,2.456,2.456,0,0,0,3.119.992A2.7,2.7,0,0,0,12.3,8.856a2.811,2.811,0,0,0,0,3.374Z" transform="translate(-0.504 -0.522)" fill="#fff" stroke="#fff" stroke-miterlimit="10" stroke-width="1"/>
              <path id="Path_90" data-name="Path 90" d="M7.9,7.3a2.675,2.675,0,0,0-2.192.837A3.732,3.732,0,0,0,4.7,10.574a3.245,3.245,0,0,0,3.2,3.274A3.274,3.274,0,1,0,7.9,7.3Zm0,5.358a2.085,2.085,0,0,1,0-4.167,1.752,1.752,0,0,1,1.422.525,2.434,2.434,0,0,1,.685,1.558,2.434,2.434,0,0,1-.685,1.558,1.752,1.752,0,0,1-1.422.525Z" transform="translate(-1.163 -0.553)" fill="#fff" stroke="#fff" stroke-miterlimit="10" stroke-width="1"/>
            </g>
          </g>
        </g>
      </g>
    </g>
    <g id="Group_53" data-name="Group 53" transform="translate(1067 3902)">
      <g id="LOgo-2" data-name="LOgo" transform="translate(0 0)">
        <g id="Path_5-7" data-name="Path 5" fill="none">
          <path d="M38.475,0A38.475,38.475,0,1,1,0,38.475,38.475,38.475,0,0,1,38.475,0Z" stroke="none"/>
          <path d="M 38.47526931762695 2 C 33.55025863647461 2 28.77362060546875 2.964118957519531 24.27805709838867 4.865585327148438 C 19.93484497070312 6.702613830566406 16.03383255004883 9.332893371582031 12.68336486816406 12.68336486816406 C 9.332893371582031 16.03383255004883 6.702613830566406 19.93484497070312 4.865585327148438 24.27805709838867 C 2.964118957519531 28.77362060546875 2 33.55025863647461 2 38.47526931762695 C 2 43.4002799987793 2.964118957519531 48.17691802978516 4.865585327148438 52.67248153686523 C 6.702613830566406 57.01569366455078 9.332893371582031 60.91670227050781 12.68336486816406 64.26717376708984 C 16.03383255004883 67.61764526367188 19.93484497070312 70.2479248046875 24.27805709838867 72.08495330810547 C 28.77362060546875 73.98641967773438 33.55025863647461 74.95053863525391 38.47526931762695 74.95053863525391 C 43.4002799987793 74.95053863525391 48.17691802978516 73.98641967773438 52.67248153686523 72.08495330810547 C 57.01569366455078 70.2479248046875 60.91670227050781 67.61764526367188 64.26717376708984 64.26717376708984 C 67.61764526367188 60.91670227050781 70.2479248046875 57.01569366455078 72.08495330810547 52.67248153686523 C 73.98641967773438 48.17691802978516 74.95053863525391 43.4002799987793 74.95053863525391 38.47526931762695 C 74.95053863525391 33.55025863647461 73.98641967773438 28.77362060546875 72.08495330810547 24.27805709838867 C 70.2479248046875 19.93484497070312 67.61764526367188 16.03383255004883 64.26717376708984 12.68336486816406 C 60.91670227050781 9.332893371582031 57.01569366455078 6.702613830566406 52.67248153686523 4.865585327148438 C 48.17691802978516 2.964118957519531 43.4002799987793 2 38.47526931762695 2 M 38.47526931762695 0 C 59.72457504272461 0 76.95053863525391 17.2259635925293 76.95053863525391 38.47526931762695 C 76.95053863525391 59.72457504272461 59.72457504272461 76.95053863525391 38.47526931762695 76.95053863525391 C 17.2259635925293 76.95053863525391 0 59.72457504272461 0 38.47526931762695 C 0 17.2259635925293 17.2259635925293 0 38.47526931762695 0 Z" stroke="none" fill="#fff"/>
        </g>
      </g>
      <g id="Layer_2-3" data-name="Layer 2" transform="translate(23.153 18.386)">
        <g id="thermostat_2_Image-2" data-name="thermostat 2 Image" transform="translate(0 0)">
          <g id="secure-2" data-name="secure">
            <path id="Path_113" data-name="Path 113" d="M30.72,8.129,15.709.1h-.7L.349,8.129A.7.7,0,0,0,0,8.74V19.213A21.469,21.469,0,0,0,13,39.024l2.007.873h.611l2.269-.96a21.469,21.469,0,0,0,13.265-19.9V8.74A.7.7,0,0,0,30.72,8.129ZM29.673,19.038A20.073,20.073,0,0,1,17.28,37.54h0l-2.007.873-1.658-.7a20.247,20.247,0,0,1-12.131-18.5V9.176L15.36,1.584,29.673,9.176Z" transform="translate(0 -0.1)" fill="#fff"/>
            <path id="secure-3" data-name="secure" d="M11.079,21.046a.785.785,0,1,0-1.135.96l3.927,4.625a.785.785,0,0,0,1.047.087l9.164-7.505a.716.716,0,0,0-.873-1.135L14.57,25.06Z" transform="translate(-1.217 -2.369)" fill="#fff"/>
          </g>
        </g>
      </g>
    </g>
    <g id="etc" transform="translate(1277 3902)">
      <g id="LOgo-3" data-name="LOgo" transform="translate(0 0)">
        <g id="Path_5-8" data-name="Path 5" fill="none">
          <path d="M38.475,0A38.475,38.475,0,1,1,0,38.475,38.475,38.475,0,0,1,38.475,0Z" stroke="none"/>
          <path d="M 38.47526931762695 2 C 33.55025863647461 2 28.77362060546875 2.964118957519531 24.27805709838867 4.865585327148438 C 19.93484497070312 6.702613830566406 16.03383255004883 9.332893371582031 12.68336486816406 12.68336486816406 C 9.332893371582031 16.03383255004883 6.702613830566406 19.93484497070312 4.865585327148438 24.27805709838867 C 2.964118957519531 28.77362060546875 2 33.55025863647461 2 38.47526931762695 C 2 43.4002799987793 2.964118957519531 48.17691802978516 4.865585327148438 52.67248153686523 C 6.702613830566406 57.01569366455078 9.332893371582031 60.91670227050781 12.68336486816406 64.26717376708984 C 16.03383255004883 67.61764526367188 19.93484497070312 70.2479248046875 24.27805709838867 72.08495330810547 C 28.77362060546875 73.98641967773438 33.55025863647461 74.95053863525391 38.47526931762695 74.95053863525391 C 43.4002799987793 74.95053863525391 48.17691802978516 73.98641967773438 52.67248153686523 72.08495330810547 C 57.01569366455078 70.2479248046875 60.91670227050781 67.61764526367188 64.26717376708984 64.26717376708984 C 67.61764526367188 60.91670227050781 70.2479248046875 57.01569366455078 72.08495330810547 52.67248153686523 C 73.98641967773438 48.17691802978516 74.95053863525391 43.4002799987793 74.95053863525391 38.47526931762695 C 74.95053863525391 33.55025863647461 73.98641967773438 28.77362060546875 72.08495330810547 24.27805709838867 C 70.2479248046875 19.93484497070312 67.61764526367188 16.03383255004883 64.26717376708984 12.68336486816406 C 60.91670227050781 9.332893371582031 57.01569366455078 6.702613830566406 52.67248153686523 4.865585327148438 C 48.17691802978516 2.964118957519531 43.4002799987793 2 38.47526931762695 2 M 38.47526931762695 0 C 59.72457504272461 0 76.95053863525391 17.2259635925293 76.95053863525391 38.47526931762695 C 76.95053863525391 59.72457504272461 59.72457504272461 76.95053863525391 38.47526931762695 76.95053863525391 C 17.2259635925293 76.95053863525391 0 59.72457504272461 0 38.47526931762695 C 0 17.2259635925293 17.2259635925293 0 38.47526931762695 0 Z" stroke="none" fill="#fff"/>
        </g>
      </g>
      <text id="_" data-name="…" transform="translate(24.854 38.439)" fill="#fff" font-size="26" font-family="HelveticaNeue, Helvetica Neue"><tspan x="0" y="0">…</tspan></text>
      <g id="LOgo-4" data-name="LOgo" transform="translate(21.791 21.791)">
        <g id="Path_5-9" data-name="Path 5" transform="translate(0 0)" fill="none">
          <path d="M16.684,0A16.684,16.684,0,1,1,0,16.684,16.684,16.684,0,0,1,16.684,0Z" stroke="none"/>
          <path d="M 16.68396759033203 1.999998092651367 C 12.76173782348633 1.999998092651367 9.074268341064453 3.527397155761719 6.300838470458984 6.300838470458984 C 3.527397155761719 9.074268341064453 1.999998092651367 12.76173782348633 1.999998092651367 16.68396759033203 C 1.999998092651367 20.60619735717773 3.527397155761719 24.29366683959961 6.300838470458984 27.06709671020508 C 9.074268341064453 29.84053802490234 12.76173782348633 31.3679370880127 16.68396759033203 31.3679370880127 C 20.60619735717773 31.3679370880127 24.29366683959961 29.84053802490234 27.06709671020508 27.06709671020508 C 29.84053802490234 24.29366683959961 31.3679370880127 20.60619735717773 31.3679370880127 16.68396759033203 C 31.3679370880127 12.76173782348633 29.84053802490234 9.074268341064453 27.06709671020508 6.300838470458984 C 24.29366683959961 3.527397155761719 20.60619735717773 1.999998092651367 16.68396759033203 1.999998092651367 M 16.68396759033203 -3.814697265625e-06 C 25.89826774597168 -3.814697265625e-06 33.36793899536133 7.469667434692383 33.36793899536133 16.68396759033203 C 33.36793899536133 25.89826774597168 25.89826774597168 33.36793899536133 16.68396759033203 33.36793899536133 C 7.469667434692383 33.36793899536133 -3.814697265625e-06 25.89826774597168 -3.814697265625e-06 16.68396759033203 C -3.814697265625e-06 7.469667434692383 7.469667434692383 -3.814697265625e-06 16.68396759033203 -3.814697265625e-06 Z" stroke="none" fill="#fff"/>
        </g>
      </g>
    </g>
  </g>
</svg>
