<svg xmlns="http://www.w3.org/2000/svg" width="62.971" height="62.972" viewBox="0 0 62.971 62.972">
  <g id="Layer_2" data-name="Layer 2" transform="translate(0 0)">
    <g id="Layer_1" data-name="Layer 1" transform="translate(0 0)">
      <g id="Social_media" data-name="Social media">
        <g id="Group_6" data-name="Group 6">
          <path id="Path_4" data-name="Path 4" d="M34.614,10.49H15.857a5.453,5.453,0,0,0-5.437,5.437V34.684a5.453,5.453,0,0,0,5.437,5.437H34.614a5.453,5.453,0,0,0,5.437-5.437V15.879a5.4,5.4,0,0,0-5.4-5.389ZM25.243,35.02a9.77,9.77,0,1,1,9.77-9.77h0A9.77,9.77,0,0,1,25.243,35.02Zm10.09-17.446a2.3,2.3,0,1,1,2.3-2.3h0a2.271,2.271,0,0,1-2.3,2.3Z" transform="translate(6.258 6.284)" fill="#f5f5f5"/>
          <path id="Path_5" data-name="Path 5" d="M21.793,16.21a5.613,5.613,0,1,0,5.613,5.613h0a5.629,5.629,0,0,0-5.613-5.613Z" transform="translate(9.709 9.711)" fill="#f5f5f5"/>
          <path id="Path_6" data-name="Path 6" d="M31.492,0A31.485,31.485,0,1,0,31.5,0Zm18.9,40.968A9.594,9.594,0,0,1,40.8,50.563H22.121a9.594,9.594,0,0,1-9.594-9.594h0V22.163a9.594,9.594,0,0,1,9.594-9.594H40.862a9.594,9.594,0,0,1,9.594,9.594h0Z" transform="translate(0.01 0)" fill="#f5f5f5"/>
        </g>
      </g>
    </g>
  </g>
</svg>
