<svg xmlns="http://www.w3.org/2000/svg" width="76.95" height="76.95" viewBox="0 0 76.95 76.95">
  <g id="Iphone" transform="translate(0)">
    <g id="LOgo" transform="translate(0 0)">
      <g id="Path_5" data-name="Path 5" fill="none">
        <path d="M38.475,0A38.475,38.475,0,1,1,0,38.475,38.475,38.475,0,0,1,38.475,0Z" stroke="none"/>
        <path d="M 38.47526931762695 2 C 33.55025863647461 2 28.77362060546875 2.964118957519531 24.27805709838867 4.865585327148438 C 19.93484497070312 6.702613830566406 16.03383255004883 9.332893371582031 12.68336486816406 12.68336486816406 C 9.332893371582031 16.03383255004883 6.702613830566406 19.93484497070312 4.865585327148438 24.27805709838867 C 2.964118957519531 28.77362060546875 2 33.55025863647461 2 38.47526931762695 C 2 43.4002799987793 2.964118957519531 48.17691802978516 4.865585327148438 52.67248153686523 C 6.702613830566406 57.01569366455078 9.332893371582031 60.91670227050781 12.68336486816406 64.26717376708984 C 16.03383255004883 67.61764526367188 19.93484497070312 70.2479248046875 24.27805709838867 72.08495330810547 C 28.77362060546875 73.98641967773438 33.55025863647461 74.95053863525391 38.47526931762695 74.95053863525391 C 43.4002799987793 74.95053863525391 48.17691802978516 73.98641967773438 52.67248153686523 72.08495330810547 C 57.01569366455078 70.2479248046875 60.91670227050781 67.61764526367188 64.26717376708984 64.26717376708984 C 67.61764526367188 60.91670227050781 70.2479248046875 57.01569366455078 72.08495330810547 52.67248153686523 C 73.98641967773438 48.17691802978516 74.95053863525391 43.4002799987793 74.95053863525391 38.47526931762695 C 74.95053863525391 33.55025863647461 73.98641967773438 28.77362060546875 72.08495330810547 24.27805709838867 C 70.2479248046875 19.93484497070312 67.61764526367188 16.03383255004883 64.26717376708984 12.68336486816406 C 60.91670227050781 9.332893371582031 57.01569366455078 6.702613830566406 52.67248153686523 4.865585327148438 C 48.17691802978516 2.964118957519531 43.4002799987793 2 38.47526931762695 2 M 38.47526931762695 0 C 59.72457504272461 0 76.95053863525391 17.2259635925293 76.95053863525391 38.47526931762695 C 76.95053863525391 59.72457504272461 59.72457504272461 76.95053863525391 38.47526931762695 76.95053863525391 C 17.2259635925293 76.95053863525391 0 59.72457504272461 0 38.47526931762695 C 0 17.2259635925293 17.2259635925293 0 38.47526931762695 0 Z" stroke="none" fill="#fff"/>
      </g>
    </g>
    <g id="iphone-2" data-name="iphone" transform="translate(25.196 14.301)">
      <g id="Group_17" data-name="Group 17" transform="translate(0)">
        <g id="Group_16" data-name="Group 16" transform="translate(0)">
          <path id="Path_116" data-name="Path 116" d="M119.518,0H97.884a2.312,2.312,0,0,0-2.31,2.31V45.565a2.312,2.312,0,0,0,2.31,2.31h21.634a2.312,2.312,0,0,0,2.31-2.31V2.31A2.312,2.312,0,0,0,119.518,0Zm.765,45.565a.766.766,0,0,1-.765.765H97.884a.766.766,0,0,1-.765-.765V2.31a.766.766,0,0,1,.765-.765h21.634a.766.766,0,0,1,.765.765Z" transform="translate(-95.574 0)" fill="#fff"/>
        </g>
      </g>
      <g id="Group_19" data-name="Group 19" transform="translate(0 4.633)">
        <g id="Group_18" data-name="Group 18">
          <path id="Path_117" data-name="Path 117" d="M121.055,40.96H96.345a.772.772,0,0,0-.772.772V75.708a.772.772,0,0,0,.772.772h24.71a.772.772,0,0,0,.772-.772V41.732A.772.772,0,0,0,121.055,40.96Zm-.772,33.976H97.117V42.5h23.165Z" transform="translate(-95.573 -40.96)" fill="#fff"/>
        </g>
      </g>
      <g id="Group_21" data-name="Group 21" transform="translate(3.475 7.722)">
        <g id="Group_20" data-name="Group 20">
          <path id="Path_118" data-name="Path 118" d="M131.086,68.494a.772.772,0,0,0-1.092,0l-3.475,3.475a.772.772,0,1,0,1.092,1.092l3.475-3.475A.772.772,0,0,0,131.086,68.494Z" transform="translate(-126.294 -68.268)" fill="#fff"/>
        </g>
      </g>
      <g id="Group_23" data-name="Group 23" transform="translate(3.089 7.722)">
        <g id="Group_22" data-name="Group 22">
          <path id="Path_119" data-name="Path 119" d="M131.148,68.494a.772.772,0,0,0-1.092,0l-6.95,6.95a.772.772,0,1,0,1.092,1.092l6.95-6.95A.772.772,0,0,0,131.148,68.494Z" transform="translate(-122.881 -68.268)" fill="#fff"/>
        </g>
      </g>
      <g id="Group_25" data-name="Group 25" transform="translate(10.811 40.925)">
        <g id="Group_24" data-name="Group 24">
          <path id="Path_120" data-name="Path 120" d="M193.464,361.813a2.317,2.317,0,1,0,2.317,2.317A2.319,2.319,0,0,0,193.464,361.813Zm0,3.089a.772.772,0,1,1,.772-.772A.773.773,0,0,1,193.464,364.9Z" transform="translate(-191.147 -361.813)" fill="#fff"/>
        </g>
      </g>
    </g>
  </g>
</svg>
