<svg xmlns="http://www.w3.org/2000/svg" width="76.951" height="76.95" viewBox="0 0 76.951 76.95">
  <g id="laptop" transform="translate(0)">
    <g id="Path_5" data-name="Path 5" transform="translate(0 0)" fill="none">
      <path d="M38.475,0A38.475,38.475,0,1,1,0,38.475,38.475,38.475,0,0,1,38.475,0Z" stroke="none"/>
      <path d="M 38.47526931762695 2 C 33.55025863647461 2 28.77362060546875 2.964118957519531 24.27805709838867 4.865585327148438 C 19.93484497070312 6.702613830566406 16.03383255004883 9.332893371582031 12.68336486816406 12.68336486816406 C 9.332893371582031 16.03383255004883 6.702613830566406 19.93484497070312 4.865585327148438 24.27805709838867 C 2.964118957519531 28.77362060546875 2 33.55025863647461 2 38.47526931762695 C 2 43.4002799987793 2.964118957519531 48.17691802978516 4.865585327148438 52.67248153686523 C 6.702613830566406 57.01569366455078 9.332893371582031 60.91670227050781 12.68336486816406 64.26717376708984 C 16.03383255004883 67.61764526367188 19.93484497070312 70.2479248046875 24.27805709838867 72.08495330810547 C 28.77362060546875 73.98641967773438 33.55025863647461 74.95053863525391 38.47526931762695 74.95053863525391 C 43.4002799987793 74.95053863525391 48.17691802978516 73.98641967773438 52.67248153686523 72.08495330810547 C 57.01569366455078 70.2479248046875 60.91670227050781 67.61764526367188 64.26717376708984 64.26717376708984 C 67.61764526367188 60.91670227050781 70.2479248046875 57.01569366455078 72.08495330810547 52.67248153686523 C 73.98641967773438 48.17691802978516 74.95053863525391 43.4002799987793 74.95053863525391 38.47526931762695 C 74.95053863525391 33.55025863647461 73.98641967773438 28.77362060546875 72.08495330810547 24.27805709838867 C 70.2479248046875 19.93484497070312 67.61764526367188 16.03383255004883 64.26717376708984 12.68336486816406 C 60.91670227050781 9.332893371582031 57.01569366455078 6.702613830566406 52.67248153686523 4.865585327148438 C 48.17691802978516 2.964118957519531 43.4002799987793 2 38.47526931762695 2 M 38.47526931762695 0 C 59.72457504272461 0 76.95053863525391 17.2259635925293 76.95053863525391 38.47526931762695 C 76.95053863525391 59.72457504272461 59.72457504272461 76.95053863525391 38.47526931762695 76.95053863525391 C 17.2259635925293 76.95053863525391 0 59.72457504272461 0 38.47526931762695 C 0 17.2259635925293 17.2259635925293 0 38.47526931762695 0 Z" stroke="none" fill="#fff"/>
    </g>
    <g id="laptop-2" data-name="laptop" transform="translate(10.215 19.748)">
      <g id="Group_39" data-name="Group 39" transform="translate(0 30.147)">
        <g id="Group_38" data-name="Group 38">
          <path id="Path_126" data-name="Path 126" d="M54.974,303.787H.887a.887.887,0,0,0-.887.887,6.214,6.214,0,0,0,6.207,6.207H49.654a6.214,6.214,0,0,0,6.207-6.207A.887.887,0,0,0,54.974,303.787Zm-5.32,5.32H6.207a4.441,4.441,0,0,1-4.344-3.547H54A4.441,4.441,0,0,1,49.654,309.107Z" transform="translate(0 -303.787)" fill="#fff"/>
        </g>
      </g>
      <g id="Group_41" data-name="Group 41" transform="translate(4.433 0)">
        <g id="Group_40" data-name="Group 40">
          <path id="Path_127" data-name="Path 127" d="M80.24,71.68H35.02a.887.887,0,0,0-.887.887v30.147a.887.887,0,0,0,.887.887H80.24a.887.887,0,0,0,.887-.887V72.567A.887.887,0,0,0,80.24,71.68Zm-.887,30.147H35.906V73.453H79.354v28.374Z" transform="translate(-34.133 -71.68)" fill="#fff"/>
        </g>
      </g>
      <g id="Group_43" data-name="Group 43" transform="translate(8.423 3.547)">
        <g id="Group_42" data-name="Group 42" transform="translate(0 0)">
          <path id="Path_128" data-name="Path 128" d="M68.584,99.247a.886.886,0,0,0-1.254,0l-2.217,2.217a.887.887,0,1,0,1.254,1.254l2.217-2.217A.886.886,0,0,0,68.584,99.247Z" transform="translate(-64.854 -98.988)" fill="#fff"/>
        </g>
      </g>
      <g id="Group_45" data-name="Group 45" transform="translate(9.31 3.547)">
        <g id="Group_44" data-name="Group 44" transform="translate(0 0)">
          <path id="Path_129" data-name="Path 129" d="M78.071,99.247a.886.886,0,0,0-1.254,0l-4.877,4.877a.887.887,0,1,0,1.254,1.254l4.877-4.877A.886.886,0,0,0,78.071,99.247Z" transform="translate(-71.68 -98.988)" fill="#fff"/>
        </g>
      </g>
    </g>
  </g>
</svg>
