<svg xmlns="http://www.w3.org/2000/svg" width="90.556" height="90.556" viewBox="0 0 90.556 90.556">
  <g id="Group_11" data-name="Group 11" transform="translate(0)">
    <g id="Group_10" data-name="Group 10">
      <g id="Path_5" data-name="Path 5" fill="none">
        <path d="M45.278,0A45.278,45.278,0,1,1,0,45.278,45.278,45.278,0,0,1,45.278,0Z" stroke="none"/>
        <path d="M 45.2780647277832 2 C 39.43467712402344 2 33.76714324951172 3.14398193359375 28.43290328979492 5.400184631347656 C 23.27962493896484 7.579841613769531 18.65107727050781 10.70062255859375 14.67584991455078 14.67584991455078 C 10.70062255859375 18.65107727050781 7.579841613769531 23.27962493896484 5.400184631347656 28.43290328979492 C 3.14398193359375 33.76714324951172 2 39.43467712402344 2 45.2780647277832 C 2 51.12145233154297 3.14398193359375 56.78898620605469 5.400184631347656 62.12322235107422 C 7.579841613769531 67.27650451660156 10.70062255859375 71.90505218505859 14.67584991455078 75.88027954101562 C 18.65107727050781 79.85550689697266 23.27962493896484 82.97628784179688 28.43290328979492 85.15594482421875 C 33.76714324951172 87.41214752197266 39.43467712402344 88.55612945556641 45.2780647277832 88.55612945556641 C 51.12145233154297 88.55612945556641 56.78898620605469 87.41214752197266 62.12322235107422 85.15594482421875 C 67.27650451660156 82.97628784179688 71.90505218505859 79.85550689697266 75.88027954101562 75.88027954101562 C 79.85550689697266 71.90505218505859 82.97628784179688 67.27650451660156 85.15594482421875 62.12322235107422 C 87.41214752197266 56.78898620605469 88.55612945556641 51.12145233154297 88.55612945556641 45.2780647277832 C 88.55612945556641 39.43467712402344 87.41214752197266 33.76714324951172 85.15594482421875 28.43290328979492 C 82.97628784179688 23.27962493896484 79.85550689697266 18.65107727050781 75.88027954101562 14.67584991455078 C 71.90505218505859 10.70062255859375 67.27650451660156 7.579841613769531 62.12322235107422 5.400184631347656 C 56.78898620605469 3.14398193359375 51.12145233154297 2 45.2780647277832 2 M 45.2780647277832 0 C 70.28445434570312 0 90.55612945556641 20.27167510986328 90.55612945556641 45.2780647277832 C 90.55612945556641 70.28445434570312 70.28445434570312 90.55612945556641 45.2780647277832 90.55612945556641 C 20.27167510986328 90.55612945556641 0 70.28445434570312 0 45.2780647277832 C 0 20.27167510986328 20.27167510986328 0 45.2780647277832 0 Z" stroke="none" fill="#fff"/>
      </g>
    </g>
    <g id="Layer_2" data-name="Layer 2" transform="translate(23.24 20.836)">
      <g id="thermostat_2_Image" data-name="thermostat 2 Image">
        <g id="room_option" data-name="room option">
          <g id="light">
            <path id="Path_99" data-name="Path 99" d="M83.264,26.6a11.34,11.34,0,0,0,2.8-7.438,11.949,11.949,0,0,0-4.024-8.9A14.266,14.266,0,0,0,72.29,6.6,14.51,14.51,0,0,0,62.9,10.258,12.437,12.437,0,0,0,59,19.037a12.193,12.193,0,0,0,2.8,7.682,19.509,19.509,0,0,1,4.511,12.437v4.755a4.146,4.146,0,0,0,4.268,3.9h3.9a4.024,4.024,0,0,0,4.146-3.9V39.156A19.753,19.753,0,0,1,83.264,26.6Zm-20.119-.854a10.608,10.608,0,0,1-2.439-6.706c.122-5.853,5.243-10.73,11.583-10.852a12.8,12.8,0,0,1,8.535,3.17,10.73,10.73,0,0,1,3.414,7.8,10.364,10.364,0,0,1-2.317,6.584,21.216,21.216,0,0,0-5,13.047H68.145a21.216,21.216,0,0,0-5-13.047Zm5,17.68v-.732l8.779.975v.61Zm0-2.317v-.732h8.779v1.707Zm2.439,5.121a2.561,2.561,0,0,1-2.195-1.219l7.438.854a2.439,2.439,0,0,1-1.341.366Z" transform="translate(-50.831 0.837)" fill="#fff"/>
            <path id="Path_100" data-name="Path 100" d="M63.43,18.295a5,5,0,0,1-.122-1.341.854.854,0,0,0-1.707,0,5.974,5.974,0,0,0,.122,1.463c0,.488.366.732.854.732H62.7a1.1,1.1,0,0,0,.732-.854Z" transform="translate(-50.261 2.921)" fill="#fff"/>
            <path id="Path_101" data-name="Path 101" d="M77.914,19.11a.854.854,0,0,0-1.1.488,6.218,6.218,0,0,1-1.1,1.585.854.854,0,0,0,.244,1.1l.488.244a1.1,1.1,0,0,0,.732-.366A10.486,10.486,0,0,0,78.4,20.207c.244-.488,0-.854-.488-1.1Z" transform="translate(-47.187 3.569)" fill="#fff"/>
            <path id="Path_102" data-name="Path 102" d="M70.254,6.6a.854.854,0,0,0,.854-.854V1.354a.854.854,0,1,0-1.707,0v4.39a.854.854,0,0,0,.854.854Z" transform="translate(-48.55 -0.5)" fill="#fff"/>
            <path id="Path_103" data-name="Path 103" d="M63.361,7.7a.854.854,0,0,0,.732.366h.488a.854.854,0,0,0,.244-1.1l-2.439-3.9a.854.854,0,0,0-1.1-.244.732.732,0,0,0-.366,1.1Z" transform="translate(-50.436 -0.014)" fill="#fff"/>
            <path id="Path_104" data-name="Path 104" d="M86.178,24.716l-4.146-2.195a.975.975,0,0,0-1.219.244.854.854,0,0,0,.366,1.1l4.146,2.317h.488a.853.853,0,0,0,.732-.366.732.732,0,0,0-.366-1.1Z" transform="translate(-46.063 4.304)" fill="#fff"/>
            <path id="Path_105" data-name="Path 105" d="M54.974,9.862l4.146,2.317h.488a.975.975,0,0,0,.732-.488.854.854,0,0,0-.244-1.1L55.828,8.521a.975.975,0,0,0-1.219.244C54.486,9.253,54.608,9.74,54.974,9.862Z" transform="translate(-51.804 1.233)" fill="#fff"/>
            <path id="Path_106" data-name="Path 106" d="M88.231,16.3H83.354a.795.795,0,1,0,0,1.585h4.877a.795.795,0,1,0,0-1.585Z" transform="translate(-45.677 2.965)" fill="#fff"/>
            <path id="Path_107" data-name="Path 107" d="M58.884,17.154a.975.975,0,0,0-.975-.854H53.154a.795.795,0,1,0,0,1.585h4.755C58.4,17.885,58.884,17.519,58.884,17.154Z" transform="translate(-52.3 2.965)" fill="#fff"/>
            <path id="Path_108" data-name="Path 108" d="M81.667,12.279h.366l4.146-2.317c.488-.122.61-.61.366-1.1a.975.975,0,0,0-1.219-.244l-4.146,2.195a.854.854,0,0,0-.366,1.1,1.219,1.219,0,0,0,.854.488Z" transform="translate(-46.063 1.255)" fill="#fff"/>
            <path id="Path_109" data-name="Path 109" d="M59.12,22.521l-4.146,2.195a.975.975,0,0,0-.366,1.1,1.1,1.1,0,0,0,.854.366h.366L60.1,23.862a.854.854,0,0,0,.244-1.1A.975.975,0,0,0,59.12,22.521Z" transform="translate(-51.804 4.304)" fill="#fff"/>
            <path id="Path_110" data-name="Path 110" d="M76.388,7.986h.366a1.1,1.1,0,0,0,.854-.366l2.317-3.9a.854.854,0,0,0-.244-1.1.975.975,0,0,0-1.219.244L76.022,6.889a.732.732,0,0,0,.366,1.1Z" transform="translate(-47.125 -0.06)" fill="#fff"/>
          </g>
        </g>
      </g>
    </g>
  </g>
</svg>
