<svg xmlns="http://www.w3.org/2000/svg" width="62.975" height="62.975" viewBox="0 0 62.975 62.975">
  <g id="Layer_2" data-name="Layer 2" transform="translate(0)">
    <g id="Layer_1" data-name="Layer 1" transform="translate(0 0)">
      <g id="Social_media" data-name="Social media">
        <g id="Group_3" data-name="Group 3">
          <path id="Exclusion_3" data-name="Exclusion 3" d="M31.49,62.963a31.486,31.486,0,1,1,22.259-9.227A31.486,31.486,0,0,1,31.49,62.963ZM27.4,24.425c.112,2.095,0,22.387,0,22.611h7.516V34.4a4.8,4.8,0,0,1,.272-1.855,4.19,4.19,0,0,1,3.87-2.75c2.495,0,3.822,1.759,3.822,5.1V46.972h7.516V34.02c0-6.4-3.2-10.154-8.635-10.154a7.564,7.564,0,0,0-6.8,3.758v-3.2Zm-11.721,0V46.972h7.516V24.361ZM19.5,13.535a3.939,3.939,0,0,0-.656,7.851h.592a3.939,3.939,0,0,0,.64-7.851Z" transform="translate(0.008 0.012)" fill="#f5f5f5"/>
        </g>
      </g>
    </g>
  </g>
</svg>
