<svg xmlns="http://www.w3.org/2000/svg" width="127.358" height="118.031" viewBox="0 0 127.358 118.031">
  <g id="logo" transform="translate(0.5 1.525)">
    <g id="thermo" transform="translate(0 84.348)">
      <path id="Path_167" data-name="Path 167" d="M17.39,449.209H12.4V448.7H22.945v.509h-5.01v13.263H17.39Z" transform="translate(-12.4 -447.799)" fill="#fff" stroke="#fff" stroke-width="1"/>
      <path id="Path_168" data-name="Path 168" d="M76.9,444.1h.545v5.681h.02a8,8,0,0,1,4.04-1.136c1.9,0,2.99.725,2.99,2.586v7.523H83.95v-7.405c0-1.665-.828-2.253-2.646-2.253a7.663,7.663,0,0,0-3.858,1.136v8.522H76.9Z" transform="translate(-63.87 -444.1)" fill="#fff" stroke="#fff" stroke-width="1"/>
      <path id="Path_169" data-name="Path 169" d="M128,472.77v-.216c0-3.448,1.98-5.054,4.464-5.054s4,1.763,4,4.662v.255h-7.919v.353c0,3.017,1.374,4.545,4.343,4.545a8.091,8.091,0,0,0,3.172-.627v.411a6.818,6.818,0,0,1-3.232.686C129.616,477.785,128,476.061,128,472.77Zm.566-.784h7.313c0-2.508-1.05-4.036-3.434-4.036C130.384,467.951,128.747,469.244,128.566,471.986Z" transform="translate(-104.648 -462.916)" fill="#fff" stroke="#fff" stroke-width="1"/>
      <path id="Path_170" data-name="Path 170" d="M183.3,467.814h.545v1.273h.04a4.652,4.652,0,0,1,3.232-1.391,2.331,2.331,0,0,1,.586.059v.49a2.828,2.828,0,0,0-.606-.078,4.527,4.527,0,0,0-3.232,1.411v8.208H183.3Z" transform="translate(-148.776 -463.073)" fill="#fff" stroke="#fff" stroke-width="1"/>
      <path id="Path_171" data-name="Path 171" d="M218.1,467.657h.525v.979h.04a7.267,7.267,0,0,1,3.677-1.136,2.674,2.674,0,0,1,2.5,1.2h.04a7.222,7.222,0,0,1,3.858-1.2c1.7,0,2.848.725,2.848,2.625v7.5h-.525V470.2c0-1.646-.929-2.233-2.485-2.233a7.261,7.261,0,0,0-3.616,1.117,3.694,3.694,0,0,1,.141,1.038v7.5h-.545V470.2c0-1.646-.808-2.233-2.323-2.233a6.618,6.618,0,0,0-3.6,1.136v8.522H218.1Z" transform="translate(-176.546 -462.916)" fill="#fff" stroke="#fff" stroke-width="1"/>
      <path id="Path_172" data-name="Path 172" d="M298.8,472.77v-.216c0-3.35,1.96-5.054,4.485-5.054s4.525,1.626,4.525,5.015v.176c0,3.37-1.98,5.094-4.525,5.094S298.8,476.159,298.8,472.77Zm8.484-.039v-.274c0-3.193-1.677-4.506-4-4.506s-3.98,1.567-3.98,4.584v.294c0,3.1,1.656,4.525,3.98,4.525S307.284,475.806,307.284,472.731Z" transform="translate(-240.944 -462.916)" fill="#fff" stroke="#fff" stroke-width="1"/>
      <path id="Path_173" data-name="Path 173" d="M353.6,461.037v-.49a8.448,8.448,0,0,0,4,.96c2.788,0,3.98-1.175,3.98-3.134s-1.273-2.684-3.232-3.291l-.909-.294c-2.5-.823-3.535-1.724-3.535-3.683s1.333-3.213,4.1-3.213a7.336,7.336,0,0,1,3.434.764v.509a6.948,6.948,0,0,0-3.454-.784c-2.384,0-3.515,1.136-3.515,2.684s.808,2.429,3.172,3.252l.889.235c2.182.744,3.636,1.508,3.636,3.781S360.812,462,357.62,462A8.572,8.572,0,0,1,353.6,461.037Z" transform="translate(-284.674 -447.148)" fill="#fff" stroke="#fff" stroke-width="1"/>
      <path id="Path_174" data-name="Path 174" d="M407.8,472.77v-.216c0-3.448,1.96-5.054,4.444-5.054,2.788,0,4,1.763,4,4.662v.255h-7.919v.353c0,3.017,1.374,4.545,4.343,4.545a8.091,8.091,0,0,0,3.172-.627v.411a6.819,6.819,0,0,1-3.232.686C409.4,477.785,407.8,476.061,407.8,472.77Zm.566-.784h7.293c0-2.508-1.05-4.036-3.434-4.036C410.164,467.951,408.527,469.244,408.366,471.986Z" transform="translate(-327.925 -462.916)" fill="#fff" stroke="#fff" stroke-width="1"/>
      <path id="Path_175" data-name="Path 175" d="M459.7,472.75v-.216c0-3.507,1.96-5.035,4.5-5.035a5.292,5.292,0,0,1,2.909.666v.451a5.788,5.788,0,0,0-2.949-.646c-2.182,0-3.939,1.293-3.939,4.486v.274c0,2.821,1.212,4.584,4.04,4.584a5.293,5.293,0,0,0,2.99-.8v.47a5.009,5.009,0,0,1-3.071.8C461.134,477.785,459.7,475.787,459.7,472.75Z" transform="translate(-369.341 -462.916)" fill="#fff" stroke="#fff" stroke-width="1"/>
      <path id="Path_176" data-name="Path 176" d="M510.4,475.784V468.3h.545v7.425c0,1.685.889,2.233,2.667,2.233a7.5,7.5,0,0,0,3.8-1.136V468.3h.566v9.972h-.505l-.04-.98h-.04a7.85,7.85,0,0,1-3.9,1.136C511.552,478.428,510.4,477.664,510.4,475.784Z" transform="translate(-409.799 -463.559)" fill="#fff" stroke="#fff" stroke-width="1"/>
      <path id="Path_177" data-name="Path 177" d="M565.1,467.816h.545v1.273h.04a4.735,4.735,0,0,1,3.252-1.391,2.564,2.564,0,0,1,.586.059v.49a3.217,3.217,0,0,0-.626-.078,4.568,4.568,0,0,0-3.232,1.411v8.208H565.1Z" transform="translate(-453.449 -463.075)" fill="#fff" stroke="#fff" stroke-width="1"/>
      <path id="Path_178" data-name="Path 178" d="M596.1,472.77v-.216c0-3.448,1.98-5.054,4.444-5.054,2.788,0,4,1.763,4,4.662v.255h-7.9v.353c0,3.017,1.374,4.545,4.343,4.545a8.173,8.173,0,0,0,3.172-.627v.411a6.818,6.818,0,0,1-3.232.686C597.7,477.785,596.1,476.061,596.1,472.77Zm.566-.784h7.293c0-2.508-1.05-4.036-3.434-4.036C598.464,467.951,596.827,469.244,596.666,471.986Z" transform="translate(-478.186 -462.916)" fill="#fff" stroke="#fff" stroke-width="1"/>
      <path id="Path_179" data-name="Path 179" d="M162.2,560.587V552.3h.343v3.252h0a4.092,4.092,0,0,1,2.121-.588c1.374,0,2.384.646,2.384,2.958v.1a2.6,2.6,0,0,1-2.828,2.939A4.685,4.685,0,0,1,162.2,560.587Zm4.525-2.547v-.118c0-2.1-.828-2.7-2.161-2.7a3.881,3.881,0,0,0-2.02.607v4.565a3.818,3.818,0,0,0,1.7.313c1.454,0,2.485-.784,2.485-2.664Z" transform="translate(-131.939 -531.103)" fill="#fff" stroke="#fff" stroke-width="1"/>
      <path id="Path_180" data-name="Path 180" d="M191.6,574.142v-.235a2.1,2.1,0,0,0,.626.078c.727,0,.97-.372,1.232-1l.444-1.136-2.4-5.25h.323l2.242,4.839h.02l2.061-4.839h.323l-2.727,6.445c-.283.725-.586,1.215-1.475,1.215A2.014,2.014,0,0,1,191.6,574.142Z" transform="translate(-155.32 -542.602)" fill="#fff" stroke="#fff" stroke-width="1"/>
      <path id="Path_181" data-name="Path 181" d="M240,555h.323v3.722h5.151V555h.323v8.052h-.323V559h-5.151v4.055H240Z" transform="translate(-194.022 -533.274)" fill="#fff" stroke="#fff" stroke-width="1"/>
      <path id="Path_182" data-name="Path 182" d="M277.4,569.076v-.137c0-1.959,1.151-2.939,2.626-2.939s2.626.96,2.626,2.919v.118c0,1.959-1.151,2.958-2.626,2.958S277.4,571.035,277.4,569.076Zm4.949-.02V568.9c0-1.881-.97-2.645-2.323-2.645s-2.323.921-2.323,2.684v.157c0,1.822.97,2.645,2.323,2.645S282.349,570.858,282.349,569.056Z" transform="translate(-223.867 -542.119)" fill="#fff" stroke="#fff" stroke-width="1"/>
      <path id="Path_183" data-name="Path 183" d="M311.8,566.078h.3v.588h.02a4.189,4.189,0,0,1,2.141-.666,1.523,1.523,0,0,1,1.454.686h.02A4.377,4.377,0,0,1,318,566c.99,0,1.656.431,1.656,1.528v4.388h-.3v-4.349c0-.96-.545-1.293-1.434-1.293a4.212,4.212,0,0,0-2.121.646,2.472,2.472,0,0,1,.081.607v4.388h-.323v-4.349c0-.96-.465-1.293-1.354-1.293a3.837,3.837,0,0,0-2.1.666v4.976h-.3Z" transform="translate(-251.318 -542.119)" fill="#fff" stroke="#fff" stroke-width="1"/>
      <path id="Path_184" data-name="Path 184" d="M358.7,569.076v-.137c0-2,1.172-2.939,2.606-2.939s2.323,1.019,2.323,2.723v.137h-4.606v.215c0,1.763.808,2.645,2.545,2.645a5.021,5.021,0,0,0,1.838-.353v.235a4.083,4.083,0,0,1-1.879.392C359.649,571.995,358.7,571,358.7,569.076Zm.343-.47h4.262c0-1.45-.626-2.351-2.02-2.351s-2.141.764-2.242,2.351Z" transform="translate(-288.744 -542.119)" fill="#fff" stroke="#fff" stroke-width="1"/>
      <path id="Path_185" data-name="Path 185" d="M389.5,558.773v-.157c0-2.645,1.313-4.016,3.576-4.016a3.926,3.926,0,0,1,2.02.431v.294a4.246,4.246,0,0,0-2.02-.451c-2.06,0-3.252,1.234-3.252,3.7v.215c0,2.449.97,3.742,3.111,3.742a4.014,4.014,0,0,0,2.2-.549v.294a4.243,4.243,0,0,1-2.222.549C390.611,562.828,389.5,561.4,389.5,558.773Z" transform="translate(-313.322 -532.953)" fill="#fff" stroke="#fff" stroke-width="1"/>
      <path id="Path_186" data-name="Path 186" d="M424.6,569.076v-.137c0-1.959,1.152-2.939,2.626-2.939s2.626.96,2.626,2.919v.118c0,1.959-1.151,2.958-2.626,2.958S424.6,571.035,424.6,569.076Zm4.949-.02V568.9c0-1.881-.97-2.645-2.323-2.645s-2.323.921-2.323,2.684v.157c0,1.822.97,2.645,2.323,2.645S429.549,570.858,429.549,569.056Z" transform="translate(-341.331 -542.119)" fill="#fff" stroke="#fff" stroke-width="1"/>
      <path id="Path_187" data-name="Path 187" d="M459,566.078h.3v.588h.02a4.189,4.189,0,0,1,2.141-.666,1.544,1.544,0,0,1,1.454.686h.02A4.377,4.377,0,0,1,465.2,566c.99,0,1.657.431,1.657,1.528v4.388h-.3v-4.349c0-.96-.545-1.293-1.454-1.293a4.149,4.149,0,0,0-2.1.646,2.474,2.474,0,0,1,.081.607v4.388h-.323v-4.349c0-.96-.465-1.293-1.354-1.293a3.837,3.837,0,0,0-2.1.666v4.976H459Z" transform="translate(-368.782 -542.119)" fill="#fff" stroke="#fff" stroke-width="1"/>
    </g>
    <line id="bottom_line_left" data-name="bottom line left" x1="23.736" transform="translate(0 111.206)" fill="aqua" stroke="aqua" stroke-miterlimit="10" stroke-width="2"/>
    <line id="bottom_line_right" data-name="bottom line right" x1="23.736" transform="translate(102.702 111.206)" fill="aqua" stroke="aqua" stroke-miterlimit="10" stroke-width="2"/>
    <path id="leaf" d="M289.273,212.869s-10.181-5.7-6.02-21.569c0,0,8.747.607,16,12.029" transform="translate(-227.74 -156.477)" fill="aqua" stroke="#fff" stroke-miterlimit="10" stroke-width="3"/>
    <ellipse id="phone_cam" data-name="phone cam" cx="0.404" cy="0.372" rx="0.404" ry="0.372" transform="translate(71.896 33.726)" fill="aqua" stroke="aqua" stroke-miterlimit="10" stroke-width="0.1"/>
    <rect id="phone_line" data-name="phone line" width="5.333" height="0.382" rx="0.191" transform="translate(73.653 33.902)" fill="aqua" stroke="aqua" stroke-miterlimit="10" stroke-width="0.2"/>
    <path id="phone" d="M356.861,189.474V178.052a2.71,2.71,0,0,0-2.99-3.154H341.488s-3.919-.157-3.273,5.583l15.232-.235" transform="translate(-272.34 -143.288)" fill="none" stroke="#fff" stroke-miterlimit="10" stroke-width="2"/>
    <path id="main_house" data-name="main house" d="M224.5,78.086s13.01-1.156,11.818-18.356c0,0-20.908.882-20.767,13.263V86.549s.081,1.822-2.828,1.822h-23.11s-2.909,1-2.485-3.1V39.846s-.545-1.038,2.222-3.252l27.716-22.353a1.641,1.641,0,0,1,2.646,0l26.362,22.353a4.987,4.987,0,0,1,2.162,3.7v44.96s.343,3.115-2.768,3.115H224.156" transform="translate(-151.796 -13.544)" fill="none" stroke="#fff" stroke-miterlimit="10" stroke-width="3"/>
  </g>
</svg>
