<svg xmlns="http://www.w3.org/2000/svg" width="305" height="448.464" viewBox="0 0 305 448.464">
  <g id="Group_73" data-name="Group 73" transform="translate(-36 -1818.888)">
    <text id="Loks_Windows_" data-name="Loks Windows
" transform="translate(36 2025)" fill="#fff" font-size="10" font-family="HelveticaNeue, Helvetica Neue"><tspan x="0" y="10">Loks Windows</tspan></text>
    <g id="Group_71" data-name="Group 71">
      <g id="Group_6" data-name="Group 6" transform="translate(39.912 1960.541)">
        <g id="Path_5" data-name="Path 5" fill="none">
          <path d="M27.7,0A27.7,27.7,0,1,1,0,27.7,27.7,27.7,0,0,1,27.7,0Z" stroke="none"/>
          <path d="M 27.69965171813965 2 C 24.22934150695801 2 20.8639030456543 2.679218292236328 17.69680023193359 4.018787384033203 C 14.63675308227539 5.313079833984375 11.88811111450195 7.166397094726562 9.527259826660156 9.527259826660156 C 7.166400909423828 11.88811874389648 5.313079833984375 14.63675689697266 4.018791198730469 17.69681930541992 C 2.679222106933594 20.86391830444336 2 24.2293586730957 2 27.69967842102051 C 2 31.16999816894531 2.679222106933594 34.53543853759766 4.018791198730469 37.70253753662109 C 5.313079833984375 40.76259613037109 7.166400909423828 43.51123809814453 9.527259826660156 45.87209701538086 C 11.88811111450195 48.23295974731445 14.63675308227539 50.08627700805664 17.69680023193359 51.38056945800781 C 20.8639030456543 52.72013854980469 24.22934150695801 53.39935684204102 27.69965171813965 53.39935684204102 C 31.16996192932129 53.39935684204102 34.535400390625 52.72013854980469 37.70249938964844 51.38056945800781 C 40.76255035400391 50.08627700805664 43.51119232177734 48.23295974731445 45.87203979492188 45.87209701538086 C 48.23290252685547 43.51123809814453 50.08621978759766 40.76259613037109 51.38051223754883 37.70253753662109 C 52.7200813293457 34.53543853759766 53.3993034362793 31.16999816894531 53.3993034362793 27.69967842102051 C 53.3993034362793 24.2293586730957 52.7200813293457 20.86391830444336 51.38051223754883 17.69681930541992 C 50.08621978759766 14.63675689697266 48.23290252685547 11.88811874389648 45.87203979492188 9.527259826660156 C 43.51119232177734 7.166397094726562 40.76255035400391 5.313079833984375 37.70249938964844 4.018787384033203 C 34.535400390625 2.679218292236328 31.16996192932129 2 27.69965171813965 2 M 27.69965171813965 0 C 42.99774169921875 0 55.3993034362793 12.40156936645508 55.3993034362793 27.69967842102051 C 55.3993034362793 42.99778747558594 42.99774169921875 55.39935684204102 27.69965171813965 55.39935684204102 C 12.40156173706055 55.39935684204102 0 42.99778747558594 0 27.69967842102051 C 0 12.40156936645508 12.40156173706055 0 27.69965171813965 0 Z" stroke="none" fill="#fff"/>
        </g>
        <g id="window_icon" data-name="window icon" transform="translate(15.688 15.198)">
          <path id="Path_70" data-name="Path 70" d="M48.257,32.576H47.52V10.426A.422.422,0,0,0,47.1,10H26.727a.423.423,0,0,0-.418.426V32.576h-.9a.41.41,0,0,0-.41.41v1.808a.41.41,0,0,0,.41.41H48.257a.41.41,0,0,0,.41-.41V32.986A.41.41,0,0,0,48.257,32.576Zm-11.275,0,.11-10.2H46.9v10.2ZM46.9,21.764H37.1l.12-11.149h9.687ZM36.6,10.615l-.12,11.149h-9.56V10.615Zm-9.68,11.764h9.554l-.11,10.2H26.923Zm21.129,12.21H25.615v-1.4H48.052Z" transform="translate(-25 -10)" fill="#fff" stroke="#fff" stroke-width="1"/>
        </g>
      </g>
      <g id="Group_65" data-name="Group 65" transform="translate(77.7 2053.793)">
        <text id="Video_Surveillance" data-name="Video Surveillance" transform="translate(0.3 70.207)" fill="#fff" font-size="10" font-family="HelveticaNeue, Helvetica Neue"><tspan x="0" y="10">Video Surveillance</tspan></text>
        <g id="Group_15" data-name="Group 15" transform="translate(7.242)">
          <g id="cctv" transform="translate(15.198 15.198)">
            <path id="Path_64" data-name="Path 64" d="M145.039,437.855a6.47,6.47,0,0,1-9.165,0,.721.721,0,1,0-1.018,1.018,7.907,7.907,0,0,0,11.2,0,.721.721,0,0,0-1.018-1.018Z" transform="translate(-128.159 -416.604)" fill="#fff"/>
            <path id="Path_65" data-name="Path 65" d="M177.584,395.784a.716.716,0,0,0,0,1.018,5.034,5.034,0,0,0,7.129,0,.721.721,0,0,0-1.018-1.018,3.593,3.593,0,0,1-5.092,0,.715.715,0,0,0-1.018,0Z" transform="translate(-168.851 -376.57)" fill="#fff"/>
            <path id="Path_66" data-name="Path 66" d="M223.423,354.786a.721.721,0,0,0-1.018-1.018.72.72,0,0,1-1.018,0,.721.721,0,0,0-1.018,1.018,2.157,2.157,0,0,0,3.055,0Z" transform="translate(-209.598 -336.59)" fill="#fff"/>
            <path id="Path_67" data-name="Path 67" d="M23.874,0H.721A.721.721,0,0,0,0,.721V2.21A2.162,2.162,0,0,0,1.441,4.246v.845a10.856,10.856,0,1,0,21.712,0V4.246A2.162,2.162,0,0,0,24.594,2.21V.721A.721.721,0,0,0,23.874,0ZM12.3,14.507A9.424,9.424,0,0,1,2.882,5.092V4.371H8.694V9.463a3.6,3.6,0,1,0,7.205,0V4.371h5.812v.721A9.424,9.424,0,0,1,12.3,14.507ZM14.459,4.371v2.21a3.6,3.6,0,0,0-4.323,0V4.371Zm0,5.092A2.162,2.162,0,1,1,12.3,7.3,2.162,2.162,0,0,1,14.459,9.463ZM23.153,2.21a.721.721,0,0,1-.721.721H2.162a.721.721,0,0,1-.721-.721V1.441H23.153Z" transform="translate(0)" fill="#fff"/>
            <ellipse id="Ellipse_2" data-name="Ellipse 2" cx="0.82" cy="0.717" rx="0.82" ry="0.717" transform="translate(11.479 8.812)" fill="#fff"/>
          </g>
          <g id="Group_9" data-name="Group 9">
            <g id="Path_5-2" data-name="Path 5" fill="none">
              <path d="M27.7,0A27.7,27.7,0,1,1,0,27.7,27.7,27.7,0,0,1,27.7,0Z" stroke="none"/>
              <path d="M 27.69965171813965 2 C 24.22934150695801 2 20.8639030456543 2.679218292236328 17.69680023193359 4.018787384033203 C 14.63675308227539 5.313079833984375 11.88811111450195 7.166397094726562 9.527259826660156 9.527259826660156 C 7.166400909423828 11.88811874389648 5.313079833984375 14.63675689697266 4.018791198730469 17.69681930541992 C 2.679222106933594 20.86391830444336 2 24.2293586730957 2 27.69967842102051 C 2 31.16999816894531 2.679222106933594 34.53543853759766 4.018791198730469 37.70253753662109 C 5.313079833984375 40.76259613037109 7.166400909423828 43.51123809814453 9.527259826660156 45.87209701538086 C 11.88811111450195 48.23295974731445 14.63675308227539 50.08627700805664 17.69680023193359 51.38056945800781 C 20.8639030456543 52.72013854980469 24.22934150695801 53.39935684204102 27.69965171813965 53.39935684204102 C 31.16996192932129 53.39935684204102 34.535400390625 52.72013854980469 37.70249938964844 51.38056945800781 C 40.76255035400391 50.08627700805664 43.51119232177734 48.23295974731445 45.87203979492188 45.87209701538086 C 48.23290252685547 43.51123809814453 50.08621978759766 40.76259613037109 51.38051223754883 37.70253753662109 C 52.7200813293457 34.53543853759766 53.3993034362793 31.16999816894531 53.3993034362793 27.69967842102051 C 53.3993034362793 24.2293586730957 52.7200813293457 20.86391830444336 51.38051223754883 17.69681930541992 C 50.08621978759766 14.63675689697266 48.23290252685547 11.88811874389648 45.87203979492188 9.527259826660156 C 43.51119232177734 7.166397094726562 40.76255035400391 5.313079833984375 37.70249938964844 4.018787384033203 C 34.535400390625 2.679218292236328 31.16996192932129 2 27.69965171813965 2 M 27.69965171813965 0 C 42.99774169921875 0 55.3993034362793 12.40156936645508 55.3993034362793 27.69967842102051 C 55.3993034362793 42.99778747558594 42.99774169921875 55.39935684204102 27.69965171813965 55.39935684204102 C 12.40156173706055 55.39935684204102 0 42.99778747558594 0 27.69967842102051 C 0 12.40156936645508 12.40156173706055 0 27.69965171813965 0 Z" stroke="none" fill="#fff"/>
            </g>
          </g>
        </g>
      </g>
      <g id="Group_63" data-name="Group 63" transform="translate(85.808 2171)">
        <text id="Loks_Doors" data-name="Loks Doors" transform="translate(2.09 71.296)" fill="#fff" font-size="10" font-family="HelveticaNeue, Helvetica Neue"><tspan x="0" y="10">Loks Doors</tspan></text>
        <g id="Group_13" data-name="Group 13" transform="translate(0)">
          <g id="Group_7" data-name="Group 7">
            <g id="Path_5-3" data-name="Path 5" fill="none">
              <path d="M27.7,0A27.7,27.7,0,1,1,0,27.7,27.7,27.7,0,0,1,27.7,0Z" stroke="none"/>
              <path d="M 27.69965171813965 2 C 24.22934150695801 2 20.8639030456543 2.679218292236328 17.69680023193359 4.018787384033203 C 14.63675308227539 5.313079833984375 11.88811111450195 7.166397094726562 9.527259826660156 9.527259826660156 C 7.166400909423828 11.88811874389648 5.313079833984375 14.63675689697266 4.018791198730469 17.69681930541992 C 2.679222106933594 20.86391830444336 2 24.2293586730957 2 27.69967842102051 C 2 31.16999816894531 2.679222106933594 34.53543853759766 4.018791198730469 37.70253753662109 C 5.313079833984375 40.76259613037109 7.166400909423828 43.51123809814453 9.527259826660156 45.87209701538086 C 11.88811111450195 48.23295974731445 14.63675308227539 50.08627700805664 17.69680023193359 51.38056945800781 C 20.8639030456543 52.72013854980469 24.22934150695801 53.39935684204102 27.69965171813965 53.39935684204102 C 31.16996192932129 53.39935684204102 34.535400390625 52.72013854980469 37.70249938964844 51.38056945800781 C 40.76255035400391 50.08627700805664 43.51119232177734 48.23295974731445 45.87203979492188 45.87209701538086 C 48.23290252685547 43.51123809814453 50.08621978759766 40.76259613037109 51.38051223754883 37.70253753662109 C 52.7200813293457 34.53543853759766 53.3993034362793 31.16999816894531 53.3993034362793 27.69967842102051 C 53.3993034362793 24.2293586730957 52.7200813293457 20.86391830444336 51.38051223754883 17.69681930541992 C 50.08621978759766 14.63675689697266 48.23290252685547 11.88811874389648 45.87203979492188 9.527259826660156 C 43.51119232177734 7.166397094726562 40.76255035400391 5.313079833984375 37.70249938964844 4.018787384033203 C 34.535400390625 2.679218292236328 31.16996192932129 2 27.69965171813965 2 M 27.69965171813965 0 C 42.99774169921875 0 55.3993034362793 12.40156936645508 55.3993034362793 27.69967842102051 C 55.3993034362793 42.99778747558594 42.99774169921875 55.39935684204102 27.69965171813965 55.39935684204102 C 12.40156173706055 55.39935684204102 0 42.99778747558594 0 27.69967842102051 C 0 12.40156936645508 12.40156173706055 0 27.69965171813965 0 Z" stroke="none" fill="#fff"/>
            </g>
          </g>
          <g id="door" transform="translate(19.12 11.276)">
            <path id="Path_75" data-name="Path 75" d="M144.384,8H128.528a.528.528,0,0,0-.528.529v31.71a.528.528,0,0,0,.528.529h15.855a.529.529,0,0,0,.529-.529V8.529A.529.529,0,0,0,144.384,8Zm-.529,31.71h-14.8V9.057h14.8Z" transform="translate(-128 -8)" fill="#fff" stroke="#fff" stroke-width="1"/>
            <path id="Path_76" data-name="Path 76" d="M304.6,194.747h2.388a.6.6,0,0,0,.6-.6V184.6a.6.6,0,0,0-.6-.6H304.6a.6.6,0,0,0-.6.6v9.553A.6.6,0,0,0,304.6,194.747Zm.6-9.553h1.194v8.359h-1.194Z" transform="translate(-293.059 -172.99)" fill="#fff"/>
          </g>
        </g>
      </g>
      <g id="Group_64" data-name="Group 64" transform="translate(210.507 2085.771)">
        <g id="Group_50" data-name="Group 50" transform="translate(0)">
          <text id="Smart_Climate_Control" data-name="Smart Climate Control" transform="translate(0 36.505)" fill="#fff" font-size="10" font-family="HelveticaNeue, Helvetica Neue"><tspan x="0" y="10">Smart Climate Control</tspan></text>
          <g id="Group_14" data-name="Group 14" transform="translate(22.283 -32)">
            <g id="Group_8" data-name="Group 8">
              <g id="Path_5-4" data-name="Path 5" fill="none">
                <path d="M27.7,0A27.7,27.7,0,1,1,0,27.7,27.7,27.7,0,0,1,27.7,0Z" stroke="none"/>
                <path d="M 27.69965171813965 2 C 24.22934150695801 2 20.8639030456543 2.679218292236328 17.69680023193359 4.018787384033203 C 14.63675308227539 5.313079833984375 11.88811111450195 7.166397094726562 9.527259826660156 9.527259826660156 C 7.166400909423828 11.88811874389648 5.313079833984375 14.63675689697266 4.018791198730469 17.69681930541992 C 2.679222106933594 20.86391830444336 2 24.2293586730957 2 27.69967842102051 C 2 31.16999816894531 2.679222106933594 34.53543853759766 4.018791198730469 37.70253753662109 C 5.313079833984375 40.76259613037109 7.166400909423828 43.51123809814453 9.527259826660156 45.87209701538086 C 11.88811111450195 48.23295974731445 14.63675308227539 50.08627700805664 17.69680023193359 51.38056945800781 C 20.8639030456543 52.72013854980469 24.22934150695801 53.39935684204102 27.69965171813965 53.39935684204102 C 31.16996192932129 53.39935684204102 34.535400390625 52.72013854980469 37.70249938964844 51.38056945800781 C 40.76255035400391 50.08627700805664 43.51119232177734 48.23295974731445 45.87203979492188 45.87209701538086 C 48.23290252685547 43.51123809814453 50.08621978759766 40.76259613037109 51.38051223754883 37.70253753662109 C 52.7200813293457 34.53543853759766 53.3993034362793 31.16999816894531 53.3993034362793 27.69967842102051 C 53.3993034362793 24.2293586730957 52.7200813293457 20.86391830444336 51.38051223754883 17.69681930541992 C 50.08621978759766 14.63675689697266 48.23290252685547 11.88811874389648 45.87203979492188 9.527259826660156 C 43.51119232177734 7.166397094726562 40.76255035400391 5.313079833984375 37.70249938964844 4.018787384033203 C 34.535400390625 2.679218292236328 31.16996192932129 2 27.69965171813965 2 M 27.69965171813965 0 C 42.99774169921875 0 55.3993034362793 12.40156936645508 55.3993034362793 27.69967842102051 C 55.3993034362793 42.99778747558594 42.99774169921875 55.39935684204102 27.69965171813965 55.39935684204102 C 12.40156173706055 55.39935684204102 0 42.99778747558594 0 27.69967842102051 C 0 12.40156936645508 12.40156173706055 0 27.69965171813965 0 Z" stroke="none" fill="#fff"/>
              </g>
            </g>
            <g id="Layer_2" data-name="Layer 2" transform="translate(15.688 12.747)">
              <g id="secure">
                <g id="temperate">
                  <path id="Path_83" data-name="Path 83" d="M37.252,14H34.764a.434.434,0,0,0,0,.857h2.488a.434.434,0,0,0,0-.857Z" transform="translate(-13.829 -4.357)" fill="#fff" stroke="#fff" stroke-miterlimit="10" stroke-width="1"/>
                  <path id="Path_84" data-name="Path 84" d="M34.764,9.957h1.153a.429.429,0,0,0,0-.857H34.764a.434.434,0,0,0,0,.857Z" transform="translate(-13.829 -2.957)" fill="#fff" stroke="#fff" stroke-miterlimit="10" stroke-width="1"/>
                  <path id="Path_85" data-name="Path 85" d="M34.764,5.057h1.517a.453.453,0,0,0,.425-.429.453.453,0,0,0-.425-.429H34.764a.4.4,0,0,0-.364.429A.4.4,0,0,0,34.764,5.057Z" transform="translate(-13.829 -1.557)" fill="#fff" stroke="#fff" stroke-miterlimit="10" stroke-width="1"/>
                  <path id="Path_86" data-name="Path 86" d="M36.281,23.8H34.764a.434.434,0,0,0,0,.857h1.517a.434.434,0,0,0,0-.857Z" transform="translate(-13.829 -7.156)" fill="#fff" stroke="#fff" stroke-miterlimit="10" stroke-width="1"/>
                  <path id="Path_87" data-name="Path 87" d="M34.764,19.757h1.153a.434.434,0,0,0,0-.857H34.764a.434.434,0,0,0,0,.857Z" transform="translate(-13.829 -5.756)" fill="#fff" stroke="#fff" stroke-miterlimit="10" stroke-width="1"/>
                  <path id="Path_88" data-name="Path 88" d="M25.435,18.358V4.429a3.825,3.825,0,1,0-7.647,0V18.358A6.507,6.507,0,0,0,15.3,23.5,6.437,6.437,0,0,0,21.612,30a6.488,6.488,0,0,0,6.372-6.5,6.558,6.558,0,0,0-2.549-5.143ZM21.612,29.145A5.527,5.527,0,0,1,16.15,23.5a5.643,5.643,0,0,1,2.306-4.572.369.369,0,0,0,.182-.357V4.429a2.975,2.975,0,1,1,5.948,0V18.573a.369.369,0,0,0,.182.357A5.77,5.77,0,0,1,27.134,23.5,5.577,5.577,0,0,1,21.612,29.145Z" transform="translate(-6.321 -0.5)" fill="#fff" stroke="#fff" stroke-miterlimit="10" stroke-width="1"/>
                  <path id="Path_89" data-name="Path 89" d="M9.544,10.518a.614.614,0,0,0,.364-1.143,1.087,1.087,0,0,1,0-1.786.575.575,0,0,0-.364-1.071.85.85,0,0,1-.866-.409,1.23,1.23,0,0,1-.105-1.091A.6.6,0,0,0,7.6,4.375a.914.914,0,0,1-.948.226,1.134,1.134,0,0,1-.69-.8.625.625,0,0,0-.577-.491.625.625,0,0,0-.577.491,1.186,1.186,0,0,1-.726.8.966.966,0,0,1-.973-.224.567.567,0,0,0-.91.643A1.306,1.306,0,0,1,2.035,6.1a.907.907,0,0,1-.866.416A.575.575,0,0,0,.805,7.589a1.087,1.087,0,0,1,0,1.786.614.614,0,0,0,.364,1.143A1.063,1.063,0,0,1,2.2,11.947a.582.582,0,0,0,.91.714.966.966,0,0,1,.973-.224,1.186,1.186,0,0,1,.726.8.625.625,0,0,0,.577.491.625.625,0,0,0,.577-.491,1.134,1.134,0,0,1,.69-.8.914.914,0,0,1,.948.226.617.617,0,0,0,.971-.714,1.226,1.226,0,0,1,.145-1.035A.85.85,0,0,1,9.544,10.518ZM9,9.732a1.862,1.862,0,0,0-1.4,1.929,1.884,1.884,0,0,0-2.245.786,1.884,1.884,0,0,0-2.245-.786,1.862,1.862,0,0,0-1.4-1.929,2.024,2.024,0,0,0,0-2.429,1.946,1.946,0,0,0,1.4-2,1.768,1.768,0,0,0,2.245-.714A1.768,1.768,0,0,0,7.6,5.3,1.946,1.946,0,0,0,9,7.3,2.024,2.024,0,0,0,9,9.732Z" transform="translate(-0.504 -1.303)" fill="#fff" stroke="#fff" stroke-miterlimit="10" stroke-width="1"/>
                  <path id="Path_90" data-name="Path 90" d="M7.006,7.3a1.926,1.926,0,0,0-1.578.6A2.687,2.687,0,0,0,4.7,9.653a2.336,2.336,0,0,0,2.306,2.357,2.357,2.357,0,1,0,0-4.715Zm0,3.857a1.5,1.5,0,0,1,0-3,1.262,1.262,0,0,1,1.024.378,1.752,1.752,0,0,1,.493,1.122,1.752,1.752,0,0,1-.493,1.122A1.262,1.262,0,0,1,7.006,11.154Z" transform="translate(-2.154 -2.439)" fill="#fff" stroke="#fff" stroke-miterlimit="10" stroke-width="1"/>
                </g>
              </g>
            </g>
          </g>
        </g>
      </g>
      <g id="Group_48" data-name="Group 48" transform="translate(152.529 1956.04)">
        <text id="Smart_Lighting" data-name="Smart Lighting" transform="translate(0 68.13)" fill="#fff" font-size="10" font-family="HelveticaNeue, Helvetica Neue"><tspan x="0" y="10">Smart Lighting</tspan></text>
        <g id="Group_11" data-name="Group 11" transform="translate(5.493)">
          <g id="Group_10" data-name="Group 10">
            <g id="Path_5-5" data-name="Path 5" fill="none">
              <path d="M27.7,0A27.7,27.7,0,1,1,0,27.7,27.7,27.7,0,0,1,27.7,0Z" stroke="none"/>
              <path d="M 27.69965171813965 2 C 24.22934150695801 2 20.8639030456543 2.679218292236328 17.69680023193359 4.018787384033203 C 14.63675308227539 5.313079833984375 11.88811111450195 7.166397094726562 9.527259826660156 9.527259826660156 C 7.166400909423828 11.88811874389648 5.313079833984375 14.63675689697266 4.018791198730469 17.69681930541992 C 2.679222106933594 20.86391830444336 2 24.2293586730957 2 27.69967842102051 C 2 31.16999816894531 2.679222106933594 34.53543853759766 4.018791198730469 37.70253753662109 C 5.313079833984375 40.76259613037109 7.166400909423828 43.51123809814453 9.527259826660156 45.87209701538086 C 11.88811111450195 48.23295974731445 14.63675308227539 50.08627700805664 17.69680023193359 51.38056945800781 C 20.8639030456543 52.72013854980469 24.22934150695801 53.39935684204102 27.69965171813965 53.39935684204102 C 31.16996192932129 53.39935684204102 34.535400390625 52.72013854980469 37.70249938964844 51.38056945800781 C 40.76255035400391 50.08627700805664 43.51119232177734 48.23295974731445 45.87203979492188 45.87209701538086 C 48.23290252685547 43.51123809814453 50.08621978759766 40.76259613037109 51.38051223754883 37.70253753662109 C 52.7200813293457 34.53543853759766 53.3993034362793 31.16999816894531 53.3993034362793 27.69967842102051 C 53.3993034362793 24.2293586730957 52.7200813293457 20.86391830444336 51.38051223754883 17.69681930541992 C 50.08621978759766 14.63675689697266 48.23290252685547 11.88811874389648 45.87203979492188 9.527259826660156 C 43.51119232177734 7.166397094726562 40.76255035400391 5.313079833984375 37.70249938964844 4.018787384033203 C 34.535400390625 2.679218292236328 31.16996192932129 2 27.69965171813965 2 M 27.69965171813965 0 C 42.99774169921875 0 55.3993034362793 12.40156936645508 55.3993034362793 27.69967842102051 C 55.3993034362793 42.99778747558594 42.99774169921875 55.39935684204102 27.69965171813965 55.39935684204102 C 12.40156173706055 55.39935684204102 0 42.99778747558594 0 27.69967842102051 C 0 12.40156936645508 12.40156173706055 0 27.69965171813965 0 Z" stroke="none" fill="#fff"/>
            </g>
          </g>
          <g id="Layer_2-2" data-name="Layer 2" transform="translate(14.218 12.747)">
            <g id="thermostat_2_Image" data-name="thermostat 2 Image">
              <g id="room_option" data-name="room option">
                <g id="light">
                  <path id="Path_99" data-name="Path 99" d="M73.844,18.833a6.937,6.937,0,0,0,1.716-4.55A7.31,7.31,0,0,0,73.1,8.837,8.727,8.727,0,0,0,67.131,6.6a8.877,8.877,0,0,0-5.744,2.238A7.609,7.609,0,0,0,59,14.208a7.459,7.459,0,0,0,1.716,4.7,11.935,11.935,0,0,1,2.76,7.609v2.909a2.536,2.536,0,0,0,2.611,2.387h2.387a2.462,2.462,0,0,0,2.536-2.387V26.516a12.084,12.084,0,0,1,2.835-7.683Zm-12.308-.522a6.49,6.49,0,0,1-1.492-4.1,7.055,7.055,0,0,1,7.086-6.639,7.832,7.832,0,0,1,5.222,1.939,6.564,6.564,0,0,1,2.089,4.774,6.34,6.34,0,0,1-1.417,4.028,12.979,12.979,0,0,0-3.058,7.981H64.594a12.979,12.979,0,0,0-3.058-7.981Zm3.058,10.816v-.448l5.371.6v.373Zm0-1.417v-.448h5.371v1.044Zm1.492,3.133a1.566,1.566,0,0,1-1.343-.746l4.55.522a1.492,1.492,0,0,1-.821.224Z" transform="translate(-54.002 -2.049)" fill="#fff"/>
                  <path id="Path_100" data-name="Path 100" d="M62.718,17.443a3.058,3.058,0,0,1-.075-.821.522.522,0,0,0-1.044,0,3.655,3.655,0,0,0,.075.9c0,.3.224.448.522.448h.075a.671.671,0,0,0,.448-.522Z" transform="translate(-54.662 -4.463)" fill="#fff"/>
                  <path id="Path_101" data-name="Path 101" d="M77.021,19.088a.522.522,0,0,0-.671.3,3.8,3.8,0,0,1-.671.97.522.522,0,0,0,.149.671l.3.149a.671.671,0,0,0,.448-.224,6.416,6.416,0,0,0,.746-1.193C77.468,19.461,77.319,19.238,77.021,19.088Z" transform="translate(-58.223 -5.214)" fill="#fff"/>
                  <path id="Path_102" data-name="Path 102" d="M69.922,4.23a.522.522,0,0,0,.522-.522V1.022a.522.522,0,0,0-1.044,0V3.708A.522.522,0,0,0,69.922,4.23Z" transform="translate(-56.645 -0.5)" fill="#fff"/>
                  <path id="Path_103" data-name="Path 103" d="M62.366,5.762a.522.522,0,0,0,.448.224h.3a.522.522,0,0,0,.149-.671L61.769,2.927a.522.522,0,0,0-.671-.149.448.448,0,0,0-.224.671Z" transform="translate(-54.459 -1.063)" fill="#fff"/>
                  <path id="Path_104" data-name="Path 104" d="M84.066,23.818,81.53,22.476a.6.6,0,0,0-.746.149.522.522,0,0,0,.224.671l2.536,1.417h.3a.522.522,0,0,0,.448-.224.448.448,0,0,0-.224-.671Z" transform="translate(-59.525 -6.065)" fill="#fff"/>
                  <path id="Path_105" data-name="Path 105" d="M54.814,9.3l2.536,1.417h.3a.6.6,0,0,0,.448-.3.522.522,0,0,0-.149-.671L55.336,8.476a.6.6,0,0,0-.746.149C54.516,8.923,54.59,9.222,54.814,9.3Z" transform="translate(-52.875 -2.508)" fill="#fff"/>
                  <path id="Path_106" data-name="Path 106" d="M86.006,16.3H83.022a.486.486,0,1,0,0,.97h2.984a.486.486,0,1,0,0-.97Z" transform="translate(-59.973 -4.514)" fill="#fff"/>
                  <path id="Path_107" data-name="Path 107" d="M56.328,16.822a.6.6,0,0,0-.6-.522H52.822a.486.486,0,1,0,0,.97h2.909C56.03,17.27,56.328,17.046,56.328,16.822Z" transform="translate(-52.3 -4.514)" fill="#fff"/>
                  <path id="Path_108" data-name="Path 108" d="M81.306,10.814h.224L84.066,9.4c.3-.075.373-.373.224-.671a.6.6,0,0,0-.746-.149L81.008,9.918a.522.522,0,0,0-.224.671.746.746,0,0,0,.522.3Z" transform="translate(-59.525 -2.534)" fill="#fff"/>
                  <path id="Path_109" data-name="Path 109" d="M57.35,22.476l-2.536,1.343a.6.6,0,0,0-.224.671.671.671,0,0,0,.522.224h.224L57.947,23.3a.522.522,0,0,0,.149-.671A.6.6,0,0,0,57.35,22.476Z" transform="translate(-52.874 -6.065)" fill="#fff"/>
                  <path id="Path_110" data-name="Path 110" d="M76.2,5.858h.224a.671.671,0,0,0,.522-.224l1.417-2.387a.522.522,0,0,0-.149-.671.6.6,0,0,0-.746.149L75.974,5.186a.448.448,0,0,0,.224.671Z" transform="translate(-58.296 -1.009)" fill="#fff"/>
                </g>
              </g>
            </g>
          </g>
        </g>
      </g>
      <g id="Group_66" data-name="Group 66" transform="translate(207.883 2167)">
        <text id="Media_Music_Control" data-name="Media &amp; Music Control" transform="translate(0.309 64.351)" fill="#fff" font-size="10" font-family="HelveticaNeue, Helvetica Neue"><tspan x="7.34" y="10">Media &amp; Music </tspan><tspan x="24.11" y="22">Control</tspan></text>
        <g id="Group_12" data-name="Group 12" transform="translate(11.515)">
          <g id="Group_10-2" data-name="Group 10">
            <g id="Path_5-6" data-name="Path 5" fill="none">
              <path d="M27.7,0A27.7,27.7,0,1,1,0,27.7,27.7,27.7,0,0,1,27.7,0Z" stroke="none"/>
              <path d="M 27.69965171813965 2 C 24.22934150695801 2 20.8639030456543 2.679218292236328 17.69680023193359 4.018787384033203 C 14.63675308227539 5.313079833984375 11.88811111450195 7.166397094726562 9.527259826660156 9.527259826660156 C 7.166400909423828 11.88811874389648 5.313079833984375 14.63675689697266 4.018791198730469 17.69681930541992 C 2.679222106933594 20.86391830444336 2 24.2293586730957 2 27.69967842102051 C 2 31.16999816894531 2.679222106933594 34.53543853759766 4.018791198730469 37.70253753662109 C 5.313079833984375 40.76259613037109 7.166400909423828 43.51123809814453 9.527259826660156 45.87209701538086 C 11.88811111450195 48.23295974731445 14.63675308227539 50.08627700805664 17.69680023193359 51.38056945800781 C 20.8639030456543 52.72013854980469 24.22934150695801 53.39935684204102 27.69965171813965 53.39935684204102 C 31.16996192932129 53.39935684204102 34.535400390625 52.72013854980469 37.70249938964844 51.38056945800781 C 40.76255035400391 50.08627700805664 43.51119232177734 48.23295974731445 45.87203979492188 45.87209701538086 C 48.23290252685547 43.51123809814453 50.08621978759766 40.76259613037109 51.38051223754883 37.70253753662109 C 52.7200813293457 34.53543853759766 53.3993034362793 31.16999816894531 53.3993034362793 27.69967842102051 C 53.3993034362793 24.2293586730957 52.7200813293457 20.86391830444336 51.38051223754883 17.69681930541992 C 50.08621978759766 14.63675689697266 48.23290252685547 11.88811874389648 45.87203979492188 9.527259826660156 C 43.51119232177734 7.166397094726562 40.76255035400391 5.313079833984375 37.70249938964844 4.018787384033203 C 34.535400390625 2.679218292236328 31.16996192932129 2 27.69965171813965 2 M 27.69965171813965 0 C 42.99774169921875 0 55.3993034362793 12.40156936645508 55.3993034362793 27.69967842102051 C 55.3993034362793 42.99778747558594 42.99774169921875 55.39935684204102 27.69965171813965 55.39935684204102 C 12.40156173706055 55.39935684204102 0 42.99778747558594 0 27.69967842102051 C 0 12.40156936645508 12.40156173706055 0 27.69965171813965 0 Z" stroke="none" fill="#fff"/>
            </g>
          </g>
        </g>
        <g id="video-player" transform="translate(25.242 16.782)">
          <path id="Path_111" data-name="Path 111" d="M30.146,24.508l-5.393-3.432A.49.49,0,0,0,24,21.49v6.864a.491.491,0,0,0,.754.414l5.393-3.432a.491.491,0,0,0,0-.828Zm-5.166,2.953V22.383l3.989,2.539Z" transform="translate(-12.234 -13.646)" fill="#fff"/>
          <path id="Path_112" data-name="Path 112" d="M27.945,6H.49A.49.49,0,0,0,0,6.49V28.062a.49.49,0,0,0,.49.49H27.945a.49.49,0,0,0,.49-.49V6.49A.49.49,0,0,0,27.945,6ZM4.9,16.786H.981V12.373H4.9Zm-3.922.981H4.9v4.412H.981Zm4.9,4.9V6.981H22.552V27.571H5.883Zm21.571-5.883H23.532V12.373h3.922Zm-3.922.981h3.922v4.412H23.532ZM27.455,6.981v4.412H23.532V6.981Zm-26.474,0H4.9v4.412H.981Zm0,20.591V23.159H4.9v4.412Zm26.474,0H23.532V23.159h3.922Z" transform="translate(0 -6)" fill="#fff"/>
        </g>
      </g>
      <g id="Group_52" data-name="Group 52" transform="translate(260 1955.874)">
        <text id="Smart_Lighting-2" data-name="Smart Lighting" transform="translate(0 64.032)" fill="#fff" font-size="10" font-family="HelveticaNeue, Helvetica Neue"><tspan x="7.761" y="10">Smart Lighting</tspan></text>
        <g id="LOgo" transform="translate(13.236)">
          <g id="Path_5-7" data-name="Path 5" fill="none">
            <path d="M27.7,0A27.7,27.7,0,1,1,0,27.7,27.7,27.7,0,0,1,27.7,0Z" stroke="none"/>
            <path d="M 27.69965171813965 2 C 24.22934150695801 2 20.8639030456543 2.679218292236328 17.69680023193359 4.018787384033203 C 14.63675308227539 5.313079833984375 11.88811111450195 7.166397094726562 9.527259826660156 9.527259826660156 C 7.166400909423828 11.88811874389648 5.313079833984375 14.63675689697266 4.018791198730469 17.69681930541992 C 2.679222106933594 20.86391830444336 2 24.2293586730957 2 27.69967842102051 C 2 31.16999816894531 2.679222106933594 34.53543853759766 4.018791198730469 37.70253753662109 C 5.313079833984375 40.76259613037109 7.166400909423828 43.51123809814453 9.527259826660156 45.87209701538086 C 11.88811111450195 48.23295974731445 14.63675308227539 50.08627700805664 17.69680023193359 51.38056945800781 C 20.8639030456543 52.72013854980469 24.22934150695801 53.39935684204102 27.69965171813965 53.39935684204102 C 31.16996192932129 53.39935684204102 34.535400390625 52.72013854980469 37.70249938964844 51.38056945800781 C 40.76255035400391 50.08627700805664 43.51119232177734 48.23295974731445 45.87203979492188 45.87209701538086 C 48.23290252685547 43.51123809814453 50.08621978759766 40.76259613037109 51.38051223754883 37.70253753662109 C 52.7200813293457 34.53543853759766 53.3993034362793 31.16999816894531 53.3993034362793 27.69967842102051 C 53.3993034362793 24.2293586730957 52.7200813293457 20.86391830444336 51.38051223754883 17.69681930541992 C 50.08621978759766 14.63675689697266 48.23290252685547 11.88811874389648 45.87203979492188 9.527259826660156 C 43.51119232177734 7.166397094726562 40.76255035400391 5.313079833984375 37.70249938964844 4.018787384033203 C 34.535400390625 2.679218292236328 31.16996192932129 2 27.69965171813965 2 M 27.69965171813965 0 C 42.99774169921875 0 55.3993034362793 12.40156936645508 55.3993034362793 27.69967842102051 C 55.3993034362793 42.99778747558594 42.99774169921875 55.39935684204102 27.69965171813965 55.39935684204102 C 12.40156173706055 55.39935684204102 0 42.99778747558594 0 27.69967842102051 C 0 12.40156936645508 12.40156173706055 0 27.69965171813965 0 Z" stroke="none" fill="#fff"/>
          </g>
        </g>
        <g id="Layer_2-3" data-name="Layer 2" transform="translate(29.905 13.237)">
          <g id="thermostat_2_Image-2" data-name="thermostat 2 Image">
            <g id="secure-2" data-name="secure">
              <path id="Path_113" data-name="Path 113" d="M22.116,5.88,11.309.1h-.5L.251,5.88A.5.5,0,0,0,0,6.32v7.54A15.456,15.456,0,0,0,9.362,28.122l1.445.628h.44l1.634-.691a15.456,15.456,0,0,0,9.55-14.325V6.32A.5.5,0,0,0,22.116,5.88Zm-.754,7.854a14.451,14.451,0,0,1-8.922,13.32h0L11,27.683,9.8,27.18A14.577,14.577,0,0,1,1.068,13.86V6.634l9.99-5.466,10.3,5.466Z" transform="translate(0 -0.1)" fill="#fff"/>
              <path id="secure-3" data-name="secure" d="M10.654,20.173a.565.565,0,1,0-.817.691l2.827,3.33a.565.565,0,0,0,.754.063l6.6-5.4a.515.515,0,0,0-.628-.817l-6.22,5.026Z" transform="translate(-3.554 -6.727)" fill="#fff"/>
            </g>
          </g>
        </g>
      </g>
      <g id="logo-2" data-name="logo" transform="translate(122.01 1820.413)">
        <g id="thermo" transform="translate(0 82.047)">
          <path id="Path_167" data-name="Path 167" d="M17.254,449.2H12.4v-.5H22.657v.5H17.784v12.9h-.531Z" transform="translate(-12.4 -447.823)" fill="#fff" stroke="#fff" stroke-width="1"/>
          <path id="Path_168" data-name="Path 168" d="M76.9,444.1h.531v5.526h.02a7.78,7.78,0,0,1,3.93-1.105c1.847,0,2.908.705,2.908,2.515v7.318h-.531v-7.2c0-1.62-.806-2.191-2.574-2.191a7.454,7.454,0,0,0-3.753,1.105v8.289H76.9Z" transform="translate(-64.226 -444.1)" fill="#fff" stroke="#fff" stroke-width="1"/>
          <path id="Path_169" data-name="Path 169" d="M128,472.626v-.21c0-3.354,1.926-4.916,4.343-4.916s3.891,1.715,3.891,4.535v.248h-7.7v.343c0,2.935,1.336,4.421,4.225,4.421a7.87,7.87,0,0,0,3.085-.61v.4a6.631,6.631,0,0,1-3.144.667C129.572,477.5,128,475.828,128,472.626Zm.55-.762h7.113c0-2.439-1.022-3.925-3.341-3.925C130.319,467.938,128.727,469.2,128.55,471.864Z" transform="translate(-105.284 -463.041)" fill="#fff" stroke="#fff" stroke-width="1"/>
          <path id="Path_170" data-name="Path 170" d="M183.3,467.811h.531v1.239h.039a4.525,4.525,0,0,1,3.144-1.353,2.261,2.261,0,0,1,.57.057v.476a2.75,2.75,0,0,0-.589-.076,4.4,4.4,0,0,0-3.144,1.372v7.985h-.55Z" transform="translate(-149.718 -463.199)" fill="#fff" stroke="#fff" stroke-width="1"/>
          <path id="Path_171" data-name="Path 171" d="M218.1,467.652h.511v.953h.039a7.069,7.069,0,0,1,3.576-1.105,2.6,2.6,0,0,1,2.437,1.162h.039a7.024,7.024,0,0,1,3.753-1.162c1.651,0,2.771.705,2.771,2.554v7.3h-.511V470.13c0-1.6-.9-2.172-2.417-2.172a7.064,7.064,0,0,0-3.517,1.086,3.6,3.6,0,0,1,.138,1.01v7.3h-.531V470.13c0-1.6-.786-2.172-2.26-2.172a6.436,6.436,0,0,0-3.5,1.105v8.289H218.1Z" transform="translate(-177.68 -463.041)" fill="#fff" stroke="#fff" stroke-width="1"/>
          <path id="Path_172" data-name="Path 172" d="M298.8,472.626v-.21c0-3.258,1.906-4.916,4.362-4.916s4.4,1.582,4.4,4.878v.172c0,3.278-1.926,4.955-4.4,4.955S298.8,475.923,298.8,472.626Zm8.253-.038v-.267c0-3.106-1.631-4.383-3.891-4.383s-3.871,1.525-3.871,4.459v.286c0,3.011,1.611,4.4,3.871,4.4S307.053,475.58,307.053,472.588Z" transform="translate(-242.522 -463.041)" fill="#fff" stroke="#fff" stroke-width="1"/>
          <path id="Path_173" data-name="Path 173" d="M353.6,460.679V460.2a8.217,8.217,0,0,0,3.891.934c2.712,0,3.871-1.143,3.871-3.049s-1.238-2.611-3.144-3.2l-.884-.286c-2.437-.8-3.439-1.677-3.439-3.583s1.3-3.125,3.989-3.125a7.135,7.135,0,0,1,3.341.743v.5a6.758,6.758,0,0,0-3.36-.762c-2.319,0-3.419,1.105-3.419,2.611s.786,2.363,3.085,3.163l.865.229c2.122.724,3.537,1.467,3.537,3.678s-1.317,3.564-4.421,3.564A8.339,8.339,0,0,1,353.6,460.679Z" transform="translate(-286.554 -447.168)" fill="#fff" stroke="#fff" stroke-width="1"/>
          <path id="Path_174" data-name="Path 174" d="M407.8,472.626v-.21c0-3.354,1.906-4.916,4.323-4.916,2.712,0,3.891,1.715,3.891,4.535v.248h-7.7v.343c0,2.935,1.336,4.421,4.225,4.421a7.87,7.87,0,0,0,3.085-.61v.4a6.631,6.631,0,0,1-3.144.667C409.352,477.5,407.8,475.828,407.8,472.626Zm.55-.762h7.094c0-2.439-1.022-3.925-3.341-3.925C410.1,467.938,408.507,469.2,408.35,471.864Z" transform="translate(-330.104 -463.041)" fill="#fff" stroke="#fff" stroke-width="1"/>
          <path id="Path_175" data-name="Path 175" d="M459.7,472.607v-.21c0-3.411,1.906-4.9,4.382-4.9a5.147,5.147,0,0,1,2.83.648v.438a5.63,5.63,0,0,0-2.869-.629c-2.122,0-3.832,1.258-3.832,4.364v.267c0,2.744,1.179,4.459,3.93,4.459a5.148,5.148,0,0,0,2.908-.782v.457a4.873,4.873,0,0,1-2.987.781C461.1,477.5,459.7,475.561,459.7,472.607Z" transform="translate(-371.805 -463.041)" fill="#fff" stroke="#fff" stroke-width="1"/>
          <path id="Path_176" data-name="Path 176" d="M510.4,475.58V468.3h.53v7.222c0,1.639.865,2.172,2.594,2.172a7.29,7.29,0,0,0,3.694-1.105V468.3h.55V478h-.491l-.039-.953H517.2a7.635,7.635,0,0,1-3.793,1.105C511.52,478.152,510.4,477.409,510.4,475.58Z" transform="translate(-412.543 -463.688)" fill="#fff" stroke="#fff" stroke-width="1"/>
          <path id="Path_177" data-name="Path 177" d="M565.1,467.813h.531v1.239h.039a4.605,4.605,0,0,1,3.164-1.353,2.5,2.5,0,0,1,.57.057v.477a3.121,3.121,0,0,0-.609-.076,4.444,4.444,0,0,0-3.144,1.372v7.985h-.55Z" transform="translate(-456.494 -463.202)" fill="#fff" stroke="#fff" stroke-width="1"/>
          <path id="Path_178" data-name="Path 178" d="M596.1,472.626v-.21c0-3.354,1.926-4.916,4.323-4.916,2.711,0,3.891,1.715,3.891,4.535v.248h-7.683v.343c0,2.935,1.336,4.421,4.225,4.421a7.951,7.951,0,0,0,3.085-.61v.4a6.632,6.632,0,0,1-3.144.667C597.653,477.5,596.1,475.828,596.1,472.626Zm.55-.762h7.094c0-2.439-1.022-3.925-3.34-3.925C598.4,467.938,596.808,469.2,596.65,471.864Z" transform="translate(-481.403 -463.041)" fill="#fff" stroke="#fff" stroke-width="1"/>
          <path id="Path_179" data-name="Path 179" d="M162.2,560.361V552.3h.334v3.163h0a3.981,3.981,0,0,1,2.063-.572c1.336,0,2.319.629,2.319,2.878v.1a2.532,2.532,0,0,1-2.751,2.859A4.555,4.555,0,0,1,162.2,560.361Zm4.4-2.477v-.114c0-2.039-.806-2.63-2.1-2.63a3.774,3.774,0,0,0-1.965.591v4.44a3.712,3.712,0,0,0,1.651.3c1.415,0,2.417-.762,2.417-2.591Z" transform="translate(-132.764 -531.681)" fill="#fff" stroke="#fff" stroke-width="1"/>
          <path id="Path_180" data-name="Path 180" d="M191.6,573.937v-.229a2.048,2.048,0,0,0,.609.076c.707,0,.943-.362,1.2-.972l.432-1.105L191.5,566.6h.314L194,571.307h.02l2-4.707h.314l-2.653,6.269c-.275.705-.57,1.182-1.434,1.182A1.96,1.96,0,0,1,191.6,573.937Z" transform="translate(-156.307 -543.256)" fill="#fff" stroke="#fff" stroke-width="1"/>
          <path id="Path_181" data-name="Path 181" d="M240,555h.314v3.621h5.011V555h.314v7.832h-.314v-3.945h-5.011v3.945H240Z" transform="translate(-195.276 -533.867)" fill="#fff" stroke="#fff" stroke-width="1"/>
          <path id="Path_182" data-name="Path 182" d="M277.4,568.992v-.134c0-1.905,1.12-2.858,2.555-2.858s2.554.934,2.554,2.839v.114c0,1.906-1.12,2.878-2.554,2.878S277.4,570.9,277.4,568.992Zm4.814-.019v-.152c0-1.829-.943-2.572-2.26-2.572s-2.26.9-2.26,2.611v.153c0,1.772.943,2.572,2.26,2.572S282.214,570.726,282.214,568.973Z" transform="translate(-225.327 -542.77)" fill="#fff" stroke="#fff" stroke-width="1"/>
          <path id="Path_183" data-name="Path 183" d="M311.8,566.076h.295v.572h.02A4.076,4.076,0,0,1,314.2,566a1.481,1.481,0,0,1,1.415.667h.02a4.256,4.256,0,0,1,2.2-.667c.963,0,1.611.419,1.611,1.486v4.269h-.295v-4.23c0-.934-.531-1.258-1.4-1.258a4.1,4.1,0,0,0-2.063.629,2.4,2.4,0,0,1,.079.591v4.269h-.314v-4.23c0-.934-.452-1.258-1.317-1.258a3.733,3.733,0,0,0-2.044.648v4.84H311.8Z" transform="translate(-252.968 -542.77)" fill="#fff" stroke="#fff" stroke-width="1"/>
          <path id="Path_184" data-name="Path 184" d="M358.7,568.992v-.134c0-1.944,1.14-2.858,2.535-2.858s2.26.991,2.26,2.649v.134h-4.48v.21c0,1.715.786,2.573,2.476,2.573a4.886,4.886,0,0,0,1.788-.343v.229a3.969,3.969,0,0,1-1.827.381C359.624,571.831,358.7,570.859,358.7,568.992Zm.334-.457h4.146c0-1.41-.609-2.287-1.965-2.287S359.132,566.991,359.034,568.534Z" transform="translate(-290.652 -542.77)" fill="#fff" stroke="#fff" stroke-width="1"/>
          <path id="Path_185" data-name="Path 185" d="M389.5,558.659v-.152c0-2.573,1.277-3.907,3.478-3.907a3.819,3.819,0,0,1,1.965.419v.286a4.131,4.131,0,0,0-1.965-.438c-2,0-3.164,1.2-3.164,3.6v.21c0,2.382.943,3.64,3.026,3.64a3.9,3.9,0,0,0,2.142-.534v.286a4.125,4.125,0,0,1-2.161.533C390.581,562.6,389.5,561.213,389.5,558.659Z" transform="translate(-315.399 -533.543)" fill="#fff" stroke="#fff" stroke-width="1"/>
          <path id="Path_186" data-name="Path 186" d="M424.6,568.992v-.134c0-1.905,1.12-2.858,2.555-2.858s2.555.934,2.555,2.839v.114c0,1.906-1.12,2.878-2.555,2.878S424.6,570.9,424.6,568.992Zm4.814-.019v-.152c0-1.829-.943-2.572-2.26-2.572s-2.26.9-2.26,2.611v.153c0,1.772.943,2.572,2.26,2.572S429.414,570.726,429.414,568.973Z" transform="translate(-343.602 -542.77)" fill="#fff" stroke="#fff" stroke-width="1"/>
          <path id="Path_187" data-name="Path 187" d="M459,566.076h.295v.572h.02A4.076,4.076,0,0,1,461.4,566a1.5,1.5,0,0,1,1.415.667h.02a4.257,4.257,0,0,1,2.2-.667c.963,0,1.611.419,1.611,1.486v4.269h-.295v-4.23c0-.934-.531-1.258-1.415-1.258a4.036,4.036,0,0,0-2.044.629,2.4,2.4,0,0,1,.079.591v4.269h-.314v-4.23c0-.934-.452-1.258-1.317-1.258a3.733,3.733,0,0,0-2.044.648v4.84H459Z" transform="translate(-371.243 -542.77)" fill="#fff" stroke="#fff" stroke-width="1"/>
        </g>
        <line id="bottom_line_left" data-name="bottom line left" x1="23.089" transform="translate(0 108.173)" fill="aqua" stroke="aqua" stroke-miterlimit="10" stroke-width="2"/>
        <line id="bottom_line_right" data-name="bottom line right" x1="23.089" transform="translate(99.901 108.173)" fill="aqua" stroke="aqua" stroke-miterlimit="10" stroke-width="2"/>
        <path id="leaf" d="M289.081,212.281s-9.9-5.545-5.856-20.981c0,0,8.508.591,15.563,11.7" transform="translate(-229.227 -157.427)" fill="aqua" stroke="#fff" stroke-miterlimit="10" stroke-width="3"/>
        <ellipse id="phone_cam" data-name="phone cam" cx="0.393" cy="0.362" rx="0.393" ry="0.362" transform="translate(69.935 32.806)" fill="aqua" stroke="aqua" stroke-miterlimit="10" stroke-width="0.1"/>
        <rect id="phone_line" data-name="phone line" width="5.188" height="0.372" rx="0.186" transform="translate(71.644 32.978)" fill="aqua" stroke="aqua" stroke-miterlimit="10" stroke-width="0.2"/>
        <path id="phone" d="M356.351,189.076v-11.11a2.636,2.636,0,0,0-2.908-3.068H341.4s-3.812-.152-3.183,5.431l14.816-.229" transform="translate(-274.135 -144.15)" fill="none" stroke="#fff" stroke-miterlimit="10" stroke-width="2"/>
        <path id="main_house" data-name="main house" d="M223.479,76.326s12.655-1.124,11.5-17.856c0,0-20.338.858-20.2,12.9V84.558s.079,1.772-2.751,1.772h-22.48s-2.83.972-2.417-3.011V39.128s-.531-1.01,2.162-3.163l26.96-21.743a1.6,1.6,0,0,1,2.574,0l25.643,21.743a4.851,4.851,0,0,1,2.1,3.6V83.3s.334,3.03-2.692,3.03H223.145" transform="translate(-152.759 -13.544)" fill="none" stroke="#fff" stroke-miterlimit="10" stroke-width="3"/>
      </g>
    </g>
  </g>
</svg>
