<svg xmlns="http://www.w3.org/2000/svg" width="90.556" height="90.556" viewBox="0 0 90.556 90.556">
  <g id="secure_icon" transform="translate(-1307.307 -2512.416)">
    <g id="LOgo" transform="translate(1307.307 2512.416)">
      <g id="Path_5" data-name="Path 5" fill="none">
        <path d="M45.278,0A45.278,45.278,0,1,1,0,45.278,45.278,45.278,0,0,1,45.278,0Z" stroke="none"/>
        <path d="M 45.2780647277832 2 C 39.43467712402344 2 33.76714324951172 3.14398193359375 28.43290328979492 5.400184631347656 C 23.27962493896484 7.579841613769531 18.65107727050781 10.70062255859375 14.67584991455078 14.67584991455078 C 10.70062255859375 18.65107727050781 7.579841613769531 23.27962493896484 5.400184631347656 28.43290328979492 C 3.14398193359375 33.76714324951172 2 39.43467712402344 2 45.2780647277832 C 2 51.12145233154297 3.14398193359375 56.78898620605469 5.400184631347656 62.12322235107422 C 7.579841613769531 67.27650451660156 10.70062255859375 71.90505218505859 14.67584991455078 75.88027954101562 C 18.65107727050781 79.85550689697266 23.27962493896484 82.97628784179688 28.43290328979492 85.15594482421875 C 33.76714324951172 87.41214752197266 39.43467712402344 88.55612945556641 45.2780647277832 88.55612945556641 C 51.12145233154297 88.55612945556641 56.78898620605469 87.41214752197266 62.12322235107422 85.15594482421875 C 67.27650451660156 82.97628784179688 71.90505218505859 79.85550689697266 75.88027954101562 75.88027954101562 C 79.85550689697266 71.90505218505859 82.97628784179688 67.27650451660156 85.15594482421875 62.12322235107422 C 87.41214752197266 56.78898620605469 88.55612945556641 51.12145233154297 88.55612945556641 45.2780647277832 C 88.55612945556641 39.43467712402344 87.41214752197266 33.76714324951172 85.15594482421875 28.43290328979492 C 82.97628784179688 23.27962493896484 79.85550689697266 18.65107727050781 75.88027954101562 14.67584991455078 C 71.90505218505859 10.70062255859375 67.27650451660156 7.579841613769531 62.12322235107422 5.400184631347656 C 56.78898620605469 3.14398193359375 51.12145233154297 2 45.2780647277832 2 M 45.2780647277832 0 C 70.28445434570312 0 90.55612945556641 20.27167510986328 90.55612945556641 45.2780647277832 C 90.55612945556641 70.28445434570312 70.28445434570312 90.55612945556641 45.2780647277832 90.55612945556641 C 20.27167510986328 90.55612945556641 0 70.28445434570312 0 45.2780647277832 C 0 20.27167510986328 20.27167510986328 0 45.2780647277832 0 Z" stroke="none" fill="#fff"/>
      </g>
    </g>
    <g id="Layer_2" data-name="Layer 2" transform="translate(1334.553 2534.053)">
      <g id="thermostat_2_Image" data-name="thermostat 2 Image">
        <g id="secure">
          <path id="Path_113" data-name="Path 113" d="M36.152,9.549,18.487.1h-.822L.411,9.549A.822.822,0,0,0,0,10.268V22.592A25.265,25.265,0,0,0,15.3,45.906l2.362,1.027h.719l2.67-1.13A25.265,25.265,0,0,0,36.665,22.387V10.268A.822.822,0,0,0,36.152,9.549ZM34.919,22.387A23.622,23.622,0,0,1,20.335,44.16h0l-2.362,1.027-1.951-.822A23.827,23.827,0,0,1,1.746,22.592V10.781l16.33-8.935,16.843,8.935Z" transform="translate(0 -0.1)" fill="#fff"/>
          <path id="secure-2" data-name="secure" d="M11.347,21.6a.924.924,0,1,0-1.335,1.13l4.622,5.443a.924.924,0,0,0,1.232.1L26.65,19.44A.842.842,0,1,0,25.623,18.1L15.455,26.321Z" transform="translate(0.259 0.382)" fill="#fff"/>
        </g>
      </g>
    </g>
  </g>
</svg>
