<svg id="tablet" xmlns="http://www.w3.org/2000/svg" width="76.95" height="76.95" viewBox="0 0 76.95 76.95">
  <g id="Path_5" data-name="Path 5" transform="translate(0 0)" fill="none">
    <path d="M38.475,0A38.475,38.475,0,1,1,0,38.475,38.475,38.475,0,0,1,38.475,0Z" stroke="none"/>
    <path d="M 38.47526931762695 2 C 33.55025863647461 2 28.77362060546875 2.964118957519531 24.27805709838867 4.865585327148438 C 19.93484497070312 6.702613830566406 16.03383255004883 9.332893371582031 12.68336486816406 12.68336486816406 C 9.332893371582031 16.03383255004883 6.702613830566406 19.93484497070312 4.865585327148438 24.27805709838867 C 2.964118957519531 28.77362060546875 2 33.55025863647461 2 38.47526931762695 C 2 43.4002799987793 2.964118957519531 48.17691802978516 4.865585327148438 52.67248153686523 C 6.702613830566406 57.01569366455078 9.332893371582031 60.91670227050781 12.68336486816406 64.26717376708984 C 16.03383255004883 67.61764526367188 19.93484497070312 70.2479248046875 24.27805709838867 72.08495330810547 C 28.77362060546875 73.98641967773438 33.55025863647461 74.95053863525391 38.47526931762695 74.95053863525391 C 43.4002799987793 74.95053863525391 48.17691802978516 73.98641967773438 52.67248153686523 72.08495330810547 C 57.01569366455078 70.2479248046875 60.91670227050781 67.61764526367188 64.26717376708984 64.26717376708984 C 67.61764526367188 60.91670227050781 70.2479248046875 57.01569366455078 72.08495330810547 52.67248153686523 C 73.98641967773438 48.17691802978516 74.95053863525391 43.4002799987793 74.95053863525391 38.47526931762695 C 74.95053863525391 33.55025863647461 73.98641967773438 28.77362060546875 72.08495330810547 24.27805709838867 C 70.2479248046875 19.93484497070312 67.61764526367188 16.03383255004883 64.26717376708984 12.68336486816406 C 60.91670227050781 9.332893371582031 57.01569366455078 6.702613830566406 52.67248153686523 4.865585327148438 C 48.17691802978516 2.964118957519531 43.4002799987793 2 38.47526931762695 2 M 38.47526931762695 0 C 59.72457504272461 0 76.95053863525391 17.2259635925293 76.95053863525391 38.47526931762695 C 76.95053863525391 59.72457504272461 59.72457504272461 76.95053863525391 38.47526931762695 76.95053863525391 C 17.2259635925293 76.95053863525391 0 59.72457504272461 0 38.47526931762695 C 0 17.2259635925293 17.2259635925293 0 38.47526931762695 0 Z" stroke="none" fill="#fff"/>
  </g>
  <g id="ipad" transform="translate(20.429 12.939)">
    <g id="Group_29" data-name="Group 29" transform="translate(0)">
      <g id="Group_28" data-name="Group 28">
        <path id="Path_121" data-name="Path 121" d="M93.158,0H65.714A4.279,4.279,0,0,0,61.44,4.274V46.442a4.279,4.279,0,0,0,4.274,4.274H93.158a4.279,4.279,0,0,0,4.274-4.274V4.274A4.279,4.279,0,0,0,93.158,0ZM95.8,46.442a2.641,2.641,0,0,1-2.638,2.638H65.714a2.641,2.641,0,0,1-2.638-2.638V4.274a2.641,2.641,0,0,1,2.638-2.638H93.158A2.64,2.64,0,0,1,95.8,4.274V46.442Z" transform="translate(-61.44)" fill="#fff"/>
      </g>
    </g>
    <g id="Group_31" data-name="Group 31" transform="translate(0 5.726)">
      <g id="Group_30" data-name="Group 30">
        <path id="Path_122" data-name="Path 122" d="M96.614,47.787H62.258a.818.818,0,0,0-.818.818V83.779a.818.818,0,0,0,.818.818H96.614a.818.818,0,0,0,.818-.818V48.6A.818.818,0,0,0,96.614,47.787ZM95.8,82.961H63.076V49.423H95.8Z" transform="translate(-61.44 -47.787)" fill="#fff"/>
      </g>
    </g>
    <g id="Group_33" data-name="Group 33" transform="translate(3.681 8.998)">
      <g id="Group_32" data-name="Group 32" transform="translate(0)">
        <path id="Path_123" data-name="Path 123" d="M97.238,75.334a.818.818,0,0,0-1.157,0L92.4,79.015a.818.818,0,1,0,1.157,1.157l3.681-3.681A.818.818,0,0,0,97.238,75.334Z" transform="translate(-92.161 -75.094)" fill="#fff"/>
      </g>
    </g>
    <g id="Group_35" data-name="Group 35" transform="translate(3.272 8.998)">
      <g id="Group_34" data-name="Group 34" transform="translate(0)">
        <path id="Path_124" data-name="Path 124" d="M97.506,75.334a.818.818,0,0,0-1.157,0L88.987,82.7a.818.818,0,1,0,1.157,1.157l7.362-7.362A.818.818,0,0,0,97.506,75.334Z" transform="translate(-88.747 -75.094)" fill="#fff"/>
      </g>
    </g>
    <g id="Group_37" data-name="Group 37" transform="translate(15.542 43.354)">
      <g id="Group_36" data-name="Group 36">
        <path id="Path_125" data-name="Path 125" d="M193.6,361.813a2.454,2.454,0,1,0,2.454,2.454A2.457,2.457,0,0,0,193.6,361.813Zm0,3.272a.818.818,0,1,1,.818-.818A.819.819,0,0,1,193.6,365.085Z" transform="translate(-191.147 -361.813)" fill="#fff"/>
      </g>
    </g>
  </g>
</svg>
