<svg id="Layer_2" data-name="Layer 2" xmlns="http://www.w3.org/2000/svg" width="62.975" height="62.975" viewBox="0 0 62.975 62.975">
  <g id="Layer_1" data-name="Layer 1" transform="translate(0 0)">
    <g id="Social_media" data-name="Social media">
      <g id="Group_5" data-name="Group 5">
        <path id="Exclusion_2" data-name="Exclusion 2" d="M31.49,62.963a31.486,31.486,0,1,1,22.259-9.227A31.486,31.486,0,0,1,31.49,62.963ZM14.156,45.581h0a21.315,21.315,0,0,0,11.561,3.358,20.548,20.548,0,0,0,15.991-6.972,22.179,22.179,0,0,0,5.517-14.392v-.959a17.414,17.414,0,0,0,3.646-3.934,14.056,14.056,0,0,1-4.317,1.183,7.6,7.6,0,0,0,3.31-4.158,15.767,15.767,0,0,1-4.8,1.855,7.548,7.548,0,0,0-13.08,5.1,8.667,8.667,0,0,0,.176,1.743,21.507,21.507,0,0,1-15.495-7.851,7.292,7.292,0,0,0-1.007,3.758A7.548,7.548,0,0,0,19.034,30.6a7.835,7.835,0,0,1-3.422-.959v.112a7.5,7.5,0,0,0,6.06,7.356,7.563,7.563,0,0,1-1.967.272,10.505,10.505,0,0,1-1.407-.112,7.612,7.612,0,0,0,7.02,5.213,15.047,15.047,0,0,1-9.371,3.2A15.529,15.529,0,0,1,14.156,45.581Z" transform="translate(0.008 0.012)" fill="#f5f5f5"/>
      </g>
    </g>
  </g>
</svg>
