<svg id="watch" xmlns="http://www.w3.org/2000/svg" width="76.95" height="76.95" viewBox="0 0 76.95 76.95">
  <g id="Path_5" data-name="Path 5" transform="translate(0 0)" fill="none">
    <path d="M38.475,0A38.475,38.475,0,1,1,0,38.475,38.475,38.475,0,0,1,38.475,0Z" stroke="none"/>
    <path d="M 38.47526931762695 2 C 33.55025863647461 2 28.77362060546875 2.964118957519531 24.27805709838867 4.865585327148438 C 19.93484497070312 6.702613830566406 16.03383255004883 9.332893371582031 12.68336486816406 12.68336486816406 C 9.332893371582031 16.03383255004883 6.702613830566406 19.93484497070312 4.865585327148438 24.27805709838867 C 2.964118957519531 28.77362060546875 2 33.55025863647461 2 38.47526931762695 C 2 43.4002799987793 2.964118957519531 48.17691802978516 4.865585327148438 52.67248153686523 C 6.702613830566406 57.01569366455078 9.332893371582031 60.91670227050781 12.68336486816406 64.26717376708984 C 16.03383255004883 67.61764526367188 19.93484497070312 70.2479248046875 24.27805709838867 72.08495330810547 C 28.77362060546875 73.98641967773438 33.55025863647461 74.95053863525391 38.47526931762695 74.95053863525391 C 43.4002799987793 74.95053863525391 48.17691802978516 73.98641967773438 52.67248153686523 72.08495330810547 C 57.01569366455078 70.2479248046875 60.91670227050781 67.61764526367188 64.26717376708984 64.26717376708984 C 67.61764526367188 60.91670227050781 70.2479248046875 57.01569366455078 72.08495330810547 52.67248153686523 C 73.98641967773438 48.17691802978516 74.95053863525391 43.4002799987793 74.95053863525391 38.47526931762695 C 74.95053863525391 33.55025863647461 73.98641967773438 28.77362060546875 72.08495330810547 24.27805709838867 C 70.2479248046875 19.93484497070312 67.61764526367188 16.03383255004883 64.26717376708984 12.68336486816406 C 60.91670227050781 9.332893371582031 57.01569366455078 6.702613830566406 52.67248153686523 4.865585327148438 C 48.17691802978516 2.964118957519531 43.4002799987793 2 38.47526931762695 2 M 38.47526931762695 0 C 59.72457504272461 0 76.95053863525391 17.2259635925293 76.95053863525391 38.47526931762695 C 76.95053863525391 59.72457504272461 59.72457504272461 76.95053863525391 38.47526931762695 76.95053863525391 C 17.2259635925293 76.95053863525391 0 59.72457504272461 0 38.47526931762695 C 0 17.2259635925293 17.2259635925293 0 38.47526931762695 0 Z" stroke="none" fill="#fff"/>
  </g>
  <g id="iwatch" transform="translate(22.472 12.939)">
    <path id="Path_115" data-name="Path 115" d="M32.134,22.494H30.527v-7.47a6.977,6.977,0,0,0-5.048-6.681l-1.41-7.051A1.607,1.607,0,0,0,22.494,0H9.64A1.607,1.607,0,0,0,8.065,1.291L6.711,8.062A6.983,6.983,0,0,0,0,15.023V36.39a6.983,6.983,0,0,0,6.711,6.962l1.354,6.77A1.607,1.607,0,0,0,9.64,51.414H22.494a1.607,1.607,0,0,0,1.575-1.291l1.41-7.051a6.977,6.977,0,0,0,5.048-6.682V30.527h1.607ZM10.957,3.213H21.176l.964,4.82H9.994ZM21.176,48.2H10.957l-.965-4.82H22.14Zm6.137-11.81a3.782,3.782,0,0,1-3.777,3.777H6.99A3.782,3.782,0,0,1,3.213,36.39V15.023A3.781,3.781,0,0,1,6.99,11.247H23.537a3.782,3.782,0,0,1,3.777,3.777Zm0,0" transform="translate(0 0)" fill="#fff"/>
    <g id="Group_27" data-name="Group 27" transform="translate(5.518 13.804)">
      <g id="Group_20" data-name="Group 20">
        <path id="Path_118" data-name="Path 118" d="M131.086,68.494a.772.772,0,0,0-1.092,0l-3.475,3.475a.772.772,0,1,0,1.092,1.092l3.475-3.475A.772.772,0,0,0,131.086,68.494Z" transform="translate(-126.294 -68.268)" fill="#fff"/>
      </g>
    </g>
    <g id="Group_26" data-name="Group 26" transform="translate(5.132 13.804)">
      <g id="Group_22" data-name="Group 22">
        <path id="Path_119" data-name="Path 119" d="M131.148,68.494a.772.772,0,0,0-1.092,0l-6.95,6.95a.772.772,0,1,0,1.092,1.092l6.95-6.95A.772.772,0,0,0,131.148,68.494Z" transform="translate(-122.881 -68.268)" fill="#fff"/>
      </g>
    </g>
  </g>
</svg>
