<svg xmlns="http://www.w3.org/2000/svg" width="90.556" height="90.556" viewBox="0 0 90.556 90.556">
  <g id="Group_14" data-name="Group 14" transform="translate(0)">
    <g id="Group_8" data-name="Group 8">
      <g id="Path_5" data-name="Path 5" fill="none">
        <path d="M45.278,0A45.278,45.278,0,1,1,0,45.278,45.278,45.278,0,0,1,45.278,0Z" stroke="none"/>
        <path d="M 45.2780647277832 2 C 39.43467712402344 2 33.76714324951172 3.14398193359375 28.43290328979492 5.400184631347656 C 23.27962493896484 7.579841613769531 18.65107727050781 10.70062255859375 14.67584991455078 14.67584991455078 C 10.70062255859375 18.65107727050781 7.579841613769531 23.27962493896484 5.400184631347656 28.43290328979492 C 3.14398193359375 33.76714324951172 2 39.43467712402344 2 45.2780647277832 C 2 51.12145233154297 3.14398193359375 56.78898620605469 5.400184631347656 62.12322235107422 C 7.579841613769531 67.27650451660156 10.70062255859375 71.90505218505859 14.67584991455078 75.88027954101562 C 18.65107727050781 79.85550689697266 23.27962493896484 82.97628784179688 28.43290328979492 85.15594482421875 C 33.76714324951172 87.41214752197266 39.43467712402344 88.55612945556641 45.2780647277832 88.55612945556641 C 51.12145233154297 88.55612945556641 56.78898620605469 87.41214752197266 62.12322235107422 85.15594482421875 C 67.27650451660156 82.97628784179688 71.90505218505859 79.85550689697266 75.88027954101562 75.88027954101562 C 79.85550689697266 71.90505218505859 82.97628784179688 67.27650451660156 85.15594482421875 62.12322235107422 C 87.41214752197266 56.78898620605469 88.55612945556641 51.12145233154297 88.55612945556641 45.2780647277832 C 88.55612945556641 39.43467712402344 87.41214752197266 33.76714324951172 85.15594482421875 28.43290328979492 C 82.97628784179688 23.27962493896484 79.85550689697266 18.65107727050781 75.88027954101562 14.67584991455078 C 71.90505218505859 10.70062255859375 67.27650451660156 7.579841613769531 62.12322235107422 5.400184631347656 C 56.78898620605469 3.14398193359375 51.12145233154297 2 45.2780647277832 2 M 45.2780647277832 0 C 70.28445434570312 0 90.55612945556641 20.27167510986328 90.55612945556641 45.2780647277832 C 90.55612945556641 70.28445434570312 70.28445434570312 90.55612945556641 45.2780647277832 90.55612945556641 C 20.27167510986328 90.55612945556641 0 70.28445434570312 0 45.2780647277832 C 0 20.27167510986328 20.27167510986328 0 45.2780647277832 0 Z" stroke="none" fill="#fff"/>
      </g>
    </g>
    <g id="Layer_2" data-name="Layer 2" transform="translate(25.644 20.836)">
      <g id="secure">
        <g id="temperate">
          <path id="Path_83" data-name="Path 83" d="M39.063,14H35a.71.71,0,0,0,0,1.4h4.067a.71.71,0,0,0,0-1.4Z" transform="translate(-0.775 1.763)" fill="#fff" stroke="#fff" stroke-miterlimit="10" stroke-width="1"/>
          <path id="Path_84" data-name="Path 84" d="M35,10.5H36.88a.7.7,0,0,0,0-1.4H35a.71.71,0,0,0,0,1.4Z" transform="translate(-0.775 0.942)" fill="#fff" stroke="#fff" stroke-miterlimit="10" stroke-width="1"/>
          <path id="Path_85" data-name="Path 85" d="M35,5.6h2.48a.741.741,0,0,0,.694-.7.741.741,0,0,0-.694-.7H35a.654.654,0,0,0-.6.7A.654.654,0,0,0,35,5.6Z" transform="translate(-0.775 0.12)" fill="#fff" stroke="#fff" stroke-miterlimit="10" stroke-width="1"/>
          <path id="Path_86" data-name="Path 86" d="M37.475,23.8H35a.71.71,0,0,0,0,1.4h2.48a.71.71,0,0,0,0-1.4Z" transform="translate(-0.775 3.406)" fill="#fff" stroke="#fff" stroke-miterlimit="10" stroke-width="1"/>
          <path id="Path_87" data-name="Path 87" d="M35,20.3H36.88a.71.71,0,0,0,0-1.4H35a.71.71,0,0,0,0,1.4Z" transform="translate(-0.775 2.585)" fill="#fff" stroke="#fff" stroke-miterlimit="10" stroke-width="1"/>
          <path id="Path_88" data-name="Path 88" d="M31.867,29.691V6.922a6.252,6.252,0,1,0-12.5,0V29.691A10.637,10.637,0,0,0,15.3,38.1,10.522,10.522,0,0,0,25.617,48.724,10.606,10.606,0,0,0,36.033,38.1a10.72,10.72,0,0,0-4.166-8.407Zm-6.25,17.631A9.034,9.034,0,0,1,16.689,38.1a9.224,9.224,0,0,1,3.77-7.473.6.6,0,0,0,.3-.584V6.922a4.863,4.863,0,1,1,9.722,0V30.041a.6.6,0,0,0,.3.584A9.431,9.431,0,0,1,34.644,38.1,9.116,9.116,0,0,1,25.617,47.323Z" transform="translate(-0.622 -0.5)" fill="#fff" stroke="#fff" stroke-miterlimit="10" stroke-width="1"/>
          <path id="Path_89" data-name="Path 89" d="M15.281,15.091a1,1,0,0,0,.6-1.868,1.777,1.777,0,0,1,0-2.919.939.939,0,0,0-.6-1.751,1.39,1.39,0,0,1-1.415-.669A2.011,2.011,0,0,1,13.694,6.1a.977.977,0,0,0-1.587-1.051,1.5,1.5,0,0,1-1.55.37,1.853,1.853,0,0,1-1.129-1.3,1.022,1.022,0,0,0-.942-.8,1.022,1.022,0,0,0-.942.8,1.939,1.939,0,0,1-1.187,1.3,1.578,1.578,0,0,1-1.591-.366A.926.926,0,0,0,3.278,6.1a2.134,2.134,0,0,1-.271,1.772,1.482,1.482,0,0,1-1.416.68A.939.939,0,0,0,1,10.3a1.777,1.777,0,0,1,0,2.919,1,1,0,0,0,.6,1.868,1.738,1.738,0,0,1,1.686,2.335.951.951,0,0,0,1.488,1.168,1.578,1.578,0,0,1,1.591-.366,1.939,1.939,0,0,1,1.187,1.3,1.022,1.022,0,0,0,.942.8,1.022,1.022,0,0,0,.942-.8,1.853,1.853,0,0,1,1.129-1.3,1.5,1.5,0,0,1,1.55.37,1.008,1.008,0,0,0,1.587-1.168,2,2,0,0,1,.237-1.692A1.389,1.389,0,0,1,15.281,15.091Zm-.893-1.284a3.044,3.044,0,0,0-2.282,3.153,3.079,3.079,0,0,0-3.67,1.284,3.079,3.079,0,0,0-3.67-1.284,3.044,3.044,0,0,0-2.282-3.153,3.308,3.308,0,0,0,0-3.97A3.18,3.18,0,0,0,4.766,6.567,2.89,2.89,0,0,0,8.436,5.4a2.89,2.89,0,0,0,3.67,1.168,3.18,3.18,0,0,0,2.282,3.269,3.308,3.308,0,0,0,0,3.97Z" transform="translate(-0.504 -0.029)" fill="#fff" stroke="#fff" stroke-miterlimit="10" stroke-width="1"/>
          <path id="Path_90" data-name="Path 90" d="M8.47,7.3a3.148,3.148,0,0,0-2.579.986A4.392,4.392,0,0,0,4.7,11.155c.158,2.277,1.832,3.988,3.77,3.853a3.913,3.913,0,0,0,3.869-3.853A3.913,3.913,0,0,0,8.47,7.3Zm0,6.305a2.453,2.453,0,0,1,0-4.9,2.062,2.062,0,0,1,1.674.618,2.864,2.864,0,0,1,.806,1.834,2.864,2.864,0,0,1-.806,1.834,2.062,2.062,0,0,1-1.674.618Z" transform="translate(-0.538 0.638)" fill="#fff" stroke="#fff" stroke-miterlimit="10" stroke-width="1"/>
        </g>
      </g>
    </g>
  </g>
</svg>
