<svg xmlns="http://www.w3.org/2000/svg" width="361.25" height="267.099" viewBox="0 0 361.25 267.099">
  <g id="Group_72" data-name="Group 72" transform="translate(-6.875 -2676)">
    <g id="Group_60" data-name="Group 60" transform="translate(-639.875 -983)">
      <g id="Group_59" data-name="Group 59" transform="translate(646.75 3659)">
        <path id="Path_188" data-name="Path 188" d="M0,0,116.538,80.877" transform="translate(19.472 39.806)" fill="none" stroke="#fff" stroke-width="3" stroke-dasharray="4 10"/>
        <line id="Line_23" data-name="Line 23" y1="87.884" x2="127.171" transform="translate(19.472 140.443)" fill="none" stroke="#fff" stroke-width="3" stroke-dasharray="4 10"/>
        <line id="Line_9" data-name="Line 9" x2="29.812" y2="76.021" transform="translate(132.52 39.117)" fill="none" stroke="#fff" stroke-width="3" stroke-dasharray="4 10"/>
        <line id="Line_24" data-name="Line 24" y1="85.127" x2="28.261" transform="translate(132.52 143.2)" fill="none" stroke="#fff" stroke-width="3" stroke-dasharray="4 10"/>
        <line id="Line_10" data-name="Line 10" x1="40.323" y2="75.477" transform="translate(190.837 39.806)" fill="none" stroke="#fff" stroke-width="3" stroke-dasharray="4 10"/>
        <path id="Path_189" data-name="Path 189" d="M19.628,69.01-30.04-38.215" transform="translate(205.13 159.317)" fill="none" stroke="#fff" stroke-width="3" stroke-dasharray="4 10"/>
        <path id="Path_130" data-name="Path 130" d="M303.783-240.227,175.75-160.358" transform="translate(37.445 279.955)" fill="none" stroke="#fff" stroke-width="3" stroke-dasharray="4 10"/>
        <path id="Path_131" data-name="Path 131" d="M308.033-145.949,175.885-236.843" transform="translate(25.766 373.69)" fill="none" stroke="#fff" stroke-width="3" stroke-dasharray="4 10"/>
        <g id="LOgo" transform="translate(0 0)">
          <g id="Path_5" data-name="Path 5" fill="none">
            <path d="M19.472,0A19.472,19.472,0,1,1,0,19.472,19.472,19.472,0,0,1,19.472,0Z" stroke="none"/>
            <path d="M 19.4724063873291 1.999996185302734 C 14.80535697937012 1.999996185302734 10.41765594482422 3.817447662353516 7.117546081542969 7.117546081542969 C 3.817447662353516 10.41765594482422 1.999996185302734 14.80535697937012 1.999996185302734 19.4724063873291 C 1.999996185302734 24.13945770263672 3.817447662353516 28.52715682983398 7.117546081542969 31.82726669311523 C 10.41765594482422 35.12736511230469 14.80535697937012 36.94481658935547 19.4724063873291 36.94481658935547 C 24.13945770263672 36.94481658935547 28.52715682983398 35.12736511230469 31.82726669311523 31.82726669311523 C 35.12736511230469 28.52715682983398 36.94481658935547 24.13945770263672 36.94481658935547 19.4724063873291 C 36.94481658935547 14.80535697937012 35.12736511230469 10.41765594482422 31.82726669311523 7.117546081542969 C 28.52715682983398 3.817447662353516 24.13945770263672 1.999996185302734 19.4724063873291 1.999996185302734 M 19.4724063873291 -3.814697265625e-06 C 30.22671508789062 -3.814697265625e-06 38.94481658935547 8.718095779418945 38.94481658935547 19.4724063873291 C 38.94481658935547 30.22671508789062 30.22671508789062 38.94481658935547 19.4724063873291 38.94481658935547 C 8.718095779418945 38.94481658935547 -3.814697265625e-06 30.22671508789062 -3.814697265625e-06 19.4724063873291 C -3.814697265625e-06 8.718095779418945 8.718095779418945 -3.814697265625e-06 19.4724063873291 -3.814697265625e-06 Z" stroke="none" fill="aqua"/>
          </g>
          <g id="iwatch" transform="translate(11.373 6.548)">
            <path id="Path_115" data-name="Path 115" d="M16.263,11.384H15.45V7.6a3.531,3.531,0,0,0-2.555-3.381L12.181.654a.813.813,0,0,0-.8-.654H4.879a.813.813,0,0,0-.8.654L3.4,4.08A3.534,3.534,0,0,0,0,7.6V18.417a3.534,3.534,0,0,0,3.4,3.523l.685,3.426a.813.813,0,0,0,.8.654h6.505a.813.813,0,0,0,.8-.654l.714-3.568a3.531,3.531,0,0,0,2.555-3.382V15.45h.813ZM5.546,1.626h5.172l.488,2.439H5.058Zm5.172,22.768H5.546l-.488-2.439h6.148Zm3.106-5.977a1.914,1.914,0,0,1-1.911,1.912H3.538a1.914,1.914,0,0,1-1.911-1.912V7.6A1.914,1.914,0,0,1,3.538,5.692h8.374A1.914,1.914,0,0,1,13.823,7.6Zm0,0" transform="translate(0 0)" fill="#fff"/>
            <g id="Group_27" data-name="Group 27" transform="translate(2.793 6.986)">
              <g id="Group_20" data-name="Group 20">
                <path id="Path_118" data-name="Path 118" d="M128.719,68.382a.391.391,0,0,0-.553,0l-1.759,1.759a.391.391,0,1,0,.553.553l1.759-1.759A.391.391,0,0,0,128.719,68.382Z" transform="translate(-126.294 -68.268)" fill="#fff"/>
              </g>
            </g>
            <g id="Group_26" data-name="Group 26" transform="translate(2.597 6.986)">
              <g id="Group_22" data-name="Group 22">
                <path id="Path_119" data-name="Path 119" d="M127.065,68.382a.391.391,0,0,0-.553,0L122.995,71.9a.391.391,0,1,0,.553.553l3.517-3.517A.391.391,0,0,0,127.065,68.382Z" transform="translate(-122.881 -68.268)" fill="#fff"/>
              </g>
            </g>
          </g>
        </g>
        <g id="LOgo-2" data-name="LOgo" transform="translate(214.87 0)">
          <g id="Path_5-2" data-name="Path 5" transform="translate(0)" fill="none">
            <path d="M19.472,0A19.472,19.472,0,1,1,0,19.472,19.472,19.472,0,0,1,19.472,0Z" stroke="none"/>
            <path d="M 19.4724063873291 1.999996185302734 C 14.80535697937012 1.999996185302734 10.41765594482422 3.817447662353516 7.117546081542969 7.117546081542969 C 3.817447662353516 10.41765594482422 1.999996185302734 14.80535697937012 1.999996185302734 19.4724063873291 C 1.999996185302734 24.13945770263672 3.817447662353516 28.52715682983398 7.117546081542969 31.82726669311523 C 10.41765594482422 35.12736511230469 14.80535697937012 36.94481658935547 19.4724063873291 36.94481658935547 C 24.13945770263672 36.94481658935547 28.52715682983398 35.12736511230469 31.82726669311523 31.82726669311523 C 35.12736511230469 28.52715682983398 36.94481658935547 24.13945770263672 36.94481658935547 19.4724063873291 C 36.94481658935547 14.80535697937012 35.12736511230469 10.41765594482422 31.82726669311523 7.117546081542969 C 28.52715682983398 3.817447662353516 24.13945770263672 1.999996185302734 19.4724063873291 1.999996185302734 M 19.4724063873291 -3.814697265625e-06 C 30.22671508789062 -3.814697265625e-06 38.94481658935547 8.718095779418945 38.94481658935547 19.4724063873291 C 38.94481658935547 30.22671508789062 30.22671508789062 38.94481658935547 19.4724063873291 38.94481658935547 C 8.718095779418945 38.94481658935547 -3.814697265625e-06 30.22671508789062 -3.814697265625e-06 19.4724063873291 C -3.814697265625e-06 8.718095779418945 8.718095779418945 -3.814697265625e-06 19.4724063873291 -3.814697265625e-06 Z" stroke="none" fill="aqua"/>
          </g>
          <g id="ipad" transform="translate(11.253 7.836)">
            <g id="Group_29" data-name="Group 29" transform="translate(0)">
              <g id="Group_28" data-name="Group 28">
                <path id="Path_121" data-name="Path 121" d="M75.882,0h-12.5A1.948,1.948,0,0,0,61.44,1.946v19.2a1.948,1.948,0,0,0,1.946,1.946h12.5a1.948,1.948,0,0,0,1.946-1.946V1.946A1.948,1.948,0,0,0,75.882,0Zm1.2,21.146a1.2,1.2,0,0,1-1.2,1.2h-12.5a1.2,1.2,0,0,1-1.2-1.2V1.946a1.2,1.2,0,0,1,1.2-1.2h12.5a1.2,1.2,0,0,1,1.2,1.2v19.2Z" transform="translate(-61.44)" fill="#fff"/>
              </g>
            </g>
            <g id="Group_31" data-name="Group 31" transform="translate(0 2.607)">
              <g id="Group_30" data-name="Group 30">
                <path id="Path_122" data-name="Path 122" d="M77.456,47.787H61.812a.372.372,0,0,0-.372.372V64.175a.372.372,0,0,0,.372.372H77.456a.372.372,0,0,0,.372-.372V48.159A.372.372,0,0,0,77.456,47.787ZM77.083,63.8h-14.9V48.532h14.9Z" transform="translate(-61.44 -47.787)" fill="#fff"/>
              </g>
            </g>
            <g id="Group_33" data-name="Group 33" transform="translate(1.676 4.097)">
              <g id="Group_32" data-name="Group 32" transform="translate(0)">
                <path id="Path_123" data-name="Path 123" d="M94.472,75.2a.372.372,0,0,0-.527,0L92.27,76.88a.372.372,0,1,0,.527.527l1.676-1.676A.372.372,0,0,0,94.472,75.2Z" transform="translate(-92.161 -75.094)" fill="#fff"/>
              </g>
            </g>
            <g id="Group_35" data-name="Group 35" transform="translate(1.49 4.097)">
              <g id="Group_34" data-name="Group 34" transform="translate(0)">
                <path id="Path_124" data-name="Path 124" d="M92.735,75.2a.372.372,0,0,0-.527,0l-3.352,3.352a.372.372,0,1,0,.527.527l3.352-3.352A.372.372,0,0,0,92.735,75.2Z" transform="translate(-88.747 -75.094)" fill="#fff"/>
              </g>
            </g>
            <g id="Group_37" data-name="Group 37" transform="translate(7.077 19.74)">
              <g id="Group_36" data-name="Group 36">
                <path id="Path_125" data-name="Path 125" d="M192.264,361.813a1.117,1.117,0,1,0,1.117,1.117A1.119,1.119,0,0,0,192.264,361.813Zm0,1.49a.372.372,0,1,1,.372-.372A.373.373,0,0,1,192.264,363.3Z" transform="translate(-191.147 -361.813)" fill="#fff"/>
              </g>
            </g>
          </g>
        </g>
        <g id="LOgo-3" data-name="LOgo" transform="translate(322.305 0)">
          <g id="Path_5-3" data-name="Path 5" transform="translate(0)" fill="none">
            <path d="M19.472,0A19.472,19.472,0,1,1,0,19.472,19.472,19.472,0,0,1,19.472,0Z" stroke="none"/>
            <path d="M 19.4724063873291 1.999996185302734 C 14.80535697937012 1.999996185302734 10.41765594482422 3.817447662353516 7.117546081542969 7.117546081542969 C 3.817447662353516 10.41765594482422 1.999996185302734 14.80535697937012 1.999996185302734 19.4724063873291 C 1.999996185302734 24.13945770263672 3.817447662353516 28.52715682983398 7.117546081542969 31.82726669311523 C 10.41765594482422 35.12736511230469 14.80535697937012 36.94481658935547 19.4724063873291 36.94481658935547 C 24.13945770263672 36.94481658935547 28.52715682983398 35.12736511230469 31.82726669311523 31.82726669311523 C 35.12736511230469 28.52715682983398 36.94481658935547 24.13945770263672 36.94481658935547 19.4724063873291 C 36.94481658935547 14.80535697937012 35.12736511230469 10.41765594482422 31.82726669311523 7.117546081542969 C 28.52715682983398 3.817447662353516 24.13945770263672 1.999996185302734 19.4724063873291 1.999996185302734 M 19.4724063873291 -3.814697265625e-06 C 30.22671508789062 -3.814697265625e-06 38.94481658935547 8.718095779418945 38.94481658935547 19.4724063873291 C 38.94481658935547 30.22671508789062 30.22671508789062 38.94481658935547 19.4724063873291 38.94481658935547 C 8.718095779418945 38.94481658935547 -3.814697265625e-06 30.22671508789062 -3.814697265625e-06 19.4724063873291 C -3.814697265625e-06 8.718095779418945 8.718095779418945 -3.814697265625e-06 19.4724063873291 -3.814697265625e-06 Z" stroke="none" fill="aqua"/>
          </g>
          <g id="laptop" transform="translate(8.82 12.428)">
            <g id="Group_39" data-name="Group 39" transform="translate(0 11.318)">
              <g id="Group_38" data-name="Group 38">
                <path id="Path_126" data-name="Path 126" d="M20.638,303.787H.333A.333.333,0,0,0,0,304.12a2.333,2.333,0,0,0,2.33,2.33H18.641a2.333,2.333,0,0,0,2.33-2.33A.333.333,0,0,0,20.638,303.787Zm-2,2H2.33A1.667,1.667,0,0,1,.7,304.453H20.272A1.667,1.667,0,0,1,18.641,305.784Z" transform="translate(0 -303.787)" fill="#fff"/>
              </g>
            </g>
            <g id="Group_41" data-name="Group 41" transform="translate(1.664 0)">
              <g id="Group_40" data-name="Group 40">
                <path id="Path_127" data-name="Path 127" d="M51.442,71.68H34.466a.333.333,0,0,0-.333.333V83.331a.333.333,0,0,0,.333.333H51.442a.333.333,0,0,0,.333-.333V72.013A.333.333,0,0,0,51.442,71.68ZM51.109,83H34.8V72.346H51.109V83Z" transform="translate(-34.133 -71.68)" fill="#fff"/>
              </g>
            </g>
            <g id="Group_43" data-name="Group 43" transform="translate(3.162 1.332)">
              <g id="Group_42" data-name="Group 42" transform="translate(0 0)">
                <path id="Path_128" data-name="Path 128" d="M66.254,99.085a.333.333,0,0,0-.471,0l-.832.832a.333.333,0,1,0,.471.471l.832-.832A.333.333,0,0,0,66.254,99.085Z" transform="translate(-64.854 -98.988)" fill="#fff"/>
              </g>
            </g>
            <g id="Group_45" data-name="Group 45" transform="translate(3.495 1.332)">
              <g id="Group_44" data-name="Group 44" transform="translate(0 0)">
                <path id="Path_129" data-name="Path 129" d="M74.079,99.085a.333.333,0,0,0-.471,0l-1.831,1.831a.333.333,0,1,0,.471.471l1.831-1.831A.333.333,0,0,0,74.079,99.085Z" transform="translate(-71.68 -98.988)" fill="#fff"/>
              </g>
            </g>
          </g>
        </g>
        <g id="Group_46" data-name="Group 46" transform="translate(107.435 0)">
          <g id="LOgo-4" data-name="LOgo" transform="translate(0)">
            <g id="Path_5-4" data-name="Path 5" fill="none">
              <path d="M19.472,0A19.472,19.472,0,1,1,0,19.472,19.472,19.472,0,0,1,19.472,0Z" stroke="none"/>
              <path d="M 19.4724063873291 1.999996185302734 C 14.80535697937012 1.999996185302734 10.41765594482422 3.817447662353516 7.117546081542969 7.117546081542969 C 3.817447662353516 10.41765594482422 1.999996185302734 14.80535697937012 1.999996185302734 19.4724063873291 C 1.999996185302734 24.13945770263672 3.817447662353516 28.52715682983398 7.117546081542969 31.82726669311523 C 10.41765594482422 35.12736511230469 14.80535697937012 36.94481658935547 19.4724063873291 36.94481658935547 C 24.13945770263672 36.94481658935547 28.52715682983398 35.12736511230469 31.82726669311523 31.82726669311523 C 35.12736511230469 28.52715682983398 36.94481658935547 24.13945770263672 36.94481658935547 19.4724063873291 C 36.94481658935547 14.80535697937012 35.12736511230469 10.41765594482422 31.82726669311523 7.117546081542969 C 28.52715682983398 3.817447662353516 24.13945770263672 1.999996185302734 19.4724063873291 1.999996185302734 M 19.4724063873291 -3.814697265625e-06 C 30.22671508789062 -3.814697265625e-06 38.94481658935547 8.718095779418945 38.94481658935547 19.4724063873291 C 38.94481658935547 30.22671508789062 30.22671508789062 38.94481658935547 19.4724063873291 38.94481658935547 C 8.718095779418945 38.94481658935547 -3.814697265625e-06 30.22671508789062 -3.814697265625e-06 19.4724063873291 C -3.814697265625e-06 8.718095779418945 8.718095779418945 -3.814697265625e-06 19.4724063873291 -3.814697265625e-06 Z" stroke="none" fill="aqua"/>
            </g>
          </g>
          <g id="iphone" transform="translate(12.752 7.238)">
            <g id="Group_17" data-name="Group 17" transform="translate(0)">
              <g id="Group_16" data-name="Group 16" transform="translate(0)">
                <path id="Path_116" data-name="Path 116" d="M106.787,0H96.656a1.083,1.083,0,0,0-1.082,1.082V21.338a1.083,1.083,0,0,0,1.082,1.082h10.131a1.083,1.083,0,0,0,1.082-1.082V1.082A1.083,1.083,0,0,0,106.787,0Zm.358,21.338a.359.359,0,0,1-.358.358H96.656a.359.359,0,0,1-.358-.358V1.082a.359.359,0,0,1,.358-.358h10.131a.359.359,0,0,1,.358.358Z" transform="translate(-95.574 0)" fill="#fff"/>
              </g>
            </g>
            <g id="Group_19" data-name="Group 19" transform="translate(0 2.17)">
              <g id="Group_18" data-name="Group 18">
                <path id="Path_117" data-name="Path 117" d="M107.506,40.96H95.935a.362.362,0,0,0-.362.362v15.91a.362.362,0,0,0,.362.362h11.571a.362.362,0,0,0,.362-.362V41.322A.362.362,0,0,0,107.506,40.96Zm-.362,15.91H96.3V41.683h10.848Z" transform="translate(-95.573 -40.96)" fill="#fff"/>
              </g>
            </g>
            <g id="Group_21" data-name="Group 21" transform="translate(1.627 3.616)">
              <g id="Group_20-2" data-name="Group 20">
                <path id="Path_118-2" data-name="Path 118" d="M128.538,68.373a.362.362,0,0,0-.511,0L126.4,70a.362.362,0,1,0,.511.511l1.627-1.627A.361.361,0,0,0,128.538,68.373Z" transform="translate(-126.294 -68.268)" fill="#fff"/>
              </g>
            </g>
            <g id="Group_23" data-name="Group 23" transform="translate(1.446 3.616)">
              <g id="Group_22-2" data-name="Group 22">
                <path id="Path_119-2" data-name="Path 119" d="M126.752,68.373a.362.362,0,0,0-.511,0l-3.254,3.254a.362.362,0,1,0,.511.511l3.254-3.254A.361.361,0,0,0,126.752,68.373Z" transform="translate(-122.881 -68.268)" fill="#fff"/>
              </g>
            </g>
            <g id="Group_25" data-name="Group 25" transform="translate(5.062 19.165)">
              <g id="Group_24" data-name="Group 24">
                <path id="Path_120" data-name="Path 120" d="M192.232,361.813a1.085,1.085,0,1,0,1.085,1.085A1.086,1.086,0,0,0,192.232,361.813Zm0,1.446a.362.362,0,1,1,.362-.362A.362.362,0,0,1,192.232,363.259Z" transform="translate(-191.147 -361.813)" fill="#fff"/>
              </g>
            </g>
          </g>
        </g>
        <g id="Group_47" data-name="Group 47" transform="translate(132.168 115.121)">
          <g id="Rectangle_5" data-name="Rectangle 5" transform="translate(0 0)" fill="#fff" stroke="#707070" stroke-width="1">
            <rect width="82.903" height="27.896" rx="13.948" stroke="none"/>
            <rect x="0.5" y="0.5" width="81.903" height="26.896" rx="13.448" fill="none"/>
          </g>
          <line id="Line_22" data-name="Line 22" y1="0.086" x2="6.706" transform="translate(7.751 14.379)" fill="none" stroke="#292929" stroke-linecap="round" stroke-width="3"/>
          <line id="Line_31" data-name="Line 31" y1="0.086" x2="6.706" transform="translate(48.457 14.379)" fill="none" stroke="#292929" stroke-linecap="round" stroke-width="3"/>
          <line id="Line_22-2" data-name="Line 22" y1="0.086" x2="6.706" transform="translate(28.751 14.379)" fill="none" stroke="#292929" stroke-linecap="round" stroke-width="3"/>
          <line id="Line_30" data-name="Line 30" y1="0.086" x2="6.706" transform="translate(68.457 14.379)" fill="none" stroke="#292929" stroke-linecap="round" stroke-width="3"/>
        </g>
        <g id="Group_49" data-name="Group 49" transform="translate(0 228.155)">
          <g id="Group_11" data-name="Group 11">
            <g id="Group_10" data-name="Group 10">
              <g id="Path_5-5" data-name="Path 5" fill="none">
                <path d="M19.472,0A19.472,19.472,0,1,1,0,19.472,19.472,19.472,0,0,1,19.472,0Z" stroke="none"/>
                <path d="M 19.4724063873291 1.999996185302734 C 14.80535697937012 1.999996185302734 10.41765594482422 3.817447662353516 7.117546081542969 7.117546081542969 C 3.817447662353516 10.41765594482422 1.999996185302734 14.80535697937012 1.999996185302734 19.4724063873291 C 1.999996185302734 24.13945770263672 3.817447662353516 28.52715682983398 7.117546081542969 31.82726669311523 C 10.41765594482422 35.12736511230469 14.80535697937012 36.94481658935547 19.4724063873291 36.94481658935547 C 24.13945770263672 36.94481658935547 28.52715682983398 35.12736511230469 31.82726669311523 31.82726669311523 C 35.12736511230469 28.52715682983398 36.94481658935547 24.13945770263672 36.94481658935547 19.4724063873291 C 36.94481658935547 14.80535697937012 35.12736511230469 10.41765594482422 31.82726669311523 7.117546081542969 C 28.52715682983398 3.817447662353516 24.13945770263672 1.999996185302734 19.4724063873291 1.999996185302734 M 19.4724063873291 -3.814697265625e-06 C 30.22671508789062 -3.814697265625e-06 38.94481658935547 8.718095779418945 38.94481658935547 19.4724063873291 C 38.94481658935547 30.22671508789062 30.22671508789062 38.94481658935547 19.4724063873291 38.94481658935547 C 8.718095779418945 38.94481658935547 -3.814697265625e-06 30.22671508789062 -3.814697265625e-06 19.4724063873291 C -3.814697265625e-06 8.718095779418945 8.718095779418945 -3.814697265625e-06 19.4724063873291 -3.814697265625e-06 Z" stroke="none" fill="#fff"/>
              </g>
            </g>
            <g id="Layer_2" data-name="Layer 2" transform="translate(9.995 8.961)">
              <g id="thermostat_2_Image" data-name="thermostat 2 Image" transform="translate(0 0)">
                <g id="room_option" data-name="room option">
                  <g id="light">
                    <path id="Path_99" data-name="Path 99" d="M69.435,15.2A4.877,4.877,0,0,0,70.641,12a5.139,5.139,0,0,0-1.73-3.828,6.135,6.135,0,0,0-4.2-1.573,6.24,6.24,0,0,0-4.038,1.573A5.349,5.349,0,0,0,59,11.948a5.244,5.244,0,0,0,1.206,3.3,8.39,8.39,0,0,1,1.94,5.349v2.045a1.783,1.783,0,0,0,1.835,1.678H65.66a1.73,1.73,0,0,0,1.783-1.678V20.6a8.495,8.495,0,0,1,1.993-5.4Zm-8.652-.367a4.562,4.562,0,0,1-1.049-2.884,4.96,4.96,0,0,1,4.982-4.667,5.506,5.506,0,0,1,3.671,1.363A4.615,4.615,0,0,1,69.855,12a4.457,4.457,0,0,1-1,2.832,9.124,9.124,0,0,0-2.15,5.611H62.933a9.124,9.124,0,0,0-2.15-5.611Zm2.15,7.6v-.315l3.776.42V22.8Zm0-1v-.315h3.776v.734Zm1.049,2.2a1.1,1.1,0,0,1-.944-.524l3.2.367a1.049,1.049,0,0,1-.577.157Z" transform="translate(-55.487 -3.401)" fill="#fff"/>
                    <path id="Path_100" data-name="Path 100" d="M62.385,17.044a2.15,2.15,0,0,1-.052-.577.367.367,0,0,0-.734,0,2.569,2.569,0,0,0,.052.629c0,.21.157.315.367.315h.052A.472.472,0,0,0,62.385,17.044Z" transform="translate(-56.721 -7.92)" fill="#fff"/>
                    <path id="Path_101" data-name="Path 101" d="M76.6,19.078a.367.367,0,0,0-.472.21,2.675,2.675,0,0,1-.472.682.367.367,0,0,0,.1.472l.21.1a.472.472,0,0,0,.315-.157,4.51,4.51,0,0,0,.524-.839c.1-.21,0-.367-.21-.472Z" transform="translate(-63.389 -9.325)" fill="#fff"/>
                    <path id="Path_102" data-name="Path 102" d="M69.767,3.122a.367.367,0,0,0,.367-.367V.867a.367.367,0,0,0-.734,0V2.755A.367.367,0,0,0,69.767,3.122Z" transform="translate(-60.433 -0.5)" fill="#fff"/>
                    <path id="Path_103" data-name="Path 103" d="M61.9,4.857a.367.367,0,0,0,.315.157h.21a.367.367,0,0,0,.1-.472L61.481,2.864a.367.367,0,0,0-.472-.1.315.315,0,0,0-.157.472Z" transform="translate(-56.342 -1.553)" fill="#fff"/>
                    <path id="Path_104" data-name="Path 104" d="M83.078,23.4,81.3,22.455a.42.42,0,0,0-.524.1.367.367,0,0,0,.157.472l1.783,1h.21a.367.367,0,0,0,.315-.157.315.315,0,0,0-.157-.472Z" transform="translate(-65.826 -10.918)" fill="#fff"/>
                    <path id="Path_105" data-name="Path 105" d="M54.739,9.031l1.783,1h.21a.419.419,0,0,0,.315-.21.367.367,0,0,0-.1-.472l-1.835-.891a.42.42,0,0,0-.524.1C54.53,8.769,54.582,8.979,54.739,9.031Z" transform="translate(-53.376 -4.26)" fill="#fff"/>
                    <path id="Path_106" data-name="Path 106" d="M84.965,16.3h-2.1a.342.342,0,1,0,0,.682h2.1a.342.342,0,1,0,0-.682Z" transform="translate(-66.664 -8.015)" fill="#fff"/>
                    <path id="Path_107" data-name="Path 107" d="M55.132,16.667a.42.42,0,0,0-.42-.367H52.667a.342.342,0,1,0,0,.682h2.045C54.922,16.982,55.132,16.824,55.132,16.667Z" transform="translate(-52.3 -8.015)" fill="#fff"/>
                    <path id="Path_108" data-name="Path 108" d="M81.138,10.128H81.3l1.783-1c.21-.052.262-.262.157-.472a.42.42,0,0,0-.524-.1L80.928,9.5a.367.367,0,0,0-.157.472.524.524,0,0,0,.367.21Z" transform="translate(-65.826 -4.307)" fill="#fff"/>
                    <path id="Path_109" data-name="Path 109" d="M56.522,22.455l-1.783.944a.42.42,0,0,0-.157.472.472.472,0,0,0,.367.157h.157l1.835-1a.367.367,0,0,0,.1-.472A.419.419,0,0,0,56.522,22.455Z" transform="translate(-53.375 -10.918)" fill="#fff"/>
                    <path id="Path_110" data-name="Path 110" d="M76.109,4.862h.157a.472.472,0,0,0,.367-.157l1-1.678a.367.367,0,0,0-.1-.472.419.419,0,0,0-.524.1L75.952,4.39a.315.315,0,0,0,.157.472Z" transform="translate(-63.524 -1.453)" fill="#fff"/>
                  </g>
                </g>
              </g>
            </g>
          </g>
        </g>
        <g id="Group_51" data-name="Group 51" transform="translate(106.237 228.155)">
          <g id="Group_14" data-name="Group 14" transform="translate(0)">
            <g id="Group_8" data-name="Group 8">
              <g id="Path_5-6" data-name="Path 5" fill="none">
                <path d="M19.472,0A19.472,19.472,0,1,1,0,19.472,19.472,19.472,0,0,1,19.472,0Z" stroke="none"/>
                <path d="M 19.4724063873291 1.999996185302734 C 14.80535697937012 1.999996185302734 10.41765594482422 3.817447662353516 7.117546081542969 7.117546081542969 C 3.817447662353516 10.41765594482422 1.999996185302734 14.80535697937012 1.999996185302734 19.4724063873291 C 1.999996185302734 24.13945770263672 3.817447662353516 28.52715682983398 7.117546081542969 31.82726669311523 C 10.41765594482422 35.12736511230469 14.80535697937012 36.94481658935547 19.4724063873291 36.94481658935547 C 24.13945770263672 36.94481658935547 28.52715682983398 35.12736511230469 31.82726669311523 31.82726669311523 C 35.12736511230469 28.52715682983398 36.94481658935547 24.13945770263672 36.94481658935547 19.4724063873291 C 36.94481658935547 14.80535697937012 35.12736511230469 10.41765594482422 31.82726669311523 7.117546081542969 C 28.52715682983398 3.817447662353516 24.13945770263672 1.999996185302734 19.4724063873291 1.999996185302734 M 19.4724063873291 -3.814697265625e-06 C 30.22671508789062 -3.814697265625e-06 38.94481658935547 8.718095779418945 38.94481658935547 19.4724063873291 C 38.94481658935547 30.22671508789062 30.22671508789062 38.94481658935547 19.4724063873291 38.94481658935547 C 8.718095779418945 38.94481658935547 -3.814697265625e-06 30.22671508789062 -3.814697265625e-06 19.4724063873291 C -3.814697265625e-06 8.718095779418945 8.718095779418945 -3.814697265625e-06 19.4724063873291 -3.814697265625e-06 Z" stroke="none" fill="#fff"/>
              </g>
            </g>
            <g id="Layer_2-2" data-name="Layer 2" transform="translate(11.029 8.961)">
              <g id="secure" transform="translate(0 0)">
                <g id="temperate">
                  <path id="Path_83" data-name="Path 83" d="M36.405,14H34.656a.305.305,0,0,0,0,.6h1.749a.305.305,0,0,0,0-.6Z" transform="translate(-19.939 -7.221)" fill="#fff" stroke="#fff" stroke-miterlimit="10" stroke-width="1"/>
                  <path id="Path_84" data-name="Path 84" d="M34.656,9.7h.811a.3.3,0,0,0,0-.6h-.811a.305.305,0,0,0,0,.6Z" transform="translate(-19.939 -4.781)" fill="#fff" stroke="#fff" stroke-miterlimit="10" stroke-width="1"/>
                  <path id="Path_85" data-name="Path 85" d="M34.656,4.8h1.067a.3.3,0,0,0,0-.6H34.656a.305.305,0,0,0,0,.6Z" transform="translate(-19.939 -2.342)" fill="#fff" stroke="#fff" stroke-miterlimit="10" stroke-width="1"/>
                  <path id="Path_86" data-name="Path 86" d="M35.723,23.8H34.656a.305.305,0,0,0,0,.6h1.067a.305.305,0,0,0,0-.6Z" transform="translate(-19.939 -12.1)" fill="#fff" stroke="#fff" stroke-miterlimit="10" stroke-width="1"/>
                  <path id="Path_87" data-name="Path 87" d="M34.656,19.5h.811a.305.305,0,0,0,0-.6h-.811a.305.305,0,0,0,0,.6Z" transform="translate(-19.939 -9.66)" fill="#fff" stroke="#fff" stroke-miterlimit="10" stroke-width="1"/>
                  <path id="Path_88" data-name="Path 88" d="M22.425,13.054V3.262a2.689,2.689,0,1,0-5.376,0v9.792A4.575,4.575,0,0,0,15.3,16.67a4.46,4.46,0,1,0,8.917,0,4.61,4.61,0,0,0-1.792-3.616Zm-2.688,7.583A3.885,3.885,0,0,1,15.9,16.67a3.967,3.967,0,0,1,1.621-3.214.259.259,0,0,0,.128-.251V3.262a2.092,2.092,0,1,1,4.181,0V13.2a.259.259,0,0,0,.128.251,4.056,4.056,0,0,1,1.664,3.214A3.921,3.921,0,0,1,19.737,20.637Z" transform="translate(-8.988 -0.5)" fill="#fff" stroke="#fff" stroke-miterlimit="10" stroke-width="1"/>
                  <path id="Path_89" data-name="Path 89" d="M6.859,8.378a.432.432,0,0,0,.256-.8.764.764,0,0,1,0-1.255.4.4,0,0,0-.256-.753.6.6,0,0,1-.609-.288.865.865,0,0,1-.074-.767.42.42,0,0,0-.683-.452.643.643,0,0,1-.667.159.8.8,0,0,1-.485-.561.439.439,0,0,0-.405-.345.439.439,0,0,0-.405.345.834.834,0,0,1-.51.559.679.679,0,0,1-.684-.157.4.4,0,0,0-.64.452.918.918,0,0,1-.116.762.637.637,0,0,1-.609.293.4.4,0,0,0-.256.753.764.764,0,0,1,0,1.255.432.432,0,0,0,.256.8.748.748,0,0,1,.725,1,.409.409,0,0,0,.64.5.679.679,0,0,1,.684-.157.834.834,0,0,1,.51.559.439.439,0,0,0,.405.345.439.439,0,0,0,.405-.345.8.8,0,0,1,.485-.561.643.643,0,0,1,.667.159.434.434,0,0,0,.683-.5.862.862,0,0,1,.1-.728A.6.6,0,0,1,6.859,8.378Zm-.384-.552a1.309,1.309,0,0,0-.981,1.356,1.324,1.324,0,0,0-1.579.552,1.324,1.324,0,0,0-1.579-.552,1.309,1.309,0,0,0-.981-1.356,1.423,1.423,0,0,0,0-1.707,1.368,1.368,0,0,0,.981-1.406,1.243,1.243,0,0,0,1.579-.5,1.243,1.243,0,0,0,1.579.5,1.368,1.368,0,0,0,.981,1.406,1.423,1.423,0,0,0,0,1.707Z" transform="translate(-0.504 -1.9)" fill="#fff" stroke="#fff" stroke-miterlimit="10" stroke-width="1"/>
                  <path id="Path_90" data-name="Path 90" d="M6.321,7.293a1.354,1.354,0,0,0-1.109.424A1.889,1.889,0,0,0,4.7,8.95a1.642,1.642,0,0,0,1.621,1.657,1.657,1.657,0,1,0,0-3.314Zm0,2.712a1.055,1.055,0,0,1,0-2.109.887.887,0,0,1,.72.266,1.232,1.232,0,0,1,.347.789,1.232,1.232,0,0,1-.347.789.887.887,0,0,1-.72.266Z" transform="translate(-2.91 -3.879)" fill="#fff" stroke="#fff" stroke-miterlimit="10" stroke-width="1"/>
                </g>
              </g>
            </g>
          </g>
        </g>
        <g id="Group_53" data-name="Group 53" transform="translate(212.474 228.155)">
          <g id="LOgo-5" data-name="LOgo" transform="translate(0 0)">
            <g id="Path_5-7" data-name="Path 5" fill="none">
              <path d="M19.472,0A19.472,19.472,0,1,1,0,19.472,19.472,19.472,0,0,1,19.472,0Z" stroke="none"/>
              <path d="M 19.4724063873291 1.999996185302734 C 14.80535697937012 1.999996185302734 10.41765594482422 3.817447662353516 7.117546081542969 7.117546081542969 C 3.817447662353516 10.41765594482422 1.999996185302734 14.80535697937012 1.999996185302734 19.4724063873291 C 1.999996185302734 24.13945770263672 3.817447662353516 28.52715682983398 7.117546081542969 31.82726669311523 C 10.41765594482422 35.12736511230469 14.80535697937012 36.94481658935547 19.4724063873291 36.94481658935547 C 24.13945770263672 36.94481658935547 28.52715682983398 35.12736511230469 31.82726669311523 31.82726669311523 C 35.12736511230469 28.52715682983398 36.94481658935547 24.13945770263672 36.94481658935547 19.4724063873291 C 36.94481658935547 14.80535697937012 35.12736511230469 10.41765594482422 31.82726669311523 7.117546081542969 C 28.52715682983398 3.817447662353516 24.13945770263672 1.999996185302734 19.4724063873291 1.999996185302734 M 19.4724063873291 -3.814697265625e-06 C 30.22671508789062 -3.814697265625e-06 38.94481658935547 8.718095779418945 38.94481658935547 19.4724063873291 C 38.94481658935547 30.22671508789062 30.22671508789062 38.94481658935547 19.4724063873291 38.94481658935547 C 8.718095779418945 38.94481658935547 -3.814697265625e-06 30.22671508789062 -3.814697265625e-06 19.4724063873291 C -3.814697265625e-06 8.718095779418945 8.718095779418945 -3.814697265625e-06 19.4724063873291 -3.814697265625e-06 Z" stroke="none" fill="#fff"/>
            </g>
          </g>
          <g id="Layer_2-3" data-name="Layer 2" transform="translate(11.718 9.305)">
            <g id="thermostat_2_Image-2" data-name="thermostat 2 Image" transform="translate(0 0)">
              <g id="secure-2" data-name="secure">
                <path id="Path_113" data-name="Path 113" d="M15.547,4.164,7.95.1H7.6L.177,4.164A.353.353,0,0,0,0,4.473v5.3A10.866,10.866,0,0,0,6.581,19.8l1.016.442h.309l1.148-.486a10.866,10.866,0,0,0,6.714-10.07V4.473A.353.353,0,0,0,15.547,4.164Zm-.53,5.521a10.159,10.159,0,0,1-6.272,9.364h0l-1.016.442-.839-.353A10.247,10.247,0,0,1,.751,9.773V4.694L7.774.851l7.244,3.843Z" transform="translate(0 -0.1)" fill="#fff"/>
                <path id="secure-3" data-name="secure" d="M10.329,19.507a.4.4,0,1,0-.574.486l1.988,2.341a.4.4,0,0,0,.53.044l4.638-3.8a.362.362,0,1,0-.442-.574L12.1,21.539Z" transform="translate(-5.338 -10.055)" fill="#fff"/>
              </g>
            </g>
          </g>
        </g>
        <g id="Group_54" data-name="Group 54" transform="translate(319.203 228.155)">
          <g id="LOgo-6" data-name="LOgo" transform="translate(0 0)">
            <g id="Path_5-8" data-name="Path 5" fill="none">
              <path d="M19.472,0A19.472,19.472,0,1,1,0,19.472,19.472,19.472,0,0,1,19.472,0Z" stroke="none"/>
              <path d="M 19.4724063873291 1.999996185302734 C 14.80535697937012 1.999996185302734 10.41765594482422 3.817447662353516 7.117546081542969 7.117546081542969 C 3.817447662353516 10.41765594482422 1.999996185302734 14.80535697937012 1.999996185302734 19.4724063873291 C 1.999996185302734 24.13945770263672 3.817447662353516 28.52715682983398 7.117546081542969 31.82726669311523 C 10.41765594482422 35.12736511230469 14.80535697937012 36.94481658935547 19.4724063873291 36.94481658935547 C 24.13945770263672 36.94481658935547 28.52715682983398 35.12736511230469 31.82726669311523 31.82726669311523 C 35.12736511230469 28.52715682983398 36.94481658935547 24.13945770263672 36.94481658935547 19.4724063873291 C 36.94481658935547 14.80535697937012 35.12736511230469 10.41765594482422 31.82726669311523 7.117546081542969 C 28.52715682983398 3.817447662353516 24.13945770263672 1.999996185302734 19.4724063873291 1.999996185302734 M 19.4724063873291 -3.814697265625e-06 C 30.22671508789062 -3.814697265625e-06 38.94481658935547 8.718095779418945 38.94481658935547 19.4724063873291 C 38.94481658935547 30.22671508789062 30.22671508789062 38.94481658935547 19.4724063873291 38.94481658935547 C 8.718095779418945 38.94481658935547 -3.814697265625e-06 30.22671508789062 -3.814697265625e-06 19.4724063873291 C -3.814697265625e-06 8.718095779418945 8.718095779418945 -3.814697265625e-06 19.4724063873291 -3.814697265625e-06 Z" stroke="none" fill="#fff"/>
            </g>
          </g>
          <text id="_" data-name="…" transform="translate(12.579 18.802)" fill="#fff" font-size="13" font-family="HelveticaNeue, Helvetica Neue"><tspan x="0" y="0">…</tspan></text>
          <g id="LOgo-7" data-name="LOgo" transform="translate(11.029 11.029)">
            <g id="Path_5-9" data-name="Path 5" transform="translate(0 0)" fill="none">
              <path d="M8.444,0A8.444,8.444,0,1,1,0,8.444,8.444,8.444,0,0,1,8.444,0Z" stroke="none"/>
              <path d="M 8.443787574768066 1.999997138977051 C 4.890667915344238 1.999997138977051 1.999997138977051 4.890667915344238 1.999997138977051 8.443787574768066 C 1.999997138977051 11.99690818786621 4.890667915344238 14.88757705688477 8.443787574768066 14.88757705688477 C 11.99690818786621 14.88757705688477 14.88757705688477 11.99690818786621 14.88757705688477 8.443787574768066 C 14.88757705688477 4.890667915344238 11.99690818786621 1.999997138977051 8.443787574768066 1.999997138977051 M 8.443787574768066 -1.9073486328125e-06 C 13.10715770721436 -1.9073486328125e-06 16.88757705688477 3.780407905578613 16.88757705688477 8.443787574768066 C 16.88757705688477 13.10715770721436 13.10715770721436 16.88757705688477 8.443787574768066 16.88757705688477 C 3.780407905578613 16.88757705688477 -1.9073486328125e-06 13.10715770721436 -1.9073486328125e-06 8.443787574768066 C -1.9073486328125e-06 3.780407905578613 3.780407905578613 -1.9073486328125e-06 8.443787574768066 -1.9073486328125e-06 Z" stroke="none" fill="#fff"/>
            </g>
          </g>
        </g>
      </g>
    </g>
  </g>
</svg>
