<svg id="red_lock" xmlns="http://www.w3.org/2000/svg" width="26.937" height="32.816" viewBox="0 0 26.937 32.816">
  <g id="secure" transform="translate(0.5 0.5)">
    <g id="Lock" transform="translate(0 0)">
      <path id="Path_196" data-name="Path 196" d="M22.908,12.356V9.05c0-4.7-4.227-8.55-9.44-8.55s-9.44,3.846-9.44,8.55v3.306A4.259,4.259,0,0,0,.5,16.551V28.057a4.259,4.259,0,0,0,4.259,4.259H22.177a4.259,4.259,0,0,0,4.259-4.259V16.551a4.259,4.259,0,0,0-3.528-4.2ZM5.2,9.05c0-4.068,3.719-7.374,8.264-7.374s8.264,3.306,8.264,7.374v3.242H5.2ZM25.26,28.057a3.083,3.083,0,0,1-3.083,3.083H4.759a3.083,3.083,0,0,1-3.083-3.083V16.551a3.083,3.083,0,0,1,3.083-3.083H22.177a3.083,3.083,0,0,1,3.083,3.083Z" transform="translate(-0.5 -0.5)" fill="#d9032c" stroke="#d9032c" stroke-miterlimit="10" stroke-width="1"/>
      <path id="Path_197" data-name="Path 197" d="M36.252,52.4A2.352,2.352,0,0,0,33.9,54.752v3.56a2.352,2.352,0,0,0,4.7,0v-3.56A2.352,2.352,0,0,0,36.252,52.4Zm1.176,5.912a1.176,1.176,0,0,1-2.352,0v-3.56a1.176,1.176,0,1,1,2.352,0Z" transform="translate(-23.284 -35.904)" fill="#d9032c" stroke="#d9032c" stroke-miterlimit="10" stroke-width="1"/>
    </g>
  </g>
</svg>
