<svg xmlns="http://www.w3.org/2000/svg" width="31.007" height="34.754" viewBox="0 0 31.007 34.754">
  <g id="Layer_2" data-name="Layer 2" transform="translate(0)">
    <g id="thermostat_2_Image" data-name="thermostat 2 Image">
      <g id="room_option" data-name="room option">
        <g id="light">
          <path id="Path_99" data-name="Path 99" d="M76.333,20.884a8.1,8.1,0,0,0,2-5.313,8.536,8.536,0,0,0-2.874-6.358A10.191,10.191,0,0,0,68.494,6.6a10.365,10.365,0,0,0-6.707,2.613A8.884,8.884,0,0,0,59,15.484a8.71,8.71,0,0,0,2,5.487,13.936,13.936,0,0,1,3.223,8.884v3.4a2.961,2.961,0,0,0,3.048,2.787h2.787a2.874,2.874,0,0,0,2.961-2.787v-3.4a14.11,14.11,0,0,1,3.31-8.971Zm-14.371-.61a7.578,7.578,0,0,1-1.742-4.79,8.238,8.238,0,0,1,8.274-7.752A9.145,9.145,0,0,1,74.591,10a7.665,7.665,0,0,1,2.439,5.574,7.4,7.4,0,0,1-1.655,4.7,15.155,15.155,0,0,0-3.571,9.32H65.532a15.155,15.155,0,0,0-3.571-9.32ZM65.532,32.9v-.523l6.271.7v.436Zm0-1.655v-.523H71.8v1.219Zm1.742,3.658a1.829,1.829,0,0,1-1.568-.871l5.313.61a1.742,1.742,0,0,1-.958.261Z" transform="translate(-53.164 -1.287)" fill="#ffe200"/>
          <path id="Path_100" data-name="Path 100" d="M62.906,17.668a3.571,3.571,0,0,1-.087-.958.61.61,0,1,0-1.219,0,4.268,4.268,0,0,0,.087,1.045c0,.348.261.523.61.523h.087a.784.784,0,0,0,.523-.61Z" transform="translate(-53.499 -2.512)" fill="#ffe200"/>
          <path id="Path_101" data-name="Path 101" d="M77.257,19.094a.61.61,0,0,0-.784.348,4.443,4.443,0,0,1-.784,1.132.61.61,0,0,0,.174.784l.348.174a.784.784,0,0,0,.523-.261,7.491,7.491,0,0,0,.871-1.394C77.779,19.53,77.605,19.268,77.257,19.094Z" transform="translate(-55.308 -2.894)" fill="#ffe200"/>
          <path id="Path_102" data-name="Path 102" d="M70.01,4.855a.61.61,0,0,0,.61-.61V1.11a.61.61,0,0,0-1.219,0V4.245A.61.61,0,0,0,70.01,4.855Z" transform="translate(-54.506 -0.5)" fill="#ffe200"/>
          <path id="Path_103" data-name="Path 103" d="M62.629,6.273a.61.61,0,0,0,.523.261H63.5a.61.61,0,0,0,.174-.784L61.932,2.963a.61.61,0,0,0-.784-.174.523.523,0,0,0-.261.784Z" transform="translate(-53.396 -0.786)" fill="#ffe200"/>
          <path id="Path_104" data-name="Path 104" d="M84.624,24.055l-2.961-1.568a.7.7,0,0,0-.871.174.61.61,0,0,0,.261.784L84.015,25.1h.348a.61.61,0,0,0,.523-.261.523.523,0,0,0-.261-.784Z" transform="translate(-55.969 -3.326)" fill="#ffe200"/>
          <path id="Path_105" data-name="Path 105" d="M54.856,9.446,57.818,11.1h.348a.7.7,0,0,0,.523-.348.61.61,0,0,0-.174-.784L55.466,8.488a.7.7,0,0,0-.871.174C54.508,9.01,54.6,9.359,54.856,9.446Z" transform="translate(-52.592 -1.52)" fill="#ffe200"/>
          <path id="Path_106" data-name="Path 106" d="M86.594,16.3H83.11a.568.568,0,1,0,0,1.132h3.484a.568.568,0,1,0,0-1.132Z" transform="translate(-56.196 -2.538)" fill="#ffe200"/>
          <path id="Path_107" data-name="Path 107" d="M57,16.91a.7.7,0,0,0-.7-.61h-3.4a.568.568,0,1,0,0,1.132h3.4C56.655,17.432,57,17.171,57,16.91Z" transform="translate(-52.3 -2.538)" fill="#ffe200"/>
          <path id="Path_108" data-name="Path 108" d="M81.4,11.2h.261l2.961-1.655c.348-.087.436-.436.261-.784a.7.7,0,0,0-.871-.174l-2.961,1.568a.61.61,0,0,0-.261.784.871.871,0,0,0,.61.348Z" transform="translate(-55.969 -1.533)" fill="#ffe200"/>
          <path id="Path_109" data-name="Path 109" d="M57.818,22.488l-2.961,1.568a.7.7,0,0,0-.261.784.784.784,0,0,0,.61.261h.261l3.048-1.655a.61.61,0,0,0,.174-.784A.7.7,0,0,0,57.818,22.488Z" transform="translate(-52.592 -3.326)" fill="#ffe200"/>
          <path id="Path_110" data-name="Path 110" d="M76.248,6.42h.261a.784.784,0,0,0,.61-.261l1.655-2.787a.61.61,0,0,0-.174-.784.7.7,0,0,0-.871.174L75.987,5.636a.523.523,0,0,0,.261.784Z" transform="translate(-55.344 -0.759)" fill="#ffe200"/>
        </g>
      </g>
    </g>
  </g>
</svg>
