<?xml version="1.0" encoding="utf-8"?>
<!-- Generator: Adobe Illustrator 21.1.0, SVG Export Plug-In . SVG Version: 6.00 Build 0)  -->
<svg version="1.1" id="Layer_1" xmlns="http://www.w3.org/2000/svg" xmlns:xlink="http://www.w3.org/1999/xlink" x="0px" y="0px"
	 viewBox="0 0 27.6 32.8" style="enable-background:new 0 0 27.6 32.8;" xml:space="preserve">
<style type="text/css">
	.st0{fill:#03D93D;stroke:#03D93D;stroke-miterlimit:10;}
</style>
<g id="green_lock" transform="translate(-214.4 -316.45)">
	<path id="Path_197" class="st0" d="M227.9,333.4c-1.3,0-2.4,1.1-2.4,2.4v3.6c0.1,1.3,1.1,2.3,2.4,2.3c1.2-0.1,2.2-1,2.3-2.3v-3.6
		C230.2,334.5,229.2,333.4,227.9,333.4z M229,339.4c0,0.6-0.5,1.2-1.2,1.2s-1.2-0.5-1.2-1.2v-3.6c0-0.6,0.5-1.2,1.2-1.2
		s1.2,0.5,1.2,1.2V339.4z"/>
	<path class="st0" d="M237.3,328.8v-0.6h-1.2v0.5h-16.5v-3.2c0-4.1,3.7-7.4,8.3-7.4c3.7,0,6.8,2.1,7.9,5.1h1.2
		c-1.1-3.6-4.7-6.3-9.1-6.3c-5.2,0-9.4,3.8-9.4,8.5v3.3c-2,0.4-3.5,2.1-3.5,4.2v11.5c0,2.4,1.9,4.3,4.3,4.3h17.4
		c2.4,0,4.3-1.9,4.3-4.3V333C240.8,330.9,239.3,329.2,237.3,328.8z M239.7,344.5c0,1.7-1.4,3.1-3.1,3.1h-17.4
		c-1.7,0-3.1-1.4-3.1-3.1V333c0-1.7,1.4-3.1,3.1-3.1h17.4c1.7,0,3.1,1.4,3.1,3.1V344.5z"/>
</g>
</svg>
